<svg width="380" height="567" viewBox="0 0 380 567" fill="none" xmlns="http://www.w3.org/2000/svg">
<g opacity="0.1">
<path d="M221.729 119.471L161.416 231.87L63.0578 244.465L221.729 119.471Z" fill="#008A35"/>
<path d="M221.752 119.426L206.065 320.632L161.415 231.87L221.752 119.426Z" fill="#008A35"/>
<path d="M161.415 231.849L48.7261 443.428L63.0725 244.462L161.415 231.849Z" fill="#008A35"/>
<path d="M161.417 231.846L206.066 320.65L48.7215 443.437L161.417 231.846Z" fill="#008A35"/>
<path d="M359.384 405.243L254.51 424.762L198.638 367.176L359.384 405.243Z" fill="#008A35"/>
<path d="M359.416 405.236L220.293 500.041L254.622 424.701L359.416 405.236Z" fill="#008A35"/>
<path d="M198.63 367.181L254.589 424.741L60.9136 459.771L198.63 367.181Z" fill="#008A35"/>
<path d="M254.622 424.702L220.355 500.009L60.7467 459.751L254.622 424.702Z" fill="#008A35"/>
<path d="M31.0226 279.798L-49.2495 262.999L-91.3912 166.69L31.0226 279.798Z" fill="#008A35"/>
<path d="M-49.4504 262.462L27.2329 442.492L-94.0234 331.039L-49.4504 262.462Z" fill="#008A35"/>
<path d="M-49.2182 263L27.236 442.496L30.9132 279.765L-49.2182 263Z" fill="#008A35"/>
<path d="M-84.9487 376.258L15.5766 460.475L-134.481 418.382L-84.9487 376.258Z" fill="#008A35"/>
<path d="M-112.486 479.525L15.5919 460.474L-134.481 418.383L-112.486 479.525Z" fill="#008A35"/>
<path d="M178.698 518.036L172.418 581.864L54.0713 481.295L178.698 518.036Z" fill="#008A35"/>
<path d="M110.783 598.194L172.433 581.865L54.0714 481.31L110.783 598.194Z" fill="#008A35"/>
<path d="M178.702 518.025L233.575 636.381L172.433 581.858L178.702 518.025Z" fill="#008A35"/>
<path d="M110.766 598.2L233.592 636.392L172.409 581.867L110.766 598.2Z" fill="#008A35"/>
<path d="M34.0854 470.975L34.0835 470.983L3.75329 481.109L34.0854 470.975Z" fill="#008A35"/>
<path d="M34.0955 470.956L43.0321 502.017L34.0835 470.983L34.0955 470.956Z" fill="#008A35"/>
<path d="M34.0854 470.975L-37.0425 604.354L3.75736 481.106L34.0854 470.975Z" fill="#008A35"/>
<path d="M34.0854 470.975L43.0306 502.024L-37.0445 604.357L34.0854 470.975Z" fill="#008A35"/>
</g>
</svg>
