<svg width="685" height="887" viewBox="0 0 685 887" fill="none" xmlns="http://www.w3.org/2000/svg">
<g opacity="0.1">
<path d="M451.46 364.427L605.364 384.134L357.086 188.551L451.46 364.427Z" fill="#008A35" stroke="black" stroke-width="0.464975"/>
<path d="M451.05 364.646L356.634 188.692L381.182 503.541L451.05 364.646Z" fill="#008A35" stroke="black" stroke-width="0.464975"/>
<path d="M605.927 384.673L451.73 364.897L628.422 696.644L605.927 384.673Z" fill="#008A35" stroke="black" stroke-width="0.464975"/>
<path d="M381.307 504.353L628.02 696.881L451.316 365.11L381.307 504.353Z" fill="#008A35" stroke="black" stroke-width="0.464975"/>
<path d="M304.662 668.084L391.987 578.08L140.752 637.577L304.662 668.084Z" fill="#008A35" stroke="black" stroke-width="0.464975"/>
<path d="M304.405 668.446L140.622 638.023L358.059 786.194L304.405 668.446Z" fill="#008A35" stroke="black" stroke-width="0.464975"/>
<path d="M608.494 723.028L392.753 577.98L305.09 668.151L608.494 723.028Z" fill="#008A35" stroke="black" stroke-width="0.464975"/>
<path d="M358.648 786.532L608.708 723.46L304.962 668.547L358.648 786.532Z" fill="#008A35" stroke="black" stroke-width="0.464975"/>
<path d="M782.822 413.448L848.677 262.947L657.381 439.7L782.822 413.448Z" fill="#008A35" stroke="black" stroke-width="0.464975"/>
<path d="M853.178 520.738L783.346 413.299L663.208 695.349L853.178 520.738Z" fill="#008A35" stroke="black" stroke-width="0.464975"/>
<path d="M657.014 440.236L782.55 413.971L662.775 695.174L657.014 440.236Z" fill="#008A35" stroke="black" stroke-width="0.464975"/>
<path d="M839.192 592.273L681.902 724.046L916.694 658.183L839.192 592.273Z" fill="#008A35" stroke="black" stroke-width="0.464975"/>
<path d="M916.806 658.637L882.395 754.296L682.01 724.49L916.806 658.637Z" fill="#008A35" stroke="black" stroke-width="0.464975"/>
<path d="M619.33 757.874L424.352 815.355L434.177 915.213L619.33 757.874Z" fill="#008A35" stroke="black" stroke-width="0.464975"/>
<path d="M619.625 758.256L530.904 941.113L434.455 915.568L619.625 758.256Z" fill="#008A35" stroke="black" stroke-width="0.464975"/>
<path d="M433.724 915.574L423.949 816.041L338.387 1000.59L433.724 915.574Z" fill="#008A35" stroke="black" stroke-width="0.464975"/>
<path d="M434.066 915.938L530.215 941.415L338.632 1000.99L434.066 915.938Z" fill="#008A35" stroke="black" stroke-width="0.464975"/>
<path d="M651.783 741.093L651.786 741.105L699.538 757.048L651.783 741.093Z" fill="#008A35"/>
<path d="M651.767 741.063L637.697 789.967L651.786 741.105L651.767 741.063Z" fill="#008A35"/>
<path d="M651.783 741.093L763.768 951.087L699.532 757.044L651.783 741.093Z" fill="#008A35"/>
<path d="M651.783 741.093L637.7 789.977L763.771 951.093L651.783 741.093Z" fill="#008A35"/>
</g>
</svg>
