<svg width="677" height="834" viewBox="0 0 677 834" fill="none" xmlns="http://www.w3.org/2000/svg">
<g clip-path="url(#clip0_2747_1318)">
<g opacity="0.1">
<path d="M226.503 469.362L72.5985 449.655L320.877 645.237L226.503 469.362Z" fill="#008A35" stroke="black" stroke-width="0.464975"/>
<path d="M226.913 469.143L321.329 645.097L296.781 330.248L226.913 469.143Z" fill="#008A35" stroke="black" stroke-width="0.464975"/>
<path d="M72.0359 449.115L226.233 468.892L49.5412 137.145L72.0359 449.115Z" fill="#008A35" stroke="black" stroke-width="0.464975"/>
<path d="M296.655 329.436L49.9428 136.908L226.647 468.679L296.655 329.436Z" fill="#008A35" stroke="black" stroke-width="0.464975"/>
<path d="M373.301 165.705L285.976 255.71L537.211 196.213L373.301 165.705Z" fill="#008A35" stroke="black" stroke-width="0.464975"/>
<path d="M373.558 165.343L537.341 195.766L319.904 47.5949L373.558 165.343Z" fill="#008A35" stroke="black" stroke-width="0.464975"/>
<path d="M69.4694 110.761L285.21 255.809L372.873 165.638L69.4694 110.761Z" fill="#008A35" stroke="black" stroke-width="0.464975"/>
<path d="M319.315 47.2575L69.2553 110.33L373.001 165.242L319.315 47.2575Z" fill="#008A35" stroke="black" stroke-width="0.464975"/>
<path d="M-104.859 420.341L-170.714 570.842L20.5825 394.089L-104.859 420.341Z" fill="#008A35" stroke="black" stroke-width="0.464975"/>
<path d="M-175.215 313.051L-105.383 420.491L14.7548 138.44L-175.215 313.051Z" fill="#008A35" stroke="black" stroke-width="0.464975"/>
<path d="M20.9487 393.553L-104.587 419.818L15.1878 138.616L20.9487 393.553Z" fill="#008A35" stroke="black" stroke-width="0.464975"/>
<path d="M-161.229 241.517L-3.93844 109.743L-238.731 175.606L-161.229 241.517Z" fill="#008A35" stroke="black" stroke-width="0.464975"/>
<path d="M58.6324 75.9143L253.611 18.4329L243.786 -81.4247L58.6324 75.9143Z" fill="#008A35" stroke="black" stroke-width="0.464975"/>
<path d="M58.3377 75.5315L147.059 -107.326L243.507 -81.7807L58.3377 75.5315Z" fill="#008A35" stroke="black" stroke-width="0.464975"/>
<path d="M244.239 -81.786L254.014 17.7472L339.576 -166.802L244.239 -81.786Z" fill="#008A35" stroke="black" stroke-width="0.464975"/>
<path d="M26.1797 92.6962L26.1768 92.684L-21.5756 76.7408L26.1797 92.6962Z" fill="#008A35"/>
<path d="M26.1957 92.7259L40.2656 43.8224L26.1768 92.684L26.1957 92.7259Z" fill="#008A35"/>
<path d="M26.1797 92.6962L-85.8054 -117.298L-21.5692 76.7449L26.1797 92.6962Z" fill="#008A35"/>
<path d="M26.1797 92.6962L40.2633 43.8123L-85.8085 -117.304L26.1797 92.6962Z" fill="#008A35"/>
</g>
</g>
<defs>
<clipPath id="clip0_2747_1318">
<rect width="677" height="834" fill="white" transform="matrix(1 0 0 -1 0 834)"/>
</clipPath>
</defs>
</svg>
