<svg width="37" height="37" viewBox="0 0 37 37" fill="none" xmlns="http://www.w3.org/2000/svg">
<path d="M27.3518 13.4133L28.3076 12.8516L27.3507 12.2919L19.3591 7.6174L19.0332 7.42678L18.7061 7.61541L10.7437 12.208L9.80192 12.7512L10.7261 13.3237L18.5619 18.1771L18.8953 18.3836L19.2335 18.1849L27.3518 13.4133Z" stroke="#008A35" stroke-width="1.3"/>
<path d="M8.77627 24.3333V24.709L9.10179 24.8966L16.8926 29.3849L17.8671 29.9462V28.8216V20.3151V19.9533L17.5596 19.7627L9.76881 14.9317L8.77627 14.3163V15.4841V24.3333Z" stroke="#008A35" stroke-width="1.3"/>
<path d="M29.2757 15.5515V14.4154L28.2963 14.9912L20.1925 19.7548L19.8719 19.9433V20.3152V28.8217V29.9362L20.842 29.3874L28.9458 24.8027L29.2757 24.616V24.237V15.5515Z" stroke="#008A35" stroke-width="1.3"/>
<path d="M6.01876 24.0927V12.9335C5.59036 13.0475 5.13932 13.0452 4.71207 12.927V24.0992C5.13932 23.981 5.59035 23.9787 6.01876 24.0927Z" fill="#008A35"/>
<path d="M17.2171 4.59676C16.8863 4.30207 16.6385 3.92587 16.4984 3.50562L7.26013 8.85654C7.55341 9.19266 7.75186 9.60084 7.83507 10.0391L17.2171 4.59676Z" fill="#008A35"/>
<path d="M31.9305 12.9791V24.0468C32.3692 23.969 32.8209 24.0119 33.2371 24.1709V12.855C32.8209 13.0139 32.3692 13.0569 31.9305 12.9791Z" fill="#008A35"/>
<path d="M7.07717 28.3655L16.4854 33.5727C16.6147 33.1481 16.8535 32.765 17.1779 32.462L7.76976 27.2549C7.64046 27.6795 7.40159 28.0626 7.07717 28.3655Z" fill="#008A35"/>
<path d="M20.5949 32.4489C20.9255 32.7438 21.1694 33.1233 21.3005 33.5465L30.5911 28.3132C30.2727 28.0048 30.0426 27.6168 29.9247 27.1895L20.5949 32.4489Z" fill="#008A35"/>
<path d="M30.5061 8.79793L21.294 3.49927C21.1581 3.92341 20.9097 4.30276 20.5753 4.59692L29.8985 9.95432C29.9951 9.52186 30.2048 9.1228 30.5061 8.79793Z" fill="#008A35"/>
<path d="M17.877 3.38141C18.0196 3.5981 18.2279 3.7634 18.4713 3.8531C18.7147 3.9428 18.9804 3.95217 19.2295 3.87984C19.4787 3.80751 19.6981 3.65728 19.8556 3.45118C20.0131 3.24507 20.1005 2.99393 20.1049 2.73456C20.1081 2.54451 20.0666 2.35636 19.9838 2.18525C19.9011 2.01415 19.7793 1.86488 19.6282 1.74945C19.4772 1.63403 19.3012 1.55568 19.1144 1.52072C18.9275 1.48575 18.7351 1.49515 18.5526 1.54815C18.37 1.60114 18.2025 1.69627 18.0634 1.82585C17.9244 1.95544 17.8177 2.11587 17.7519 2.29422C17.6862 2.47257 17.6633 2.66387 17.685 2.8527C17.7067 3.04154 17.7725 3.22263 17.877 3.38141Z" fill="#008A35"/>
<path d="M19.8828 33.5988C19.7635 33.429 19.6026 33.2929 19.4154 33.2034C19.2282 33.114 19.0212 33.0743 18.8142 33.0881C18.6072 33.102 18.4073 33.169 18.2337 33.2826C18.0602 33.3962 17.9188 33.5526 17.8232 33.7367C17.7277 33.9208 17.6812 34.1265 17.6883 34.3338C17.6953 34.5411 17.7557 34.7431 17.8635 34.9203C17.9713 35.0975 18.123 35.244 18.3039 35.3455C18.4848 35.4471 18.6888 35.5003 18.8962 35.5C19.116 35.4972 19.331 35.4348 19.5181 35.3194C19.7053 35.204 19.8576 35.04 19.9589 34.8449C20.0601 34.6497 20.1065 34.4307 20.0931 34.2113C20.0797 33.9919 20.007 33.7802 19.8828 33.5988Z" fill="#008A35"/>
<path d="M5.37191 9.30103C5.05384 9.3035 4.74963 9.43159 4.52559 9.65739C4.30155 9.88319 4.17583 10.1884 4.17584 10.5065C4.17584 10.8245 4.30157 11.1297 4.52562 11.3555C4.74966 11.5813 5.05387 11.7094 5.37195 11.7119C5.69002 11.7094 5.99423 11.5813 6.21827 11.3555C6.44231 11.1297 6.56803 10.8245 6.56802 10.5064C6.56802 10.1883 6.44229 9.88315 6.21824 9.65736C5.99419 9.43158 5.68999 9.30349 5.37191 9.30103Z" fill="#008A35"/>
<path d="M5.37193 25.3145C5.05392 25.317 4.74981 25.4452 4.52585 25.671C4.30189 25.8967 4.17623 26.2019 4.17623 26.5199C4.17624 26.8379 4.30191 27.1431 4.52588 27.3688C4.74984 27.5946 5.05395 27.7227 5.37196 27.7253C5.68997 27.7227 5.99408 27.5946 6.21804 27.3688C6.442 27.143 6.56767 26.8379 6.56766 26.5199C6.56766 26.2018 6.44198 25.8967 6.21802 25.6709C5.99405 25.4451 5.68994 25.317 5.37193 25.3145Z" fill="#008A35"/>
<path d="M32.3421 11.7119C32.6601 11.7093 32.9642 11.5812 33.1881 11.3554C33.4121 11.1296 33.5378 10.8245 33.5378 10.5064C33.5377 10.1884 33.4121 9.88328 33.1881 9.6575C32.9641 9.43172 32.66 9.30359 32.342 9.30103C32.024 9.3036 31.7199 9.43174 31.4959 9.65752C31.272 9.88331 31.1463 10.1884 31.1463 10.5065C31.1463 10.8245 31.272 11.1296 31.496 11.3554C31.7199 11.5812 32.024 11.7093 32.3421 11.7119Z" fill="#008A35"/>
<path d="M32.3421 25.3145C32.0253 25.319 31.7231 25.4479 31.5007 25.6735C31.2783 25.8991 31.1536 26.2031 31.1536 26.5199C31.1536 26.8367 31.2783 27.1407 31.5007 27.3663C31.7231 27.5918 32.0254 27.7208 32.3421 27.7253C32.6588 27.7208 32.9611 27.5918 33.1835 27.3662C33.4058 27.1407 33.5305 26.8366 33.5305 26.5199C33.5305 26.2031 33.4058 25.899 33.1834 25.6735C32.961 25.4479 32.6588 25.3189 32.3421 25.3145Z" fill="#008A35"/>
</svg>
