<svg width="49" height="48" viewBox="0 0 49 48" fill="none" xmlns="http://www.w3.org/2000/svg">
<path d="M36.6162 45.8264C41.971 45.8264 46.3263 41.5994 46.3263 36.3674C46.3263 31.1354 41.971 26.9084 36.6162 26.9084C31.2614 26.9084 26.9061 31.1354 26.9061 36.3674C26.9061 41.5994 31.2614 45.8264 36.6162 45.8264Z" fill="#121D12" stroke="#12DC60" stroke-width="0.623377"/>
<g filter="url(#filter0_ii_2747_1193)">
<path d="M44.9197 36.3927C44.9197 40.8858 41.1584 44.5281 36.5187 44.5281C31.8789 44.5281 28.1176 40.8858 28.1176 36.3927C28.1176 31.8996 31.8789 28.2572 36.5187 28.2572C41.1584 28.2572 44.9197 31.8996 44.9197 36.3927Z" fill="url(#paint0_radial_2747_1193)"/>
</g>
<path d="M44.8169 36.3927C44.8169 40.8259 41.1048 44.4253 36.5187 44.4253C31.9325 44.4253 28.2204 40.8259 28.2204 36.3927C28.2204 31.9594 31.9325 28.36 36.5187 28.36C41.1048 28.36 44.8169 31.9594 44.8169 36.3927Z" stroke="#12DC60" stroke-width="0.205557"/>
<path d="M36.5661 32.7815L34.6691 34.1266L36.5754 29.7901L36.5661 32.7815Z" fill="#12DC60" stroke="black" stroke-width="0.0399934"/>
<path d="M36.6061 32.7816L36.6154 29.7881L38.5094 34.127L36.6061 32.7816Z" fill="#12DC60" stroke="black" stroke-width="0.0399934"/>
<path d="M34.6469 34.1912L36.5659 32.8301V38.5184L34.6469 34.1912Z" fill="#12DC60" stroke="black" stroke-width="0.0399934"/>
<path d="M38.5317 34.1919L36.6058 38.519V32.83L38.5317 34.1919Z" fill="#12DC60" stroke="black" stroke-width="0.0399934"/>
<path d="M40.7794 35.8413L38.9999 35.2691L42.7221 34.2914L40.7794 35.8413Z" fill="#12DC60" stroke="black" stroke-width="0.0399934"/>
<path d="M40.8058 35.8702L42.7472 34.3225L40.925 37.7952L40.8058 35.8702Z" fill="#12DC60" stroke="black" stroke-width="0.0399934"/>
<path d="M37.0962 38.7488L38.9383 35.2911L40.7431 35.8695L37.0962 38.7488Z" fill="#12DC60" stroke="black" stroke-width="0.0399934"/>
<path d="M40.8894 37.8511L37.1148 38.7841L40.7676 35.9006L40.8894 37.8511Z" fill="#12DC60" stroke="black" stroke-width="0.0399934"/>
<path d="M32.4304 35.8417L30.5108 34.3242L34.2634 35.3085L32.4304 35.8417Z" fill="#12DC60" stroke="black" stroke-width="0.0399934"/>
<path d="M32.4051 35.8727L32.2395 37.7761L30.4842 34.3551L32.4051 35.8727Z" fill="#12DC60" stroke="black" stroke-width="0.0399934"/>
<path d="M32.2646 37.8179L32.4323 35.8934L36.0298 38.795L32.2646 37.8179Z" fill="#12DC60" stroke="black" stroke-width="0.0399934"/>
<path d="M34.3253 35.3318L32.4692 35.8718L36.0551 38.7642L34.3253 35.3318Z" fill="#12DC60" stroke="black" stroke-width="0.0399934"/>
<path d="M32.3571 40.1538L30.5207 40.57L32.9086 38.7639L32.3571 40.1538Z" fill="#12DC60" stroke="black" stroke-width="0.0399934"/>
<path d="M32.3659 40.188L30.5282 40.6086L33.4749 41.1934L32.3659 40.188Z" fill="#12DC60" stroke="black" stroke-width="0.0399934"/>
<path d="M32.4055 40.14L32.9663 38.7223L35.9749 39.3571L32.4055 40.14Z" fill="#12DC60" stroke="black" stroke-width="0.0399934"/>
<path d="M32.4152 40.1787L33.5437 41.2011L35.9831 39.396L32.4152 40.1787Z" fill="#12DC60" stroke="black" stroke-width="0.0399934"/>
<path d="M37.2292 39.3638L40.2113 38.7509L40.7844 40.1401L37.2292 39.3638Z" fill="#12DC60" stroke="black" stroke-width="0.0399934"/>
<path d="M37.2214 39.4034L39.6812 41.1956L40.7761 40.1791L37.2214 39.4034Z" fill="#12DC60" stroke="black" stroke-width="0.0399934"/>
<path d="M40.8323 40.1505L40.2698 38.788L42.6615 40.5959L40.8323 40.1505Z" fill="#12DC60" stroke="black" stroke-width="0.0399934"/>
<path d="M40.8229 40.1899L39.7469 41.1891L42.6566 40.6357L40.8229 40.1899Z" fill="#12DC60" stroke="black" stroke-width="0.0399934"/>
<path d="M36.5865 39.3705L36.5865 39.3707L36.052 39.934L36.5865 39.3705Z" fill="#12DC60"/>
<path d="M36.5865 39.37L37.1326 39.9337L36.5865 39.3707L36.5865 39.37Z" fill="#12DC60"/>
<path d="M36.5865 39.3705L36.5846 43.0413L36.0521 39.9339L36.5865 39.3705Z" fill="#12DC60"/>
<path d="M36.5865 39.3705L37.1326 39.9339L36.5846 43.0414L36.5865 39.3705Z" fill="#12DC60"/>
<g clip-path="url(#clip0_2747_1193)">
<path d="M21.2444 10.1856C21.2444 15.0055 17.3371 18.9129 12.5171 18.9129C7.6972 18.9129 3.78987 15.0055 3.78987 10.1856C3.78987 5.36567 7.6972 1.45834 12.5171 1.45834C17.3371 1.45834 21.2444 5.36567 21.2444 10.1856Z" fill="#1C2234" stroke="#12DC60" stroke-width="1.24675"/>
<path d="M12.5162 12.7328L9.37437 10.8767L12.5162 15.3052L15.6608 10.8767L12.5162 12.7328Z" fill="white"/>
<path d="M15.659 10.281L12.5162 12.1381L9.37344 10.281L12.5162 5.06616L15.659 10.281Z" fill="white"/>
<path d="M15.6589 10.281L12.5162 8.85224V5.06616L15.6589 10.281Z" fill="#C1CCF7"/>
<path d="M15.6608 10.8767L12.5162 15.3052V12.7328L15.6608 10.8767Z" fill="#C1CCF7"/>
<path d="M12.5162 8.85217V12.138L9.37437 10.281L12.5162 8.85217Z" fill="#C1CCF7"/>
<path d="M15.659 10.281L12.5162 12.138V8.85217L15.659 10.281Z" fill="#8198EE"/>
</g>
<path d="M41.5484 25.5844L31.326 19.7273L35.1592 18.2779C35.3458 18.2073 35.4467 17.9968 35.3735 17.803L35.0313 16.833C34.5703 15.4402 33.9192 14.1522 33.087 13.0146C31.367 10.7442 29.2228 9.34792 26.2423 8.60426L27.3262 8.19441C27.3648 8.18802 27.4106 8.17891 27.4635 8.16709C28.5403 7.75995 29.7504 7.53209 30.9369 7.5019C35.0945 7.43126 38.8814 10.0688 40.3932 14.0671L40.4122 14.1174L40.9958 15.6607C41.0691 15.8545 41.284 15.9455 41.4706 15.875L45.3325 14.4147L41.5484 25.5844Z" fill="#12DC60"/>
<path d="M24.1413 40.1828L23.0599 40.6737C23.0178 40.6756 22.9719 40.6879 22.9292 40.7073C21.8621 41.1918 20.6476 41.5029 19.4442 41.6116C15.2248 41.9569 11.2038 39.5264 9.40477 35.5637C9.39831 35.5495 9.38862 35.5281 9.38216 35.5139L8.68773 33.9843C8.60052 33.7922 8.37294 33.7068 8.18086 33.794L4.38178 35.5187L7.49084 23.939L18.2516 29.2133L14.4525 30.9381C14.2675 31.022 14.1788 31.2425 14.2589 31.4378L14.6704 32.4008C15.2304 33.7855 15.9767 35.0513 16.897 36.1523C18.8009 38.3426 21.061 39.6162 24.1413 40.1828Z" fill="#12DC60"/>
<defs>
<filter id="filter0_ii_2747_1193" x="28.1176" y="27.9368" width="16.8021" height="16.7809" filterUnits="userSpaceOnUse" color-interpolation-filters="sRGB">
<feFlood flood-opacity="0" result="BackgroundImageFix"/>
<feBlend mode="normal" in="SourceGraphic" in2="BackgroundImageFix" result="shape"/>
<feColorMatrix in="SourceAlpha" type="matrix" values="0 0 0 0 0 0 0 0 0 0 0 0 0 0 0 0 0 0 127 0" result="hardAlpha"/>
<feOffset dy="-0.320411"/>
<feGaussianBlur stdDeviation="0.224287"/>
<feComposite in2="hardAlpha" operator="arithmetic" k2="-1" k3="1"/>
<feColorMatrix type="matrix" values="0 0 0 0 0 0 0 0 0 0 0 0 0 0 0 0 0 0 0.25 0"/>
<feBlend mode="normal" in2="shape" result="effect1_innerShadow_2747_1193"/>
<feColorMatrix in="SourceAlpha" type="matrix" values="0 0 0 0 0 0 0 0 0 0 0 0 0 0 0 0 0 0 127 0" result="hardAlpha"/>
<feOffset dy="0.347112"/>
<feGaussianBlur stdDeviation="0.0947881"/>
<feComposite in2="hardAlpha" operator="arithmetic" k2="-1" k3="1"/>
<feColorMatrix type="matrix" values="0 0 0 0 0 0 0 0 0 0 0 0 0 0 0 0 0 0 0.25 0"/>
<feBlend mode="normal" in2="effect1_innerShadow_2747_1193" result="effect2_innerShadow_2747_1193"/>
</filter>
<radialGradient id="paint0_radial_2747_1193" cx="0" cy="0" r="1" gradientUnits="userSpaceOnUse" gradientTransform="translate(36.5187 36.3927) rotate(90) scale(8.13546 8.40105)">
<stop stop-color="#0C120C"/>
<stop offset="1" stop-color="#153A15"/>
</radialGradient>
<clipPath id="clip0_2747_1193">
<rect width="18.7013" height="18.7013" fill="white" transform="translate(3.16649 0.834961)"/>
</clipPath>
</defs>
</svg>
