<svg width="25" height="25" viewBox="0 0 25 25" fill="none" xmlns="http://www.w3.org/2000/svg">
<g clip-path="url(#clip0_2747_752)">
<path opacity="0.2" fill-rule="evenodd" clip-rule="evenodd" d="M12.4745 24.1637C18.9724 24.1637 24.2393 18.8969 24.2393 12.399C24.2393 5.9011 18.9724 0.634277 12.4745 0.634277C5.97666 0.634277 0.709839 5.9011 0.709839 12.399C0.709839 18.8969 5.97666 24.1637 12.4745 24.1637ZM12.4745 22.2813C17.9324 22.2813 22.3569 17.8569 22.3569 12.399C22.3569 6.9411 17.9324 2.51663 12.4745 2.51663C7.01666 2.51663 2.59219 6.9411 2.59219 12.399C2.59219 17.8569 7.01666 22.2813 12.4745 22.2813Z" fill="#154428"/>
<g opacity="0.2">
<path fill-rule="evenodd" clip-rule="evenodd" d="M12.2101 12.1184C12.4597 12.1184 12.6991 12.2176 12.8756 12.3941C13.0521 12.5706 13.1513 12.81 13.1513 13.0596V19.1772C13.1513 19.4268 13.0521 19.6662 12.8756 19.8427C12.6991 20.0192 12.4597 20.1184 12.2101 20.1184C11.9605 20.1184 11.7211 20.0192 11.5446 19.8427C11.3681 19.6662 11.2689 19.4268 11.2689 19.1772V13.0596C11.2689 12.81 11.3681 12.5706 11.5446 12.3941C11.7211 12.2176 11.9605 12.1184 12.2101 12.1184Z" fill="#154428"/>
<path d="M11.0449 7.93404C12.8049 9.43239 13.3884 11.6357 12.3503 12.8545C11.3122 14.0743 9.29151 14.5552 6.99315 12.8545C4.94045 11.3355 3.8628 7.73451 4.90092 6.51663C5.93998 5.29781 9.28586 6.43663 11.0449 7.93498" fill="#154428"/>
<path fill-rule="evenodd" clip-rule="evenodd" d="M10.9282 10.9815C10.8011 10.5062 10.4491 9.89915 9.82418 9.36738C9.171 8.81021 8.14888 8.27562 7.21335 8.02338C6.94251 7.94562 6.6637 7.89889 6.3823 7.88409C6.38041 8.15891 6.43688 8.54668 6.58182 9.00127C6.89241 9.97727 7.4863 10.878 8.11312 11.342C8.97994 11.9829 9.62935 12.0968 10.0218 12.0714C10.4152 12.046 10.7145 11.8728 10.9178 11.6347C10.9235 11.6271 11.0562 11.4662 10.9272 10.9815M6.1103 7.90385C6.1103 7.90385 6.11218 7.90197 6.11782 7.90103C6.11537 7.90188 6.11286 7.90251 6.1103 7.90291M12.3503 12.8535C13.3884 11.6347 12.8039 9.43138 11.0439 7.93303C9.28394 6.43468 5.939 5.29585 4.89994 6.51468C3.86182 7.7335 4.93947 11.3344 6.99218 12.8535C9.29147 14.5542 11.3122 14.0733 12.3494 12.8535" fill="#154428"/>
<path d="M14.482 10.107C12.6797 11.2346 12.0736 13.4049 12.7164 14.4308C13.3583 15.4567 15.1042 16.3979 17.4063 15.131C19.4627 13.9988 20.6919 10.6341 20.0491 9.60822C19.4072 8.58234 16.2844 8.97857 14.482 10.107Z" fill="#154428"/>
<path fill-rule="evenodd" clip-rule="evenodd" d="M14.451 12.9531C14.6129 12.5098 14.9564 12.0308 15.4806 11.7014C16.099 11.3155 17.0439 11.0096 17.8938 10.9221C18.0256 10.9079 18.146 10.9014 18.2533 10.8985C18.1912 11.1308 18.1112 11.358 18.0143 11.5781C17.6246 12.4722 17.0307 13.1884 16.499 13.4821C15.7159 13.9122 15.1917 13.8905 14.9037 13.8171C14.6896 13.7668 14.4965 13.651 14.3512 13.4858C14.3509 13.3033 14.3847 13.1232 14.451 12.9531ZM18.3362 10.3169L18.338 10.3329C18.3379 10.3275 18.3373 10.3221 18.3362 10.3169ZM18.8115 10.9456C18.8183 10.949 18.8256 10.9515 18.8331 10.9531C18.8331 10.9531 18.8275 10.9494 18.8115 10.9456ZM12.7164 14.4298C12.0736 13.404 12.6797 11.2336 14.482 10.1061C16.2835 8.9776 19.4072 8.58136 20.0491 9.60724C20.6919 10.6331 19.4627 13.9978 17.4063 15.1301C15.1042 16.3969 13.3592 15.4557 12.7164 14.4298Z" fill="#154428"/>
</g>
<path fill-rule="evenodd" clip-rule="evenodd" d="M11.8157 12.6831C11.9405 12.6831 12.0602 12.7327 12.1484 12.8209C12.2367 12.9092 12.2863 13.0289 12.2863 13.1537V18.3302C12.2863 18.455 12.2367 18.5747 12.1484 18.6629C12.0602 18.7512 11.9405 18.8008 11.8157 18.8008C11.6909 18.8008 11.5712 18.7512 11.4829 18.6629C11.3947 18.5747 11.3451 18.455 11.3451 18.3302V13.1537C11.3451 13.0289 11.3947 12.9092 11.4829 12.8209C11.5712 12.7327 11.6909 12.6831 11.8157 12.6831Z" fill="#154428"/>
<path fill-rule="evenodd" clip-rule="evenodd" d="M4.84157 9.91585C5.21804 11.0923 5.95216 12.2773 6.87922 12.9624C7.9578 13.7606 8.93098 14.0184 9.71969 13.9667C10.0795 13.9467 10.4315 13.8539 10.7544 13.6939C11.0773 13.5339 11.3644 13.31 11.5983 13.0359C11.9889 12.5775 12.1074 11.8951 11.8985 11.1064C11.6896 10.3196 11.1616 9.4735 10.3456 8.77891C9.52298 8.07773 8.3098 7.44903 7.18604 7.14597C6.6251 6.99538 6.1131 6.93232 5.6971 6.96714C5.28016 7.00291 5.01569 7.13091 4.8651 7.30691C4.70322 7.49703 4.58933 7.82738 4.57804 8.30456C4.56675 8.77326 4.65616 9.33232 4.84157 9.91585ZM3.63686 8.28291C3.65098 7.69467 3.79122 7.11773 4.14886 6.69797C4.5178 6.26503 5.06086 6.07773 5.61804 6.02973C6.17804 5.98267 6.8058 6.0702 7.43074 6.23867C8.67969 6.57467 10.0199 7.2655 10.9564 8.06267C11.8995 8.86644 12.5442 9.87162 12.8077 10.8655C13.0712 11.8575 12.962 12.8871 12.3145 13.6476C11.999 14.0175 11.6118 14.3198 11.1764 14.5362C10.741 14.7526 10.2663 14.8787 9.78086 14.9069C8.72674 14.9756 7.53898 14.6227 6.31922 13.721C5.19263 12.8871 4.36345 11.5121 3.94557 10.2029C3.73569 9.54409 3.62275 8.87962 3.63686 8.28291Z" fill="#154428"/>
<path fill-rule="evenodd" clip-rule="evenodd" d="M18.9141 11.295C18.4539 12.352 17.6897 13.3741 16.7852 13.872C14.6986 15.0202 13.2294 14.1449 12.7212 13.3345C12.5075 12.9929 12.4605 12.3614 12.7306 11.6216C12.9941 10.9016 13.5306 10.1637 14.3372 9.65831C15.1682 9.13878 16.3278 8.77643 17.3546 8.67008C17.8675 8.61831 18.3212 8.63243 18.6685 8.70772C19.028 8.78584 19.1946 8.91196 19.2567 9.01078C19.3311 9.12937 19.3885 9.39855 19.3358 9.84184C19.285 10.2654 19.1419 10.7727 18.9141 11.295ZM20.2694 9.95384C20.3315 9.44184 20.3014 8.90631 20.0548 8.51102C19.7951 8.0969 19.3301 7.8889 18.868 7.78819C18.3927 7.68466 17.8327 7.67525 17.2586 7.73455C16.1122 7.85219 14.8097 8.25219 13.8384 8.86114C12.9239 9.43189 12.2238 10.2889 11.8468 11.2988C11.524 12.1825 11.4948 13.1491 11.9231 13.8334C12.7005 15.0748 14.7212 16.0818 17.2388 14.6964C18.3908 14.0621 19.2699 12.8357 19.7772 11.6705C20.0341 11.0823 20.2064 10.4856 20.2704 9.95384" fill="#154428"/>
<path fill-rule="evenodd" clip-rule="evenodd" d="M11.0919 12.8834C10.4918 12.1332 9.79928 11.4618 9.03074 10.8853L8.35309 10.3771C8.30365 10.34 8.262 10.2936 8.23051 10.2404C8.19903 10.1872 8.17833 10.1283 8.16959 10.0672C8.16085 10.006 8.16424 9.94369 8.17958 9.88383C8.19492 9.82396 8.22189 9.7677 8.25897 9.71826C8.29605 9.66883 8.34251 9.62717 8.39568 9.59569C8.44886 9.5642 8.50772 9.5435 8.56889 9.53476C8.63007 9.52602 8.69237 9.52942 8.75224 9.54475C8.8121 9.56009 8.86836 9.58707 8.9178 9.62415L9.59544 10.1324C10.4265 10.7564 11.1766 11.483 11.826 12.2952C11.8995 12.393 11.932 12.5155 11.9167 12.6368C11.9014 12.7581 11.8395 12.8686 11.744 12.9451C11.6486 13.0215 11.5272 13.0579 11.4055 13.0464C11.2838 13.0348 11.1713 12.9764 11.0919 12.8834ZM13.2039 14.5691C13.8039 13.9686 14.4701 13.4381 15.1898 12.9879L15.9437 12.5173C15.9961 12.4846 16.0415 12.4418 16.0774 12.3915C16.1133 12.3412 16.1389 12.2843 16.1528 12.2241C16.1667 12.1639 16.1686 12.1015 16.1584 12.0406C16.1482 11.9796 16.1261 11.9213 16.0933 11.8689C16.0606 11.8164 16.0178 11.771 15.9675 11.7351C15.9172 11.6992 15.8603 11.6736 15.8001 11.6597C15.7399 11.6458 15.6775 11.6439 15.6166 11.6541C15.5556 11.6643 15.4973 11.6865 15.4449 11.7192L14.6919 12.1898C13.9116 12.6774 13.1892 13.2521 12.5385 13.9027C12.4501 13.991 12.4004 14.1107 12.4004 14.2356C12.4003 14.3605 12.4498 14.4803 12.538 14.5686C12.6263 14.657 12.746 14.7067 12.8709 14.7068C12.9958 14.7069 13.1156 14.6573 13.2039 14.5691Z" fill="#154428"/>
<path fill-rule="evenodd" clip-rule="evenodd" d="M12.1648 22.2846C17.9849 22.2846 22.7034 17.6397 22.7034 11.9105C22.7034 6.18127 17.9849 1.53637 12.1648 1.53637C6.34478 1.53637 1.62624 6.18127 1.62624 11.9105C1.62624 17.6397 6.34478 22.2846 12.1648 22.2846ZM12.1648 23.1867C18.4917 23.1867 23.6198 18.1386 23.6198 11.9105C23.6198 5.68241 18.4917 0.634277 12.1648 0.634277C5.83801 0.634277 0.709839 5.68241 0.709839 11.9105C0.709839 18.1386 5.83801 23.1867 12.1648 23.1867Z" fill="#154428" stroke="#154428" stroke-width="0.666667"/>
</g>
<defs>
<clipPath id="clip0_2747_752">
<rect width="24" height="24" fill="white" transform="translate(0.239258 0.163818)"/>
</clipPath>
</defs>
</svg>
