<svg width="37" height="37" viewBox="0 0 37 37" fill="none" xmlns="http://www.w3.org/2000/svg">
<path d="M9.35681 28.499H8.67444C8.26013 27.3372 7.15979 26.498 5.85778 26.498C4.20349 26.498 2.85681 27.8447 2.85681 29.499C2.85681 31.1533 4.20349 32.5 5.85778 32.5C7.15979 32.5 8.26007 31.6608 8.67438 30.499H9.35681C11.0111 30.499 12.3568 29.1533 12.3568 27.499V23.6299H17.8568V28.6824C16.695 29.0967 15.8558 30.197 15.8558 31.499C15.8558 33.1533 17.2025 34.5 18.8568 34.5C20.5111 34.5 21.8578 33.1533 21.8578 31.499C21.8578 30.197 21.0186 29.0967 19.8568 28.6824V23.6299H25.3568V27.499C25.3568 29.1533 26.7025 30.499 28.3568 30.499H29.0392C29.4536 31.6608 30.5538 32.5 31.8558 32.5C33.5101 32.5 34.8568 31.1533 34.8568 29.499C34.8568 27.8447 33.5101 26.498 31.8558 26.498C30.5538 26.498 29.4535 27.3372 29.0392 28.499H28.3568C27.8051 28.499 27.3568 28.0508 27.3568 27.499V23.6299H28.9066C32.1879 23.6299 34.8568 20.9609 34.8568 17.6802C34.8568 14.7412 32.7074 12.2939 29.8959 11.8223C31.5682 7.34937 28.2422 2.5 23.4174 2.5C21.1029 2.5 18.9594 3.66211 17.684 5.53711C13.4377 3.15393 8.14599 6.3853 8.36267 11.2876C5.2699 11.6294 2.85681 14.2583 2.85681 17.4404C2.85681 20.8535 5.63416 23.6299 9.04724 23.6299H10.3568V27.499C10.3568 28.0508 9.90857 28.499 9.35681 28.499ZM5.85778 30.5C5.30603 30.5 4.85681 30.0508 4.85681 29.499C4.85681 28.9473 5.30603 28.498 5.85778 28.498C6.40955 28.498 6.85876 28.9473 6.85876 29.499C6.85876 30.0508 6.40955 30.5 5.85778 30.5ZM18.8568 32.5C18.3051 32.5 17.8558 32.0508 17.8558 31.499C17.8558 30.9473 18.3051 30.498 18.8568 30.498C19.4086 30.498 19.8578 30.9473 19.8578 31.499C19.8578 32.0508 19.4086 32.5 18.8568 32.5ZM31.8558 28.498C32.4076 28.498 32.8568 28.9473 32.8568 29.499C32.8568 30.0508 32.4076 30.5 31.8558 30.5C31.3041 30.5 30.8549 30.0508 30.8549 29.499C30.8549 28.9473 31.3041 28.498 31.8558 28.498ZM4.85681 17.4404C4.85681 15.1299 6.73669 13.25 9.04724 13.25C9.16248 13.25 9.27673 13.2568 9.38416 13.2715C10.0941 13.3654 10.6726 12.705 10.4808 12.0142C9.8005 9.53983 11.7484 6.74023 14.6371 6.74023C15.6371 6.74023 16.6078 7.09619 17.3705 7.74268C17.8803 8.1745 18.6552 7.99334 18.9281 7.39307C19.725 5.63574 21.4867 4.5 23.4174 4.5C27.3926 4.5 29.6928 8.9989 27.4467 12.2178C26.9378 12.9479 27.5669 13.9358 28.4545 13.7725C28.6029 13.7441 28.7513 13.7402 28.9066 13.7402C31.0844 13.7402 32.8568 15.5078 32.8568 17.6802C32.8568 19.8579 31.0844 21.6299 28.9066 21.6299H9.04724C6.73669 21.6299 4.85681 19.7505 4.85681 17.4404Z" fill="#008A35"/>
</svg>
