<svg width="37" height="37" viewBox="0 0 37 37" fill="none" xmlns="http://www.w3.org/2000/svg">
<g clip-path="url(#clip0_2747_709)">
<mask id="path-1-outside-1_2747_709" maskUnits="userSpaceOnUse" x="0.489624" y="0.132812" width="36" height="36" fill="black">
<rect fill="white" x="0.489624" y="0.132812" width="36" height="36"/>
<path d="M35.7318 18.0078H1.98181C1.70998 18.0078 1.48962 18.2282 1.48962 18.5C1.48962 23.1389 3.29609 27.5002 6.57638 30.7804C9.8566 34.0607 14.2179 35.8672 18.8568 35.8672C23.4957 35.8672 27.857 34.0607 31.1372 30.7804C34.4175 27.5002 36.224 23.1389 36.224 18.5C36.224 18.2282 36.0036 18.0078 35.7318 18.0078ZM19.349 28.1059C21.3008 28.1318 23.2003 28.3118 24.9836 28.6336C24.8112 29.0353 24.6277 29.4229 24.4334 29.7954C23.0365 32.4724 21.2468 34.0419 19.349 34.2738V28.1059ZM18.3646 34.2739C16.4668 34.042 14.6772 32.4724 13.2803 29.7954C13.0859 29.423 12.9024 29.0353 12.73 28.6335C14.5134 28.3118 16.4125 28.1318 18.3646 28.1059V34.2739ZM12.359 27.7016C11.4239 25.1637 10.8997 22.1586 10.8503 18.9922H18.3646V27.1214C16.2837 27.1484 14.2577 27.3465 12.359 27.7016ZM12.4075 30.2508C13.5406 32.4222 14.9396 33.9411 16.4785 34.7099C12.9617 34.1962 9.80436 32.5611 7.38146 30.1803C8.69982 29.6213 10.1691 29.1675 11.7439 28.8283C11.9495 29.3224 12.1708 29.7971 12.4075 30.2508ZM25.3061 30.2508C25.5427 29.7973 25.7641 29.3223 25.9696 28.8285C27.5442 29.1675 29.0136 29.6214 30.3322 30.1803C27.9093 32.5611 24.7519 34.1962 21.2351 34.7099C22.7741 33.9411 24.173 32.4222 25.3061 30.2508ZM25.3545 27.7017C23.4557 27.3466 21.4298 27.1484 19.349 27.1214V18.9922H26.8633C26.8139 22.1586 26.2897 25.1637 25.3545 27.7017ZM9.86588 18.9922C9.91482 22.2138 10.4419 25.2833 11.3843 27.9001C9.66992 28.2786 8.07502 28.7899 6.65654 29.422C4.15932 26.6353 2.6 22.9914 2.48131 18.9922H9.86588ZM31.0571 29.422C29.6383 28.7899 28.0438 28.2788 26.3293 27.9002C27.2718 25.2833 27.7989 22.214 27.8477 18.9922H35.2324C35.1136 22.9914 33.5544 26.6353 31.0571 29.422ZM2.47484 16.5609C3.22719 16.9554 4.35802 17.1476 5.48872 17.1476C6.65773 17.1476 7.82527 16.9415 8.57544 16.5417C9.54434 16.9538 10.8629 17.1451 12.1638 17.1451C13.3168 17.1451 14.4555 16.9948 15.3239 16.7153C16.3322 16.9968 17.5603 17.1495 18.8568 17.1495C20.0954 17.1495 21.3381 17.0087 22.3865 16.7142C23.2555 16.9944 24.3951 17.1451 25.5497 17.1451C26.8505 17.1451 28.1691 16.9538 29.138 16.5417C29.8882 16.9416 31.0556 17.1476 32.2248 17.1476C33.3554 17.1475 34.4865 16.9554 35.2387 16.5609C36.0531 16.1338 36.224 15.5831 36.224 15.1962C36.224 13.0966 34.6057 11.369 32.5512 11.1924C33.557 11.0262 34.3268 10.1508 34.3268 9.09852C34.3268 7.92823 33.3747 6.97613 32.2042 6.97613C31.0338 6.97613 30.0816 7.92823 30.0816 9.09852C30.0816 10.1503 30.8506 11.0254 31.8559 11.1921C31.1249 11.2544 30.4343 11.5123 29.8453 11.941C28.9282 10.5277 27.3373 9.59014 25.5306 9.59014C24.8173 9.59014 24.1092 9.74005 23.4603 10.025C22.3151 8.78323 20.6754 8.00396 18.857 8.00396C17.0385 8.00396 15.3988 8.78324 14.2535 10.025C13.6046 9.73998 12.8966 9.59014 12.1833 9.59014C10.3766 9.59014 8.7856 10.5276 7.8683 11.9409C7.27944 11.5123 6.5889 11.2544 5.85786 11.1921C6.86312 11.0254 7.63219 10.1502 7.63219 9.09852C7.63219 7.92823 6.68002 6.97613 5.5096 6.97613C4.33918 6.97613 3.38694 7.92823 3.38694 9.09852C3.38694 10.1507 4.15672 11.0262 5.16268 11.1924C3.10801 11.369 1.48962 13.0966 1.48962 15.1962C1.48962 15.5831 1.66055 16.1338 2.47484 16.5609ZM31.0659 9.09859C31.0659 8.47112 31.5766 7.96058 32.2042 7.96058C32.8318 7.96058 33.3425 8.47112 33.3425 9.09859C33.3425 9.7262 32.8318 10.2368 32.2042 10.2368C31.5766 10.2368 31.0659 9.7262 31.0659 9.09859ZM32.2042 12.1608C33.878 12.1608 35.2396 13.5224 35.2396 15.1962C35.2396 15.4051 34.9906 15.5795 34.7816 15.689C33.7125 16.2496 31.485 16.3055 30.1514 15.8986C30.5726 15.4822 30.672 15.0471 30.672 14.7315C30.672 14.0593 30.5409 13.4174 30.3052 12.8283C30.8423 12.396 31.5052 12.1608 32.2042 12.1608ZM25.5307 10.5746C27.8228 10.5746 29.6877 12.4394 29.6877 14.7316C29.6877 14.813 29.6877 15.0609 29.2695 15.3568C28.2705 16.0636 25.8919 16.3315 23.9531 16.0586C24.6746 15.6097 25.12 15.0163 25.12 14.2671C25.12 12.9997 24.7413 11.8193 24.0915 10.8325C24.55 10.6637 25.0385 10.5746 25.5307 10.5746ZM18.857 8.98841C21.7677 8.98841 24.1357 11.3564 24.1357 14.267C24.1357 15.3314 21.8169 16.1651 18.8569 16.1651C15.8968 16.1651 13.578 15.3314 13.578 14.267C13.578 11.3564 15.9462 8.98841 18.857 8.98841ZM12.1833 10.5746C12.6754 10.5746 13.1638 10.6637 13.6223 10.8323C12.9724 11.8192 12.5937 12.9996 12.5937 14.267C12.5937 14.7912 12.8184 15.4766 13.7523 16.0597C11.815 16.3307 9.44176 16.0625 8.44416 15.3567C8.02601 15.0608 8.02601 14.813 8.02601 14.7316C8.02601 12.4394 9.89098 10.5746 12.1833 10.5746ZM4.37138 9.09859C4.37138 8.47112 4.88199 7.96058 5.50967 7.96058C6.13728 7.96058 6.64789 8.47112 6.64789 9.09859C6.64789 9.7262 6.13728 10.2368 5.50967 10.2368C4.88199 10.2368 4.37138 9.7262 4.37138 9.09859ZM5.50967 12.1608C6.20865 12.1608 6.87148 12.396 7.40846 12.8282C7.1727 13.4173 7.04164 14.0592 7.04164 14.7315C7.04164 15.0471 7.14099 15.4822 7.56223 15.8986C6.22862 16.3055 4.00112 16.2496 2.93208 15.689C2.72312 15.5795 2.47407 15.405 2.47407 15.1962C2.474 13.5224 3.83581 12.1608 5.50967 12.1608ZM12.1833 9.33624C13.6396 9.33624 14.8244 8.15148 14.8244 6.69516C14.8244 5.23906 13.6396 4.05444 12.1833 4.05444C10.727 4.05444 9.54223 5.23906 9.54223 6.69516C9.54223 8.15148 10.727 9.33624 12.1833 9.33624ZM12.1833 5.03888C13.0968 5.03888 13.84 5.78188 13.84 6.69523C13.84 7.60873 13.0968 8.35194 12.1833 8.35194C11.2698 8.35194 10.5266 7.60873 10.5266 6.69523C10.5266 5.78188 11.2698 5.03888 12.1833 5.03888ZM25.5307 9.33624C26.9869 9.33624 28.1717 8.15148 28.1717 6.69516C28.1717 5.23906 26.9869 4.05444 25.5307 4.05444C24.0744 4.05444 22.8896 5.23906 22.8896 6.69516C22.8895 8.15148 24.0744 9.33624 25.5307 9.33624ZM25.5307 5.03888C26.4442 5.03888 27.1873 5.78188 27.1873 6.69523C27.1873 7.60873 26.4442 8.35194 25.5307 8.35194C24.6172 8.35194 23.874 7.60873 23.874 6.69523C23.8739 5.78188 24.6171 5.03888 25.5307 5.03888ZM18.857 7.4513C20.5992 7.4513 22.0165 6.03395 22.0165 4.29181C22.0165 2.54996 20.5992 1.13281 18.857 1.13281C17.1149 1.13281 15.6975 2.54996 15.6975 4.29188C15.6975 6.03402 17.1149 7.4513 18.857 7.4513ZM18.857 2.11719C20.0564 2.11719 21.0321 3.09277 21.0321 4.29188C21.0321 5.49127 20.0564 6.467 18.857 6.467C17.6576 6.467 16.6819 5.49127 16.6819 4.29188C16.6819 3.09277 17.6576 2.11719 18.857 2.11719Z"/>
</mask>
<path d="M35.7318 18.0078H1.98181C1.70998 18.0078 1.48962 18.2282 1.48962 18.5C1.48962 23.1389 3.29609 27.5002 6.57638 30.7804C9.8566 34.0607 14.2179 35.8672 18.8568 35.8672C23.4957 35.8672 27.857 34.0607 31.1372 30.7804C34.4175 27.5002 36.224 23.1389 36.224 18.5C36.224 18.2282 36.0036 18.0078 35.7318 18.0078ZM19.349 28.1059C21.3008 28.1318 23.2003 28.3118 24.9836 28.6336C24.8112 29.0353 24.6277 29.4229 24.4334 29.7954C23.0365 32.4724 21.2468 34.0419 19.349 34.2738V28.1059ZM18.3646 34.2739C16.4668 34.042 14.6772 32.4724 13.2803 29.7954C13.0859 29.423 12.9024 29.0353 12.73 28.6335C14.5134 28.3118 16.4125 28.1318 18.3646 28.1059V34.2739ZM12.359 27.7016C11.4239 25.1637 10.8997 22.1586 10.8503 18.9922H18.3646V27.1214C16.2837 27.1484 14.2577 27.3465 12.359 27.7016ZM12.4075 30.2508C13.5406 32.4222 14.9396 33.9411 16.4785 34.7099C12.9617 34.1962 9.80436 32.5611 7.38146 30.1803C8.69982 29.6213 10.1691 29.1675 11.7439 28.8283C11.9495 29.3224 12.1708 29.7971 12.4075 30.2508ZM25.3061 30.2508C25.5427 29.7973 25.7641 29.3223 25.9696 28.8285C27.5442 29.1675 29.0136 29.6214 30.3322 30.1803C27.9093 32.5611 24.7519 34.1962 21.2351 34.7099C22.7741 33.9411 24.173 32.4222 25.3061 30.2508ZM25.3545 27.7017C23.4557 27.3466 21.4298 27.1484 19.349 27.1214V18.9922H26.8633C26.8139 22.1586 26.2897 25.1637 25.3545 27.7017ZM9.86588 18.9922C9.91482 22.2138 10.4419 25.2833 11.3843 27.9001C9.66992 28.2786 8.07502 28.7899 6.65654 29.422C4.15932 26.6353 2.6 22.9914 2.48131 18.9922H9.86588ZM31.0571 29.422C29.6383 28.7899 28.0438 28.2788 26.3293 27.9002C27.2718 25.2833 27.7989 22.214 27.8477 18.9922H35.2324C35.1136 22.9914 33.5544 26.6353 31.0571 29.422ZM2.47484 16.5609C3.22719 16.9554 4.35802 17.1476 5.48872 17.1476C6.65773 17.1476 7.82527 16.9415 8.57544 16.5417C9.54434 16.9538 10.8629 17.1451 12.1638 17.1451C13.3168 17.1451 14.4555 16.9948 15.3239 16.7153C16.3322 16.9968 17.5603 17.1495 18.8568 17.1495C20.0954 17.1495 21.3381 17.0087 22.3865 16.7142C23.2555 16.9944 24.3951 17.1451 25.5497 17.1451C26.8505 17.1451 28.1691 16.9538 29.138 16.5417C29.8882 16.9416 31.0556 17.1476 32.2248 17.1476C33.3554 17.1475 34.4865 16.9554 35.2387 16.5609C36.0531 16.1338 36.224 15.5831 36.224 15.1962C36.224 13.0966 34.6057 11.369 32.5512 11.1924C33.557 11.0262 34.3268 10.1508 34.3268 9.09852C34.3268 7.92823 33.3747 6.97613 32.2042 6.97613C31.0338 6.97613 30.0816 7.92823 30.0816 9.09852C30.0816 10.1503 30.8506 11.0254 31.8559 11.1921C31.1249 11.2544 30.4343 11.5123 29.8453 11.941C28.9282 10.5277 27.3373 9.59014 25.5306 9.59014C24.8173 9.59014 24.1092 9.74005 23.4603 10.025C22.3151 8.78323 20.6754 8.00396 18.857 8.00396C17.0385 8.00396 15.3988 8.78324 14.2535 10.025C13.6046 9.73998 12.8966 9.59014 12.1833 9.59014C10.3766 9.59014 8.7856 10.5276 7.8683 11.9409C7.27944 11.5123 6.5889 11.2544 5.85786 11.1921C6.86312 11.0254 7.63219 10.1502 7.63219 9.09852C7.63219 7.92823 6.68002 6.97613 5.5096 6.97613C4.33918 6.97613 3.38694 7.92823 3.38694 9.09852C3.38694 10.1507 4.15672 11.0262 5.16268 11.1924C3.10801 11.369 1.48962 13.0966 1.48962 15.1962C1.48962 15.5831 1.66055 16.1338 2.47484 16.5609ZM31.0659 9.09859C31.0659 8.47112 31.5766 7.96058 32.2042 7.96058C32.8318 7.96058 33.3425 8.47112 33.3425 9.09859C33.3425 9.7262 32.8318 10.2368 32.2042 10.2368C31.5766 10.2368 31.0659 9.7262 31.0659 9.09859ZM32.2042 12.1608C33.878 12.1608 35.2396 13.5224 35.2396 15.1962C35.2396 15.4051 34.9906 15.5795 34.7816 15.689C33.7125 16.2496 31.485 16.3055 30.1514 15.8986C30.5726 15.4822 30.672 15.0471 30.672 14.7315C30.672 14.0593 30.5409 13.4174 30.3052 12.8283C30.8423 12.396 31.5052 12.1608 32.2042 12.1608ZM25.5307 10.5746C27.8228 10.5746 29.6877 12.4394 29.6877 14.7316C29.6877 14.813 29.6877 15.0609 29.2695 15.3568C28.2705 16.0636 25.8919 16.3315 23.9531 16.0586C24.6746 15.6097 25.12 15.0163 25.12 14.2671C25.12 12.9997 24.7413 11.8193 24.0915 10.8325C24.55 10.6637 25.0385 10.5746 25.5307 10.5746ZM18.857 8.98841C21.7677 8.98841 24.1357 11.3564 24.1357 14.267C24.1357 15.3314 21.8169 16.1651 18.8569 16.1651C15.8968 16.1651 13.578 15.3314 13.578 14.267C13.578 11.3564 15.9462 8.98841 18.857 8.98841ZM12.1833 10.5746C12.6754 10.5746 13.1638 10.6637 13.6223 10.8323C12.9724 11.8192 12.5937 12.9996 12.5937 14.267C12.5937 14.7912 12.8184 15.4766 13.7523 16.0597C11.815 16.3307 9.44176 16.0625 8.44416 15.3567C8.02601 15.0608 8.02601 14.813 8.02601 14.7316C8.02601 12.4394 9.89098 10.5746 12.1833 10.5746ZM4.37138 9.09859C4.37138 8.47112 4.88199 7.96058 5.50967 7.96058C6.13728 7.96058 6.64789 8.47112 6.64789 9.09859C6.64789 9.7262 6.13728 10.2368 5.50967 10.2368C4.88199 10.2368 4.37138 9.7262 4.37138 9.09859ZM5.50967 12.1608C6.20865 12.1608 6.87148 12.396 7.40846 12.8282C7.1727 13.4173 7.04164 14.0592 7.04164 14.7315C7.04164 15.0471 7.14099 15.4822 7.56223 15.8986C6.22862 16.3055 4.00112 16.2496 2.93208 15.689C2.72312 15.5795 2.47407 15.405 2.47407 15.1962C2.474 13.5224 3.83581 12.1608 5.50967 12.1608ZM12.1833 9.33624C13.6396 9.33624 14.8244 8.15148 14.8244 6.69516C14.8244 5.23906 13.6396 4.05444 12.1833 4.05444C10.727 4.05444 9.54223 5.23906 9.54223 6.69516C9.54223 8.15148 10.727 9.33624 12.1833 9.33624ZM12.1833 5.03888C13.0968 5.03888 13.84 5.78188 13.84 6.69523C13.84 7.60873 13.0968 8.35194 12.1833 8.35194C11.2698 8.35194 10.5266 7.60873 10.5266 6.69523C10.5266 5.78188 11.2698 5.03888 12.1833 5.03888ZM25.5307 9.33624C26.9869 9.33624 28.1717 8.15148 28.1717 6.69516C28.1717 5.23906 26.9869 4.05444 25.5307 4.05444C24.0744 4.05444 22.8896 5.23906 22.8896 6.69516C22.8895 8.15148 24.0744 9.33624 25.5307 9.33624ZM25.5307 5.03888C26.4442 5.03888 27.1873 5.78188 27.1873 6.69523C27.1873 7.60873 26.4442 8.35194 25.5307 8.35194C24.6172 8.35194 23.874 7.60873 23.874 6.69523C23.8739 5.78188 24.6171 5.03888 25.5307 5.03888ZM18.857 7.4513C20.5992 7.4513 22.0165 6.03395 22.0165 4.29181C22.0165 2.54996 20.5992 1.13281 18.857 1.13281C17.1149 1.13281 15.6975 2.54996 15.6975 4.29188C15.6975 6.03402 17.1149 7.4513 18.857 7.4513ZM18.857 2.11719C20.0564 2.11719 21.0321 3.09277 21.0321 4.29188C21.0321 5.49127 20.0564 6.467 18.857 6.467C17.6576 6.467 16.6819 5.49127 16.6819 4.29188C16.6819 3.09277 17.6576 2.11719 18.857 2.11719Z" fill="#008A35"/>
<path d="M35.7318 18.0078H1.98181C1.70998 18.0078 1.48962 18.2282 1.48962 18.5C1.48962 23.1389 3.29609 27.5002 6.57638 30.7804C9.8566 34.0607 14.2179 35.8672 18.8568 35.8672C23.4957 35.8672 27.857 34.0607 31.1372 30.7804C34.4175 27.5002 36.224 23.1389 36.224 18.5C36.224 18.2282 36.0036 18.0078 35.7318 18.0078ZM19.349 28.1059C21.3008 28.1318 23.2003 28.3118 24.9836 28.6336C24.8112 29.0353 24.6277 29.4229 24.4334 29.7954C23.0365 32.4724 21.2468 34.0419 19.349 34.2738V28.1059ZM18.3646 34.2739C16.4668 34.042 14.6772 32.4724 13.2803 29.7954C13.0859 29.423 12.9024 29.0353 12.73 28.6335C14.5134 28.3118 16.4125 28.1318 18.3646 28.1059V34.2739ZM12.359 27.7016C11.4239 25.1637 10.8997 22.1586 10.8503 18.9922H18.3646V27.1214C16.2837 27.1484 14.2577 27.3465 12.359 27.7016ZM12.4075 30.2508C13.5406 32.4222 14.9396 33.9411 16.4785 34.7099C12.9617 34.1962 9.80436 32.5611 7.38146 30.1803C8.69982 29.6213 10.1691 29.1675 11.7439 28.8283C11.9495 29.3224 12.1708 29.7971 12.4075 30.2508ZM25.3061 30.2508C25.5427 29.7973 25.7641 29.3223 25.9696 28.8285C27.5442 29.1675 29.0136 29.6214 30.3322 30.1803C27.9093 32.5611 24.7519 34.1962 21.2351 34.7099C22.7741 33.9411 24.173 32.4222 25.3061 30.2508ZM25.3545 27.7017C23.4557 27.3466 21.4298 27.1484 19.349 27.1214V18.9922H26.8633C26.8139 22.1586 26.2897 25.1637 25.3545 27.7017ZM9.86588 18.9922C9.91482 22.2138 10.4419 25.2833 11.3843 27.9001C9.66992 28.2786 8.07502 28.7899 6.65654 29.422C4.15932 26.6353 2.6 22.9914 2.48131 18.9922H9.86588ZM31.0571 29.422C29.6383 28.7899 28.0438 28.2788 26.3293 27.9002C27.2718 25.2833 27.7989 22.214 27.8477 18.9922H35.2324C35.1136 22.9914 33.5544 26.6353 31.0571 29.422ZM2.47484 16.5609C3.22719 16.9554 4.35802 17.1476 5.48872 17.1476C6.65773 17.1476 7.82527 16.9415 8.57544 16.5417C9.54434 16.9538 10.8629 17.1451 12.1638 17.1451C13.3168 17.1451 14.4555 16.9948 15.3239 16.7153C16.3322 16.9968 17.5603 17.1495 18.8568 17.1495C20.0954 17.1495 21.3381 17.0087 22.3865 16.7142C23.2555 16.9944 24.3951 17.1451 25.5497 17.1451C26.8505 17.1451 28.1691 16.9538 29.138 16.5417C29.8882 16.9416 31.0556 17.1476 32.2248 17.1476C33.3554 17.1475 34.4865 16.9554 35.2387 16.5609C36.0531 16.1338 36.224 15.5831 36.224 15.1962C36.224 13.0966 34.6057 11.369 32.5512 11.1924C33.557 11.0262 34.3268 10.1508 34.3268 9.09852C34.3268 7.92823 33.3747 6.97613 32.2042 6.97613C31.0338 6.97613 30.0816 7.92823 30.0816 9.09852C30.0816 10.1503 30.8506 11.0254 31.8559 11.1921C31.1249 11.2544 30.4343 11.5123 29.8453 11.941C28.9282 10.5277 27.3373 9.59014 25.5306 9.59014C24.8173 9.59014 24.1092 9.74005 23.4603 10.025C22.3151 8.78323 20.6754 8.00396 18.857 8.00396C17.0385 8.00396 15.3988 8.78324 14.2535 10.025C13.6046 9.73998 12.8966 9.59014 12.1833 9.59014C10.3766 9.59014 8.7856 10.5276 7.8683 11.9409C7.27944 11.5123 6.5889 11.2544 5.85786 11.1921C6.86312 11.0254 7.63219 10.1502 7.63219 9.09852C7.63219 7.92823 6.68002 6.97613 5.5096 6.97613C4.33918 6.97613 3.38694 7.92823 3.38694 9.09852C3.38694 10.1507 4.15672 11.0262 5.16268 11.1924C3.10801 11.369 1.48962 13.0966 1.48962 15.1962C1.48962 15.5831 1.66055 16.1338 2.47484 16.5609ZM31.0659 9.09859C31.0659 8.47112 31.5766 7.96058 32.2042 7.96058C32.8318 7.96058 33.3425 8.47112 33.3425 9.09859C33.3425 9.7262 32.8318 10.2368 32.2042 10.2368C31.5766 10.2368 31.0659 9.7262 31.0659 9.09859ZM32.2042 12.1608C33.878 12.1608 35.2396 13.5224 35.2396 15.1962C35.2396 15.4051 34.9906 15.5795 34.7816 15.689C33.7125 16.2496 31.485 16.3055 30.1514 15.8986C30.5726 15.4822 30.672 15.0471 30.672 14.7315C30.672 14.0593 30.5409 13.4174 30.3052 12.8283C30.8423 12.396 31.5052 12.1608 32.2042 12.1608ZM25.5307 10.5746C27.8228 10.5746 29.6877 12.4394 29.6877 14.7316C29.6877 14.813 29.6877 15.0609 29.2695 15.3568C28.2705 16.0636 25.8919 16.3315 23.9531 16.0586C24.6746 15.6097 25.12 15.0163 25.12 14.2671C25.12 12.9997 24.7413 11.8193 24.0915 10.8325C24.55 10.6637 25.0385 10.5746 25.5307 10.5746ZM18.857 8.98841C21.7677 8.98841 24.1357 11.3564 24.1357 14.267C24.1357 15.3314 21.8169 16.1651 18.8569 16.1651C15.8968 16.1651 13.578 15.3314 13.578 14.267C13.578 11.3564 15.9462 8.98841 18.857 8.98841ZM12.1833 10.5746C12.6754 10.5746 13.1638 10.6637 13.6223 10.8323C12.9724 11.8192 12.5937 12.9996 12.5937 14.267C12.5937 14.7912 12.8184 15.4766 13.7523 16.0597C11.815 16.3307 9.44176 16.0625 8.44416 15.3567C8.02601 15.0608 8.02601 14.813 8.02601 14.7316C8.02601 12.4394 9.89098 10.5746 12.1833 10.5746ZM4.37138 9.09859C4.37138 8.47112 4.88199 7.96058 5.50967 7.96058C6.13728 7.96058 6.64789 8.47112 6.64789 9.09859C6.64789 9.7262 6.13728 10.2368 5.50967 10.2368C4.88199 10.2368 4.37138 9.7262 4.37138 9.09859ZM5.50967 12.1608C6.20865 12.1608 6.87148 12.396 7.40846 12.8282C7.1727 13.4173 7.04164 14.0592 7.04164 14.7315C7.04164 15.0471 7.14099 15.4822 7.56223 15.8986C6.22862 16.3055 4.00112 16.2496 2.93208 15.689C2.72312 15.5795 2.47407 15.405 2.47407 15.1962C2.474 13.5224 3.83581 12.1608 5.50967 12.1608ZM12.1833 9.33624C13.6396 9.33624 14.8244 8.15148 14.8244 6.69516C14.8244 5.23906 13.6396 4.05444 12.1833 4.05444C10.727 4.05444 9.54223 5.23906 9.54223 6.69516C9.54223 8.15148 10.727 9.33624 12.1833 9.33624ZM12.1833 5.03888C13.0968 5.03888 13.84 5.78188 13.84 6.69523C13.84 7.60873 13.0968 8.35194 12.1833 8.35194C11.2698 8.35194 10.5266 7.60873 10.5266 6.69523C10.5266 5.78188 11.2698 5.03888 12.1833 5.03888ZM25.5307 9.33624C26.9869 9.33624 28.1717 8.15148 28.1717 6.69516C28.1717 5.23906 26.9869 4.05444 25.5307 4.05444C24.0744 4.05444 22.8896 5.23906 22.8896 6.69516C22.8895 8.15148 24.0744 9.33624 25.5307 9.33624ZM25.5307 5.03888C26.4442 5.03888 27.1873 5.78188 27.1873 6.69523C27.1873 7.60873 26.4442 8.35194 25.5307 8.35194C24.6172 8.35194 23.874 7.60873 23.874 6.69523C23.8739 5.78188 24.6171 5.03888 25.5307 5.03888ZM18.857 7.4513C20.5992 7.4513 22.0165 6.03395 22.0165 4.29181C22.0165 2.54996 20.5992 1.13281 18.857 1.13281C17.1149 1.13281 15.6975 2.54996 15.6975 4.29188C15.6975 6.03402 17.1149 7.4513 18.857 7.4513ZM18.857 2.11719C20.0564 2.11719 21.0321 3.09277 21.0321 4.29188C21.0321 5.49127 20.0564 6.467 18.857 6.467C17.6576 6.467 16.6819 5.49127 16.6819 4.29188C16.6819 3.09277 17.6576 2.11719 18.857 2.11719Z" stroke="#008A35" stroke-width="0.4" mask="url(#path-1-outside-1_2747_709)"/>
</g>
<defs>
<clipPath id="clip0_2747_709">
<rect width="36" height="36" fill="white" transform="translate(0.856812 0.5)"/>
</clipPath>
</defs>
</svg>
