<svg width="43" height="49" viewBox="0 0 43 49" fill="none" xmlns="http://www.w3.org/2000/svg">
<path d="M11.3914 12.3084C10.7391 12.1449 10.1435 11.8074 9.66796 11.3319C9.19245 10.8565 8.85489 10.2608 8.6913 9.60858L8.63442 9.38171L8.5778 9.60858C8.41412 10.2608 8.07654 10.8564 7.60103 11.3318C7.12553 11.8073 6.52993 12.1448 5.87771 12.3084L5.65057 12.3656L5.87771 12.4224C6.52995 12.586 7.12557 12.9235 7.60108 13.399C8.07659 13.8745 8.41416 14.4701 8.5778 15.1223L8.63442 15.3492L8.6913 15.1223C8.85487 14.47 9.19241 13.8744 9.66793 13.3989C10.1435 12.9234 10.7391 12.5859 11.3914 12.4224L11.6185 12.3656L11.3914 12.3084ZM35.9415 13.6568C35.4505 13.5339 35.0021 13.28 34.6441 12.9221C34.2862 12.5642 34.0321 12.1158 33.9092 11.6248L33.8666 11.4541L33.8234 11.6248C33.7005 12.1158 33.4465 12.5642 33.0886 12.9221C32.7307 13.28 32.2823 13.5339 31.7913 13.6568L31.621 13.6997L31.7913 13.7422C32.2823 13.8651 32.7308 14.1191 33.0887 14.4771C33.4466 14.835 33.7006 15.2835 33.8234 15.7746L33.8666 15.9448L33.9092 15.7746C34.0321 15.2835 34.2861 14.835 34.644 14.4771C35.002 14.1191 35.4505 13.8651 35.9415 13.7422L36.1118 13.6997L35.9415 13.6568ZM27.6168 5.56758C26.8412 5.37317 26.133 4.97189 25.5676 4.40653C25.0022 3.84117 24.6008 3.13293 24.4064 2.35737L24.3393 2.08777L24.271 2.35737C24.0768 3.13293 23.6757 3.8412 23.1104 4.40659C22.5451 4.97197 21.8369 5.37325 21.0614 5.56758L20.7922 5.63526L21.0614 5.70283C21.837 5.89696 22.5453 6.29816 23.1106 6.86355C23.6759 7.42894 24.077 8.13728 24.271 8.91291L24.3393 9.18237L24.4064 8.91291C24.6007 8.13728 25.0019 7.42897 25.5674 6.86361C26.1328 6.29824 26.8412 5.89704 27.6168 5.70283L27.8867 5.63526L27.6168 5.56758Z" fill="#12DC60"/>
<path d="M10.6845 20.3002C10.6845 19.5615 10.7627 18.8412 10.9093 18.146H8.59022C6.82902 18.146 5.39739 19.5524 5.35492 21.3025C5.37422 21.4422 5.55979 22.4929 6.83816 23.1609C7.69083 23.6068 9.07318 23.6017 9.72613 23.6017H11.2229C10.866 22.5375 10.6842 21.4226 10.6845 20.3002ZM33.0693 18.1461H31.2547C31.4041 18.8545 31.4794 19.5764 31.4794 20.3003C31.4796 21.4228 31.2978 22.5378 30.941 23.602H34.4482C35.113 23.6012 35.7618 23.806 36.3057 24.1885V21.3825C36.3057 19.5953 34.8569 18.1461 33.0693 18.1461Z" fill="#245336"/>
<g clip-path="url(#clip0_2764_198)">
<path d="M31.2445 20.0407C31.2445 25.4951 26.6997 29.9272 21.0804 29.9272C15.461 29.9272 10.9162 25.4951 10.9162 20.0407C10.9162 14.5864 15.461 10.1543 21.0804 10.1543C26.6997 10.1543 31.2445 14.5864 31.2445 20.0407Z" fill="#121D12" stroke="#12DC60" stroke-width="0.45455"/>
<g filter="url(#filter0_ii_2764_198)">
<path d="M30.2612 20.0685C30.2612 25.0363 26.1026 29.0635 20.9726 29.0635C15.8426 29.0635 11.684 25.0363 11.684 20.0685C11.684 15.1007 15.8426 11.0735 20.9726 11.0735C26.1026 11.0735 30.2612 15.1007 30.2612 20.0685Z" fill="url(#paint0_radial_2764_198)"/>
</g>
<path d="M30.1476 20.0685C30.1476 24.9701 26.0433 28.9498 20.9726 28.9498C15.9019 28.9498 11.7976 24.9701 11.7976 20.0685C11.7976 15.1669 15.9019 11.1871 20.9726 11.1871C26.0433 11.1871 30.1476 15.1669 30.1476 20.0685Z" stroke="#12DC60" stroke-width="0.227275"/>
<path d="M21.0248 16.0762L18.9273 17.5634L21.035 12.7687L21.0248 16.0762Z" fill="#12DC60" stroke="black" stroke-width="0.0442188"/>
<path d="M21.0691 16.076L21.0793 12.7663L23.1734 17.5636L21.0691 16.076Z" fill="#12DC60" stroke="black" stroke-width="0.0442188"/>
<path d="M18.9027 17.6347L21.0244 16.1297V22.4189L18.9027 17.6347Z" fill="#12DC60" stroke="black" stroke-width="0.0442188"/>
<path d="M23.1979 17.6355L21.0686 22.4197V16.1296L23.1979 17.6355Z" fill="#12DC60" stroke="black" stroke-width="0.0442188"/>
<path d="M25.6832 19.4589L23.7157 18.8262L27.8311 17.7452L25.6832 19.4589Z" fill="#12DC60" stroke="black" stroke-width="0.0442188"/>
<path d="M25.7125 19.4909L27.8591 17.7796L25.8443 21.6192L25.7125 19.4909Z" fill="#12DC60" stroke="black" stroke-width="0.0442188"/>
<path d="M21.6111 22.6737L23.6477 18.8507L25.6433 19.4901L21.6111 22.6737Z" fill="#12DC60" stroke="black" stroke-width="0.0442188"/>
<path d="M25.8049 21.6807L21.6315 22.7123L25.6702 19.5241L25.8049 21.6807Z" fill="#12DC60" stroke="black" stroke-width="0.0442188"/>
<path d="M16.4522 19.4595L14.3297 17.7817L18.4788 18.87L16.4522 19.4595Z" fill="#12DC60" stroke="black" stroke-width="0.0442188"/>
<path d="M16.4242 19.494L16.2411 21.5984L14.3003 17.816L16.4242 19.494Z" fill="#12DC60" stroke="black" stroke-width="0.0442188"/>
<path d="M16.2686 21.6447L16.4541 19.5169L20.4317 22.725L16.2686 21.6447Z" fill="#12DC60" stroke="black" stroke-width="0.0442188"/>
<path d="M18.5472 18.8958L16.4949 19.4929L20.4597 22.6908L18.5472 18.8958Z" fill="#12DC60" stroke="black" stroke-width="0.0442188"/>
<path d="M16.3709 24.2275L14.3405 24.6875L16.9808 22.6907L16.3709 24.2275Z" fill="#12DC60" stroke="black" stroke-width="0.0442188"/>
<path d="M16.4244 24.212L17.0445 22.6445L20.3709 23.3464L16.4244 24.212Z" fill="#12DC60" stroke="black" stroke-width="0.0442188"/>
<path d="M16.4352 24.2549L17.683 25.3853L20.38 23.3895L16.4352 24.2549Z" fill="#12DC60" stroke="black" stroke-width="0.0442188"/>
<path d="M21.7578 23.3535L25.0549 22.6759L25.6887 24.2118L21.7578 23.3535Z" fill="#12DC60" stroke="black" stroke-width="0.0442188"/>
<path d="M21.7492 23.3972L24.4688 25.3788L25.6794 24.2549L21.7492 23.3972Z" fill="#12DC60" stroke="black" stroke-width="0.0442188"/>
<path d="M25.7413 24.2234L25.1195 22.717L27.7639 24.7159L25.7413 24.2234Z" fill="#12DC60" stroke="black" stroke-width="0.0442188"/>
<path d="M21.0473 23.361L21.0473 23.3613L20.4564 23.9841L21.0473 23.361Z" fill="#12DC60"/>
<path d="M21.0473 23.3605L21.6511 23.9838L21.0473 23.3613L21.0473 23.3605Z" fill="#12DC60"/>
<path d="M21.0473 23.361L21.0452 27.4197L20.4564 23.984L21.0473 23.361Z" fill="#12DC60"/>
<path d="M21.0473 23.361L21.6512 23.984L21.0452 27.4198L21.0473 23.361Z" fill="#12DC60"/>
</g>
<path d="M34.4483 23.6019H9.72594C9.07286 23.6019 7.69064 23.6071 6.83796 23.1612C5.46642 22.4444 5.35266 21.2869 5.35266 21.2869V42.6263C5.35266 44.4139 6.80206 45.863 8.5899 45.863H34.4481C36.2361 45.863 37.6846 44.4139 37.6846 42.6263V26.8379C37.6847 25.0503 36.2361 23.6019 34.4483 23.6019Z" fill="#00AF52"/>
<path d="M34.4483 23.6019H9.72594C9.07286 23.6019 7.69064 23.6071 6.83796 23.1612C5.46642 22.4444 5.35266 21.2869 5.35266 21.2869V42.6263C5.35266 44.4139 6.80206 45.863 8.5899 45.863H34.4481C36.2361 45.863 37.6846 44.4139 37.6846 42.6263V26.8379C37.6847 25.0503 36.2361 23.6019 34.4483 23.6019Z" fill="#12DC60"/>
<path d="M28.9404 31.2499C28.1396 31.2499 27.49 31.8992 27.49 32.7003V36.6915C27.49 37.4928 28.1397 38.1421 28.9404 38.1421H37.6848V31.2499H28.9404Z" fill="#008A35"/>
<path d="M30.3022 33.2567C29.5073 33.2567 28.8629 33.9009 28.8629 34.6961C28.8629 35.491 29.5073 36.1357 30.3022 36.1357C31.0971 36.1357 31.7413 35.491 31.7413 34.6961C31.7412 33.9009 31.0971 33.2567 30.3022 33.2567Z" fill="#154428"/>
<defs>
<filter id="filter0_ii_2764_198" x="11.684" y="10.7192" width="18.5773" height="18.5539" filterUnits="userSpaceOnUse" color-interpolation-filters="sRGB">
<feFlood flood-opacity="0" result="BackgroundImageFix"/>
<feBlend mode="normal" in="SourceGraphic" in2="BackgroundImageFix" result="shape"/>
<feColorMatrix in="SourceAlpha" type="matrix" values="0 0 0 0 0 0 0 0 0 0 0 0 0 0 0 0 0 0 127 0" result="hardAlpha"/>
<feOffset dy="-0.354263"/>
<feGaussianBlur stdDeviation="0.247984"/>
<feComposite in2="hardAlpha" operator="arithmetic" k2="-1" k3="1"/>
<feColorMatrix type="matrix" values="0 0 0 0 0 0 0 0 0 0 0 0 0 0 0 0 0 0 0.25 0"/>
<feBlend mode="normal" in2="shape" result="effect1_innerShadow_2764_198"/>
<feColorMatrix in="SourceAlpha" type="matrix" values="0 0 0 0 0 0 0 0 0 0 0 0 0 0 0 0 0 0 127 0" result="hardAlpha"/>
<feOffset dy="0.383784"/>
<feGaussianBlur stdDeviation="0.104803"/>
<feComposite in2="hardAlpha" operator="arithmetic" k2="-1" k3="1"/>
<feColorMatrix type="matrix" values="0 0 0 0 0 0 0 0 0 0 0 0 0 0 0 0 0 0 0.25 0"/>
<feBlend mode="normal" in2="effect1_innerShadow_2764_198" result="effect2_innerShadow_2764_198"/>
</filter>
<radialGradient id="paint0_radial_2764_198" cx="0" cy="0" r="1" gradientUnits="userSpaceOnUse" gradientTransform="translate(20.9726 20.0685) rotate(90) scale(8.99499 9.28864)">
<stop stop-color="#0C120C"/>
<stop offset="1" stop-color="#153A15"/>
</radialGradient>
<clipPath id="clip0_2764_198">
<rect width="20.7828" height="13.5764" fill="white" transform="translate(10.7094 9.9386)"/>
</clipPath>
</defs>
</svg>
