<svg width="33" height="33" viewBox="0 0 33 33" fill="none" xmlns="http://www.w3.org/2000/svg">
<path d="M7.78125 4.68945H25.2188C25.3854 4.68945 25.5573 4.70508 25.7344 4.73633C25.9115 4.76758 26.0729 4.82487 26.2188 4.9082C26.3854 4.9707 26.5417 5.04883 26.6875 5.14258C26.8333 5.23633 26.9688 5.3457 27.0938 5.4707C27.2188 5.5957 27.3281 5.73112 27.4219 5.87695C27.5156 6.02279 27.6042 6.17904 27.6875 6.3457C27.75 6.51237 27.7969 6.67904 27.8281 6.8457C27.8594 7.01237 27.875 7.18945 27.875 7.37695V30.6895L25.0938 28.2207L23.5 26.752L21.8438 25.2207L22.5312 27.627H7.78125C7.61458 27.627 7.44271 27.6061 7.26562 27.5645C7.08854 27.5228 6.92708 27.4707 6.78125 27.4082C6.61458 27.3457 6.45833 27.2676 6.3125 27.1738C6.16667 27.0801 6.03125 26.9707 5.90625 26.8457C5.78125 26.7207 5.67188 26.5853 5.57812 26.4395C5.48438 26.2936 5.39583 26.1374 5.3125 25.9707C5.25 25.804 5.20312 25.6374 5.17188 25.4707C5.14062 25.304 5.125 25.127 5.125 24.9395V7.37695C5.125 7.18945 5.14062 7.01237 5.17188 6.8457C5.20312 6.67904 5.25 6.51237 5.3125 6.3457C5.39583 6.17904 5.48438 6.02279 5.57812 5.87695C5.67188 5.73112 5.78125 5.5957 5.90625 5.4707C6.03125 5.3457 6.16667 5.23633 6.3125 5.14258C6.45833 5.04883 6.61458 4.9707 6.78125 4.9082C6.92708 4.82487 7.08854 4.76758 7.26562 4.73633C7.44271 4.70508 7.61458 4.68945 7.78125 4.68945ZM19.3438 20.627C19.5312 20.8561 19.7188 21.0853 19.9062 21.3145C20.0938 21.5436 20.1875 21.6582 20.1875 21.6582C20.5833 21.679 20.9688 21.6478 21.3438 21.5645C21.7188 21.4811 22.0833 21.3457 22.4375 21.1582C22.7708 20.9915 23.0885 20.7832 23.3906 20.5332C23.6927 20.2832 23.9479 20.002 24.1562 19.6895C24.1354 18.377 23.9688 17.0801 23.6562 15.7988C23.3438 14.5176 22.8958 13.2936 22.3125 12.127C21.7708 11.7103 21.1927 11.3822 20.5781 11.1426C19.9635 10.903 19.3229 10.7728 18.6562 10.752L18.4688 10.9707C19.0521 11.1165 19.6198 11.3301 20.1719 11.6113C20.724 11.8926 21.2292 12.2207 21.6875 12.5957C21.0833 12.2624 20.4531 11.9915 19.7969 11.7832C19.1406 11.5749 18.4688 11.429 17.7812 11.3457C17.3438 11.304 16.9062 11.2884 16.4688 11.2988C16.0312 11.3092 15.5938 11.3353 15.1562 11.377C15.1146 11.377 15.0781 11.3822 15.0469 11.3926C15.0156 11.403 14.9792 11.4082 14.9375 11.4082C14.4375 11.4707 13.9375 11.5697 13.4375 11.7051C12.9375 11.8405 12.4583 12.0124 12 12.2207C11.75 12.3457 11.5573 12.4395 11.4219 12.502C11.2865 12.5645 11.2188 12.5957 11.2188 12.5957C11.7188 12.1999 12.2552 11.8561 12.8281 11.5645C13.401 11.2728 14.0104 11.054 14.6562 10.9082L14.5 10.752C13.8333 10.7728 13.1927 10.903 12.5781 11.1426C11.9635 11.3822 11.3854 11.7103 10.8438 12.127C10.2604 13.2936 9.8125 14.5176 9.5 15.7988C9.1875 17.0801 9.02083 18.377 9 19.6895C9.20833 20.002 9.46354 20.2832 9.76562 20.5332C10.0677 20.7832 10.3854 21.002 10.7188 21.1895C11.0729 21.3561 11.4375 21.4811 11.8125 21.5645C12.1875 21.6478 12.5625 21.679 12.9375 21.6582C12.9375 21.6582 13.0365 21.5436 13.2344 21.3145C13.4323 21.0853 13.625 20.8457 13.8125 20.5957C13.3542 20.4707 12.9323 20.278 12.5469 20.0176C12.1615 19.7572 11.8333 19.4395 11.5625 19.0645C11.5625 19.0645 11.5938 19.0853 11.6562 19.127C11.7188 19.1686 11.8021 19.2207 11.9062 19.2832C11.9271 19.2832 11.9375 19.2884 11.9375 19.2988C11.9375 19.3092 11.9479 19.3145 11.9688 19.3145C11.9688 19.3145 11.974 19.3197 11.9844 19.3301C11.9948 19.3405 12.0104 19.3457 12.0312 19.3457C12.0312 19.3457 12.0365 19.3509 12.0469 19.3613C12.0573 19.3717 12.0729 19.377 12.0938 19.377C12.2396 19.4603 12.3906 19.5384 12.5469 19.6113C12.7031 19.6842 12.8646 19.752 13.0312 19.8145C13.3438 19.9395 13.6562 20.0488 13.9688 20.1426C14.2812 20.2363 14.6042 20.3145 14.9375 20.377C15.5 20.4811 16.0625 20.5332 16.625 20.5332C17.1875 20.5332 17.75 20.4915 18.3125 20.4082C18.625 20.3457 18.9427 20.2676 19.2656 20.1738C19.5885 20.0801 19.8958 19.9707 20.1875 19.8457C20.4583 19.7415 20.7188 19.627 20.9688 19.502C21.2188 19.377 21.4583 19.2311 21.6875 19.0645C21.3958 19.4603 21.0469 19.7884 20.6406 20.0488C20.2344 20.3092 19.8021 20.502 19.3438 20.627ZM13.3125 15.7832C13.4375 15.6999 13.5729 15.6426 13.7188 15.6113C13.8646 15.5801 14.0104 15.5749 14.1562 15.5957C14.2396 15.5957 14.3281 15.6061 14.4219 15.627C14.5156 15.6478 14.6042 15.679 14.6875 15.7207C14.75 15.7624 14.8229 15.8092 14.9062 15.8613C14.9896 15.9134 15.0521 15.9707 15.0938 16.0332C15.1562 16.1165 15.2135 16.1947 15.2656 16.2676C15.3177 16.3405 15.3542 16.4186 15.375 16.502C15.4167 16.5853 15.4427 16.6738 15.4531 16.7676C15.4635 16.8613 15.4688 16.9499 15.4688 17.0332C15.4688 17.179 15.4479 17.3249 15.4062 17.4707C15.3646 17.6165 15.3021 17.7415 15.2188 17.8457C15.1354 17.9707 15.0365 18.0801 14.9219 18.1738C14.8073 18.2676 14.6875 18.3353 14.5625 18.377C14.4167 18.4395 14.2708 18.4759 14.125 18.4863C13.9792 18.4967 13.8333 18.4811 13.6875 18.4395C13.5625 18.4186 13.4323 18.3717 13.2969 18.2988C13.1615 18.2259 13.0521 18.1374 12.9688 18.0332C12.8646 17.9082 12.7812 17.7832 12.7188 17.6582C12.6562 17.5332 12.6146 17.3978 12.5938 17.252C12.5729 17.1061 12.5729 16.9603 12.5938 16.8145C12.6146 16.6686 12.6562 16.5332 12.7188 16.4082C12.7812 16.2832 12.8646 16.1634 12.9688 16.0488C13.0729 15.9342 13.1875 15.8457 13.3125 15.7832ZM18.0625 15.7832C18.1875 15.6999 18.3229 15.6426 18.4688 15.6113C18.6146 15.5801 18.7604 15.5749 18.9062 15.5957C18.9896 15.5957 19.0729 15.6061 19.1562 15.627C19.2396 15.6478 19.3229 15.679 19.4062 15.7207C19.4896 15.7624 19.5677 15.8092 19.6406 15.8613C19.7135 15.9134 19.7812 15.9707 19.8438 16.0332C19.9062 16.1165 19.9635 16.1947 20.0156 16.2676C20.0677 16.3405 20.1042 16.4186 20.125 16.502C20.1667 16.5853 20.1927 16.6738 20.2031 16.7676C20.2135 16.8613 20.2188 16.9499 20.2188 17.0332C20.2188 17.179 20.1979 17.3249 20.1562 17.4707C20.1146 17.6165 20.0521 17.7415 19.9688 17.8457C19.8854 17.9707 19.7865 18.0801 19.6719 18.1738C19.5573 18.2676 19.4271 18.3353 19.2812 18.377C19.1562 18.4395 19.0208 18.4759 18.875 18.4863C18.7292 18.4967 18.5833 18.4811 18.4375 18.4395C18.2917 18.4186 18.1562 18.3717 18.0312 18.2988C17.9062 18.2259 17.8021 18.1374 17.7188 18.0332C17.6146 17.9082 17.5312 17.7832 17.4688 17.6582C17.4062 17.5332 17.3646 17.3978 17.3438 17.252C17.3229 17.1061 17.3229 16.9603 17.3438 16.8145C17.3646 16.6686 17.4062 16.5332 17.4688 16.4082C17.5312 16.2832 17.6146 16.1634 17.7188 16.0488C17.8229 15.9342 17.9375 15.8457 18.0625 15.7832Z" fill="white"/>
</svg>
