<svg width="25" height="25" viewBox="0 0 25 25" fill="none" xmlns="http://www.w3.org/2000/svg">
<g clip-path="url(#clip0_2747_776)">
<mask id="path-1-outside-1_2747_776" maskUnits="userSpaceOnUse" x="-0.0108643" y="-0.0856934" width="24" height="24" fill="black">
<rect fill="white" x="-0.0108643" y="-0.0856934" width="24" height="24"/>
<path d="M21.8509 12.2302C23.1259 11.1794 23.4645 10.0638 23.4892 9.22456C23.4905 9.17005 23.4792 9.11597 23.4562 9.06653C23.4332 9.0171 23.399 8.97365 23.3565 8.93956C23.3134 8.90491 23.263 8.88044 23.2091 8.86797C23.1552 8.8555 23.0992 8.85536 23.0452 8.86756C22.521 8.98306 21.9784 8.70969 21.7425 8.21469C21.4991 7.70094 21.6285 7.08931 22.0571 6.72669C22.0975 6.69245 22.1296 6.64963 22.1513 6.60136C22.173 6.55309 22.1836 6.50058 22.1824 6.44769C22.1811 6.39474 22.1679 6.34276 22.1437 6.29566C22.1195 6.24857 22.0849 6.20759 22.0425 6.17581C21.6281 5.86119 21.1519 5.65719 20.628 5.55969C20.7131 4.70694 20.5234 4.03569 20.268 3.54219C20.2421 3.49287 20.2051 3.45024 20.16 3.41764C20.1148 3.38504 20.0627 3.36336 20.0077 3.35431C19.9526 3.34451 19.896 3.34735 19.8422 3.36262C19.7883 3.37788 19.7386 3.40517 19.6969 3.44244C19.3039 3.79756 18.6937 3.84031 18.2591 3.53581C17.805 3.21706 17.628 2.62644 17.8271 2.09769C17.8459 2.04831 17.853 1.99524 17.8478 1.94265C17.8426 1.89006 17.8253 1.83941 17.7971 1.79469C17.7684 1.74913 17.73 1.71054 17.6845 1.68174C17.639 1.65293 17.5877 1.63464 17.5342 1.62819C17.3991 1.61143 17.2631 1.60291 17.127 1.60269C16.6024 1.60269 15.9337 1.73581 15.2002 2.18806C14.8132 1.57269 14.3422 1.19169 13.908 0.958436C13.8591 0.932325 13.8049 0.917652 13.7495 0.915521C13.6941 0.91339 13.639 0.923857 13.5882 0.946133C13.5374 0.968409 13.4924 1.00191 13.4565 1.04412C13.4205 1.08633 13.3946 1.13615 13.3807 1.18981C13.2491 1.73919 12.7807 2.12319 12.2392 2.12319C11.6974 2.12319 11.2286 1.73956 11.0985 1.18944C11.0857 1.13555 11.0605 1.08543 11.0248 1.04309C10.9891 1.00075 10.9439 0.967387 10.893 0.945686C10.8418 0.923072 10.7862 0.912432 10.7303 0.914577C10.6744 0.916721 10.6198 0.931594 10.5705 0.958061C10.1362 1.19056 9.66486 1.57194 9.27786 2.18769C8.54436 1.73656 7.87686 1.60306 7.35224 1.60306C7.21634 1.60328 7.08059 1.61179 6.94574 1.62856C6.8922 1.63504 6.84077 1.65334 6.79518 1.68213C6.74958 1.71093 6.71096 1.7495 6.68211 1.79506C6.65401 1.83979 6.63661 1.89041 6.63128 1.94296C6.62594 1.99552 6.63282 2.0486 6.65136 2.09806C6.85086 2.62606 6.67349 3.21781 6.21974 3.53619C5.78511 3.84181 5.17499 3.79719 4.78199 3.44281C4.74022 3.40555 4.69054 3.37826 4.63668 3.36299C4.58283 3.34773 4.52622 3.34489 4.47111 3.35469C4.41604 3.36354 4.3638 3.38514 4.31855 3.41776C4.2733 3.45038 4.2363 3.49311 4.21049 3.54256C3.95474 4.03569 3.76499 4.70694 3.85049 5.55931C3.32586 5.65756 2.85036 5.86156 2.43636 6.17619C2.39405 6.20808 2.35945 6.24906 2.33511 6.29612C2.31077 6.34318 2.29731 6.3951 2.29574 6.44806C2.29454 6.50092 2.30513 6.55338 2.32673 6.60164C2.34833 6.64989 2.3804 6.69274 2.42061 6.72706C2.6299 6.90543 2.7743 7.14804 2.83127 7.41707C2.88825 7.68609 2.85462 7.96641 2.73561 8.21431C2.50049 8.71081 1.95299 8.98306 1.43324 8.86756C1.37927 8.8555 1.32329 8.85571 1.26942 8.86817C1.21555 8.88063 1.16517 8.90503 1.12199 8.93956C1.07941 8.97373 1.04529 9.01725 1.02227 9.06674C0.999246 9.11623 0.987942 9.17037 0.989235 9.22494C1.01399 10.0638 1.35261 11.1791 2.62761 12.2298C1.35261 13.2689 1.01436 14.3707 0.989235 15.2009C0.988094 15.2548 0.999491 15.3083 1.02253 15.357C1.04557 15.4058 1.07961 15.4485 1.12199 15.4818C1.20824 15.5512 1.32336 15.5774 1.43324 15.5531C1.95786 15.4383 2.50011 15.7091 2.73599 16.1988C2.85455 16.4439 2.88802 16.7215 2.83111 16.9877C2.77419 17.254 2.63014 17.4936 2.42174 17.6688C2.38127 17.7023 2.34895 17.7445 2.32722 17.7923C2.3055 17.84 2.29494 17.8922 2.29635 17.9446C2.29776 17.9971 2.3111 18.0486 2.33536 18.0951C2.35962 18.1417 2.39416 18.1821 2.43636 18.2133C2.85524 18.5272 3.33899 18.7248 3.86999 18.8189C3.74324 19.7583 3.94049 20.4907 4.21124 21.0202C4.23686 21.07 4.27371 21.1132 4.31888 21.1463C4.36404 21.1794 4.41628 21.2016 4.47149 21.2111C4.52671 21.2208 4.58342 21.2178 4.63729 21.2022C4.69117 21.1867 4.74079 21.1591 4.78236 21.1214C5.17499 20.7622 5.78511 20.7191 6.21974 21.0273C6.67349 21.3491 6.85086 21.9472 6.65174 22.4823C6.63295 22.5324 6.62593 22.586 6.63119 22.6392C6.63646 22.6924 6.65388 22.7437 6.68211 22.7891C6.73986 22.8817 6.83586 22.9436 6.94499 22.9571C7.08006 22.9742 7.21608 22.9827 7.35224 22.9826C7.90461 22.9826 8.61449 22.8367 9.39299 22.3203C9.75673 22.8311 10.1786 23.1607 10.5712 23.3696C10.6205 23.3956 10.675 23.4103 10.7307 23.4124C10.7864 23.4146 10.8419 23.4042 10.893 23.3819C10.9435 23.3603 10.9884 23.3273 11.024 23.2855C11.0597 23.2437 11.0852 23.1941 11.0985 23.1408C11.2294 22.5978 11.6974 22.2187 12.2392 22.2187C12.7807 22.2187 13.2499 22.5986 13.38 23.1416C13.3932 23.195 13.4186 23.2445 13.4543 23.2864C13.4899 23.3283 13.5349 23.3612 13.5855 23.3827C13.6367 23.4049 13.6923 23.4154 13.7481 23.4132C13.804 23.4111 13.8586 23.3964 13.908 23.3703C14.3006 23.1614 14.7225 22.8318 15.0859 22.3211C15.8647 22.8367 16.5746 22.9826 17.1262 22.9826C17.2616 22.9826 17.3996 22.9743 17.5327 22.9571C17.5864 22.9505 17.638 22.932 17.6836 22.903C17.7292 22.8739 17.7678 22.835 17.7964 22.7891C17.8244 22.7436 17.8418 22.6924 17.8471 22.6392C17.8525 22.5861 17.8456 22.5324 17.8271 22.4823C17.6276 21.9479 17.805 21.3494 18.2584 21.0273C18.693 20.7183 19.3031 20.7629 19.6961 21.1214C19.7377 21.1591 19.7873 21.1867 19.8412 21.2023C19.895 21.2178 19.9518 21.2208 20.007 21.2111C20.0623 21.2018 20.1146 21.1797 20.1598 21.1466C20.205 21.1134 20.2418 21.0701 20.2672 21.0202C20.5387 20.4907 20.7356 19.7583 20.6085 18.8193C21.1402 18.7248 21.6236 18.5272 22.0414 18.2133C22.0834 18.1821 22.1179 18.1417 22.1421 18.0952C22.1664 18.0487 22.1797 17.9973 22.1813 17.9449C22.1828 17.8925 22.1724 17.8404 22.1509 17.7926C22.1294 17.7448 22.0973 17.7025 22.0571 17.6688C21.8483 17.494 21.7038 17.2545 21.6467 16.9882C21.5895 16.722 21.623 16.4443 21.7417 16.1992C21.9772 15.7091 22.5247 15.4387 23.0445 15.5531C23.0984 15.5649 23.1543 15.5647 23.2081 15.5523C23.2619 15.54 23.3123 15.5159 23.3557 15.4818C23.3982 15.4485 23.4322 15.4058 23.4553 15.357C23.4783 15.3083 23.4897 15.2548 23.4885 15.2009C23.4641 14.3707 23.1259 13.2686 21.8509 12.2302ZM17.0351 2.30844C16.9928 2.65221 17.0446 3.00102 17.1849 3.31768C17.3253 3.63435 17.5489 3.90699 17.832 4.10656C18.1139 4.30427 18.4444 4.42127 18.7879 4.44492C19.1314 4.46858 19.4749 4.39801 19.7812 4.24081C19.9106 4.62744 19.9436 5.04819 19.8971 5.49331C19.0192 5.49331 18.0337 5.75206 16.9781 6.27969C16.6031 6.46569 16.2289 6.71281 15.8569 7.01919C15.9641 6.53656 16.0181 6.07869 16.0181 5.64894C16.0181 4.44181 15.8231 3.52569 15.5284 2.82556C16.0226 2.50606 16.5285 2.32719 17.0351 2.30844ZM4.69686 4.24119C5.30361 4.55169 6.07724 4.50706 6.64649 4.10619C6.92957 3.90674 7.15325 3.63425 7.29371 3.31774C7.43417 3.00122 7.48615 2.65253 7.44411 2.30881C7.95074 2.32756 8.45511 2.50644 8.94974 2.82481C8.65461 3.52494 8.45924 4.44144 8.45924 5.64894C8.45924 6.07869 8.51398 6.53656 8.62123 7.01919C8.24886 6.71319 7.87424 6.46569 7.49998 6.27969C6.44511 5.75244 5.45961 5.49331 4.58174 5.49331C4.53486 5.04856 4.56786 4.62781 4.69686 4.24119ZM4.01436 18.1331C3.73367 18.0878 3.462 17.9981 3.20961 17.8672C3.41593 17.5873 3.54217 17.2566 3.5748 16.9104C3.60744 16.5642 3.54523 16.2157 3.39486 15.9022C3.24661 15.5897 3.01537 15.324 2.72637 15.134C2.43738 14.944 2.10175 14.837 1.75611 14.8248C1.89786 14.0347 2.40111 13.3079 3.22911 12.6708C3.51299 12.8583 3.82836 13.0428 4.18499 13.2209C5.00136 13.6286 6.03411 13.8581 7.25774 13.9061C6.29886 14.5338 5.56686 15.2156 5.07824 15.9408C4.52849 16.7546 4.19736 17.4843 4.01436 18.1331ZM13.9151 22.5262C13.7541 22.2214 13.513 21.9664 13.2178 21.7885C12.9226 21.6105 12.5845 21.5165 12.2398 21.5164C11.8952 21.5163 11.557 21.6102 11.2617 21.788C10.9665 21.9658 10.7253 22.2208 10.5641 22.5254C10.3306 22.3442 10.1278 22.1264 9.96373 21.8804C10.401 21.4976 10.8514 20.9913 11.3017 20.3234C11.6966 19.7373 12.0101 19.0113 12.2392 18.1499C12.468 19.0106 12.7807 19.7373 13.1756 20.3242C13.6267 20.9928 14.0771 21.4991 14.5144 21.8819C14.3502 22.1273 14.1479 22.3448 13.9151 22.5262ZM19.7816 20.3133C19.1749 19.9998 18.4012 20.0448 17.8324 20.4502C17.5483 20.6539 17.3244 20.9303 17.184 21.2503C17.0436 21.5704 16.9919 21.9224 17.0344 22.2693C15.9086 22.2273 14.7862 21.4211 13.7805 19.9312C13.1689 19.0229 12.7717 17.7104 12.6 16.0304C12.5901 15.9419 12.5478 15.8601 12.4812 15.801C12.4145 15.7418 12.3283 15.7095 12.2392 15.7102C12.1502 15.7094 12.064 15.7417 11.9974 15.8008C11.9308 15.8599 11.8884 15.9416 11.8785 16.0301C11.7064 17.7108 11.3089 19.0237 10.6972 19.9308C9.69223 21.4218 8.56911 22.2277 7.44336 22.2697C7.48608 21.9229 7.43463 21.5709 7.29442 21.2508C7.1542 20.9307 6.93039 20.6543 6.64649 20.4506C6.36581 20.2504 6.03525 20.1316 5.69134 20.1075C5.34742 20.0833 5.00352 20.1547 4.69761 20.3137C4.33086 19.2063 4.66799 17.8406 5.68386 16.3334C6.28799 15.4349 7.33199 14.5991 8.78286 13.8479C8.85593 13.811 8.91385 13.7498 8.9467 13.6748C8.97954 13.5998 8.98526 13.5157 8.96286 13.4369C8.93853 13.3585 8.88873 13.2904 8.82135 13.2435C8.75397 13.1966 8.67286 13.1735 8.59086 13.1778C6.89061 13.2798 5.50124 13.0792 4.51274 12.5864C2.90399 11.7836 1.95936 10.7598 1.75574 9.60556C2.46111 9.57744 3.08511 9.16456 3.39449 8.51431C3.54497 8.19687 3.60718 7.84475 3.57458 7.49496C3.54199 7.14517 3.41578 6.81061 3.20924 6.52644C4.20749 5.98794 5.58036 6.12069 7.17261 6.91456C7.81086 7.23331 8.46224 7.76469 9.10986 8.49369C9.16633 8.55702 9.24302 8.59881 9.32685 8.61194C9.41069 8.62507 9.49648 8.60873 9.56961 8.56569C9.642 8.52342 9.69708 8.45688 9.72508 8.37787C9.75309 8.29886 9.75221 8.21249 9.72261 8.13406C9.36598 7.21681 9.18486 6.38019 9.18486 5.64894C9.18486 3.82306 9.66074 2.50906 10.5634 1.81194C10.8889 2.43219 11.5245 2.83494 12.2392 2.83494C12.9551 2.83494 13.59 2.43219 13.9144 1.81344C14.8177 2.50906 15.2929 3.82306 15.2929 5.64894C15.2929 6.38094 15.1121 7.21719 14.7551 8.13406C14.7251 8.21244 14.7238 8.29894 14.7516 8.37814C14.7795 8.45734 14.8345 8.52407 14.907 8.56644C14.9805 8.6091 15.0664 8.62522 15.1504 8.61211C15.2343 8.59901 15.3112 8.55747 15.3682 8.49444C16.0151 7.76544 16.6665 7.23331 17.3055 6.91456C18.8955 6.12069 20.2699 5.98794 21.2685 6.52644C21.0621 6.81081 20.9359 7.14548 20.9033 7.49536C20.8707 7.84525 20.9329 8.19745 21.0832 8.51506C21.3922 9.16456 22.0155 9.57744 22.7224 9.60556C22.5172 10.7598 21.5737 11.7836 19.9646 12.5864C18.975 13.0792 17.5856 13.2802 15.8872 13.1778C15.8052 13.1733 15.724 13.1963 15.6566 13.2433C15.5892 13.2902 15.5394 13.3584 15.5152 13.4369C15.4929 13.5156 15.4986 13.5996 15.5313 13.6745C15.564 13.7495 15.6217 13.8108 15.6945 13.8479C17.1465 14.5983 18.1901 15.4346 18.7954 16.3334C19.8105 17.8406 20.1476 19.2059 19.7816 20.3133ZM21.0836 15.9026C20.9333 16.216 20.8712 16.5645 20.9038 16.9106C20.9365 17.2566 21.0627 17.5873 21.2689 17.8672C21.0165 17.9981 20.7448 18.0879 20.4641 18.1331C20.2815 17.4843 19.95 16.7546 19.4006 15.9404C18.9112 15.2152 18.1811 14.5334 17.2211 13.9057C18.4447 13.8577 19.4767 13.6282 20.2939 13.2206C20.6236 13.0567 20.9431 12.873 21.2505 12.6704C22.0781 13.3068 22.5814 14.0343 22.7227 14.8244C22.377 14.837 22.0414 14.9442 21.7524 15.1343C21.4634 15.3244 21.2321 15.5901 21.0836 15.9026Z"/>
</mask>
<path d="M21.8509 12.2302C23.1259 11.1794 23.4645 10.0638 23.4892 9.22456C23.4905 9.17005 23.4792 9.11597 23.4562 9.06653C23.4332 9.0171 23.399 8.97365 23.3565 8.93956C23.3134 8.90491 23.263 8.88044 23.2091 8.86797C23.1552 8.8555 23.0992 8.85536 23.0452 8.86756C22.521 8.98306 21.9784 8.70969 21.7425 8.21469C21.4991 7.70094 21.6285 7.08931 22.0571 6.72669C22.0975 6.69245 22.1296 6.64963 22.1513 6.60136C22.173 6.55309 22.1836 6.50058 22.1824 6.44769C22.1811 6.39474 22.1679 6.34276 22.1437 6.29566C22.1195 6.24857 22.0849 6.20759 22.0425 6.17581C21.6281 5.86119 21.1519 5.65719 20.628 5.55969C20.7131 4.70694 20.5234 4.03569 20.268 3.54219C20.2421 3.49287 20.2051 3.45024 20.16 3.41764C20.1148 3.38504 20.0627 3.36336 20.0077 3.35431C19.9526 3.34451 19.896 3.34735 19.8422 3.36262C19.7883 3.37788 19.7386 3.40517 19.6969 3.44244C19.3039 3.79756 18.6937 3.84031 18.2591 3.53581C17.805 3.21706 17.628 2.62644 17.8271 2.09769C17.8459 2.04831 17.853 1.99524 17.8478 1.94265C17.8426 1.89006 17.8253 1.83941 17.7971 1.79469C17.7684 1.74913 17.73 1.71054 17.6845 1.68174C17.639 1.65293 17.5877 1.63464 17.5342 1.62819C17.3991 1.61143 17.2631 1.60291 17.127 1.60269C16.6024 1.60269 15.9337 1.73581 15.2002 2.18806C14.8132 1.57269 14.3422 1.19169 13.908 0.958436C13.8591 0.932325 13.8049 0.917652 13.7495 0.915521C13.6941 0.91339 13.639 0.923857 13.5882 0.946133C13.5374 0.968409 13.4924 1.00191 13.4565 1.04412C13.4205 1.08633 13.3946 1.13615 13.3807 1.18981C13.2491 1.73919 12.7807 2.12319 12.2392 2.12319C11.6974 2.12319 11.2286 1.73956 11.0985 1.18944C11.0857 1.13555 11.0605 1.08543 11.0248 1.04309C10.9891 1.00075 10.9439 0.967387 10.893 0.945686C10.8418 0.923072 10.7862 0.912432 10.7303 0.914577C10.6744 0.916721 10.6198 0.931594 10.5705 0.958061C10.1362 1.19056 9.66486 1.57194 9.27786 2.18769C8.54436 1.73656 7.87686 1.60306 7.35224 1.60306C7.21634 1.60328 7.08059 1.61179 6.94574 1.62856C6.8922 1.63504 6.84077 1.65334 6.79518 1.68213C6.74958 1.71093 6.71096 1.7495 6.68211 1.79506C6.65401 1.83979 6.63661 1.89041 6.63128 1.94296C6.62594 1.99552 6.63282 2.0486 6.65136 2.09806C6.85086 2.62606 6.67349 3.21781 6.21974 3.53619C5.78511 3.84181 5.17499 3.79719 4.78199 3.44281C4.74022 3.40555 4.69054 3.37826 4.63668 3.36299C4.58283 3.34773 4.52622 3.34489 4.47111 3.35469C4.41604 3.36354 4.3638 3.38514 4.31855 3.41776C4.2733 3.45038 4.2363 3.49311 4.21049 3.54256C3.95474 4.03569 3.76499 4.70694 3.85049 5.55931C3.32586 5.65756 2.85036 5.86156 2.43636 6.17619C2.39405 6.20808 2.35945 6.24906 2.33511 6.29612C2.31077 6.34318 2.29731 6.3951 2.29574 6.44806C2.29454 6.50092 2.30513 6.55338 2.32673 6.60164C2.34833 6.64989 2.3804 6.69274 2.42061 6.72706C2.6299 6.90543 2.7743 7.14804 2.83127 7.41707C2.88825 7.68609 2.85462 7.96641 2.73561 8.21431C2.50049 8.71081 1.95299 8.98306 1.43324 8.86756C1.37927 8.8555 1.32329 8.85571 1.26942 8.86817C1.21555 8.88063 1.16517 8.90503 1.12199 8.93956C1.07941 8.97373 1.04529 9.01725 1.02227 9.06674C0.999246 9.11623 0.987942 9.17037 0.989235 9.22494C1.01399 10.0638 1.35261 11.1791 2.62761 12.2298C1.35261 13.2689 1.01436 14.3707 0.989235 15.2009C0.988094 15.2548 0.999491 15.3083 1.02253 15.357C1.04557 15.4058 1.07961 15.4485 1.12199 15.4818C1.20824 15.5512 1.32336 15.5774 1.43324 15.5531C1.95786 15.4383 2.50011 15.7091 2.73599 16.1988C2.85455 16.4439 2.88802 16.7215 2.83111 16.9877C2.77419 17.254 2.63014 17.4936 2.42174 17.6688C2.38127 17.7023 2.34895 17.7445 2.32722 17.7923C2.3055 17.84 2.29494 17.8922 2.29635 17.9446C2.29776 17.9971 2.3111 18.0486 2.33536 18.0951C2.35962 18.1417 2.39416 18.1821 2.43636 18.2133C2.85524 18.5272 3.33899 18.7248 3.86999 18.8189C3.74324 19.7583 3.94049 20.4907 4.21124 21.0202C4.23686 21.07 4.27371 21.1132 4.31888 21.1463C4.36404 21.1794 4.41628 21.2016 4.47149 21.2111C4.52671 21.2208 4.58342 21.2178 4.63729 21.2022C4.69117 21.1867 4.74079 21.1591 4.78236 21.1214C5.17499 20.7622 5.78511 20.7191 6.21974 21.0273C6.67349 21.3491 6.85086 21.9472 6.65174 22.4823C6.63295 22.5324 6.62593 22.586 6.63119 22.6392C6.63646 22.6924 6.65388 22.7437 6.68211 22.7891C6.73986 22.8817 6.83586 22.9436 6.94499 22.9571C7.08006 22.9742 7.21608 22.9827 7.35224 22.9826C7.90461 22.9826 8.61449 22.8367 9.39299 22.3203C9.75673 22.8311 10.1786 23.1607 10.5712 23.3696C10.6205 23.3956 10.675 23.4103 10.7307 23.4124C10.7864 23.4146 10.8419 23.4042 10.893 23.3819C10.9435 23.3603 10.9884 23.3273 11.024 23.2855C11.0597 23.2437 11.0852 23.1941 11.0985 23.1408C11.2294 22.5978 11.6974 22.2187 12.2392 22.2187C12.7807 22.2187 13.2499 22.5986 13.38 23.1416C13.3932 23.195 13.4186 23.2445 13.4543 23.2864C13.4899 23.3283 13.5349 23.3612 13.5855 23.3827C13.6367 23.4049 13.6923 23.4154 13.7481 23.4132C13.804 23.4111 13.8586 23.3964 13.908 23.3703C14.3006 23.1614 14.7225 22.8318 15.0859 22.3211C15.8647 22.8367 16.5746 22.9826 17.1262 22.9826C17.2616 22.9826 17.3996 22.9743 17.5327 22.9571C17.5864 22.9505 17.638 22.932 17.6836 22.903C17.7292 22.8739 17.7678 22.835 17.7964 22.7891C17.8244 22.7436 17.8418 22.6924 17.8471 22.6392C17.8525 22.5861 17.8456 22.5324 17.8271 22.4823C17.6276 21.9479 17.805 21.3494 18.2584 21.0273C18.693 20.7183 19.3031 20.7629 19.6961 21.1214C19.7377 21.1591 19.7873 21.1867 19.8412 21.2023C19.895 21.2178 19.9518 21.2208 20.007 21.2111C20.0623 21.2018 20.1146 21.1797 20.1598 21.1466C20.205 21.1134 20.2418 21.0701 20.2672 21.0202C20.5387 20.4907 20.7356 19.7583 20.6085 18.8193C21.1402 18.7248 21.6236 18.5272 22.0414 18.2133C22.0834 18.1821 22.1179 18.1417 22.1421 18.0952C22.1664 18.0487 22.1797 17.9973 22.1813 17.9449C22.1828 17.8925 22.1724 17.8404 22.1509 17.7926C22.1294 17.7448 22.0973 17.7025 22.0571 17.6688C21.8483 17.494 21.7038 17.2545 21.6467 16.9882C21.5895 16.722 21.623 16.4443 21.7417 16.1992C21.9772 15.7091 22.5247 15.4387 23.0445 15.5531C23.0984 15.5649 23.1543 15.5647 23.2081 15.5523C23.2619 15.54 23.3123 15.5159 23.3557 15.4818C23.3982 15.4485 23.4322 15.4058 23.4553 15.357C23.4783 15.3083 23.4897 15.2548 23.4885 15.2009C23.4641 14.3707 23.1259 13.2686 21.8509 12.2302ZM17.0351 2.30844C16.9928 2.65221 17.0446 3.00102 17.1849 3.31768C17.3253 3.63435 17.5489 3.90699 17.832 4.10656C18.1139 4.30427 18.4444 4.42127 18.7879 4.44492C19.1314 4.46858 19.4749 4.39801 19.7812 4.24081C19.9106 4.62744 19.9436 5.04819 19.8971 5.49331C19.0192 5.49331 18.0337 5.75206 16.9781 6.27969C16.6031 6.46569 16.2289 6.71281 15.8569 7.01919C15.9641 6.53656 16.0181 6.07869 16.0181 5.64894C16.0181 4.44181 15.8231 3.52569 15.5284 2.82556C16.0226 2.50606 16.5285 2.32719 17.0351 2.30844ZM4.69686 4.24119C5.30361 4.55169 6.07724 4.50706 6.64649 4.10619C6.92957 3.90674 7.15325 3.63425 7.29371 3.31774C7.43417 3.00122 7.48615 2.65253 7.44411 2.30881C7.95074 2.32756 8.45511 2.50644 8.94974 2.82481C8.65461 3.52494 8.45924 4.44144 8.45924 5.64894C8.45924 6.07869 8.51398 6.53656 8.62123 7.01919C8.24886 6.71319 7.87424 6.46569 7.49998 6.27969C6.44511 5.75244 5.45961 5.49331 4.58174 5.49331C4.53486 5.04856 4.56786 4.62781 4.69686 4.24119ZM4.01436 18.1331C3.73367 18.0878 3.462 17.9981 3.20961 17.8672C3.41593 17.5873 3.54217 17.2566 3.5748 16.9104C3.60744 16.5642 3.54523 16.2157 3.39486 15.9022C3.24661 15.5897 3.01537 15.324 2.72637 15.134C2.43738 14.944 2.10175 14.837 1.75611 14.8248C1.89786 14.0347 2.40111 13.3079 3.22911 12.6708C3.51299 12.8583 3.82836 13.0428 4.18499 13.2209C5.00136 13.6286 6.03411 13.8581 7.25774 13.9061C6.29886 14.5338 5.56686 15.2156 5.07824 15.9408C4.52849 16.7546 4.19736 17.4843 4.01436 18.1331ZM13.9151 22.5262C13.7541 22.2214 13.513 21.9664 13.2178 21.7885C12.9226 21.6105 12.5845 21.5165 12.2398 21.5164C11.8952 21.5163 11.557 21.6102 11.2617 21.788C10.9665 21.9658 10.7253 22.2208 10.5641 22.5254C10.3306 22.3442 10.1278 22.1264 9.96373 21.8804C10.401 21.4976 10.8514 20.9913 11.3017 20.3234C11.6966 19.7373 12.0101 19.0113 12.2392 18.1499C12.468 19.0106 12.7807 19.7373 13.1756 20.3242C13.6267 20.9928 14.0771 21.4991 14.5144 21.8819C14.3502 22.1273 14.1479 22.3448 13.9151 22.5262ZM19.7816 20.3133C19.1749 19.9998 18.4012 20.0448 17.8324 20.4502C17.5483 20.6539 17.3244 20.9303 17.184 21.2503C17.0436 21.5704 16.9919 21.9224 17.0344 22.2693C15.9086 22.2273 14.7862 21.4211 13.7805 19.9312C13.1689 19.0229 12.7717 17.7104 12.6 16.0304C12.5901 15.9419 12.5478 15.8601 12.4812 15.801C12.4145 15.7418 12.3283 15.7095 12.2392 15.7102C12.1502 15.7094 12.064 15.7417 11.9974 15.8008C11.9308 15.8599 11.8884 15.9416 11.8785 16.0301C11.7064 17.7108 11.3089 19.0237 10.6972 19.9308C9.69223 21.4218 8.56911 22.2277 7.44336 22.2697C7.48608 21.9229 7.43463 21.5709 7.29442 21.2508C7.1542 20.9307 6.93039 20.6543 6.64649 20.4506C6.36581 20.2504 6.03525 20.1316 5.69134 20.1075C5.34742 20.0833 5.00352 20.1547 4.69761 20.3137C4.33086 19.2063 4.66799 17.8406 5.68386 16.3334C6.28799 15.4349 7.33199 14.5991 8.78286 13.8479C8.85593 13.811 8.91385 13.7498 8.9467 13.6748C8.97954 13.5998 8.98526 13.5157 8.96286 13.4369C8.93853 13.3585 8.88873 13.2904 8.82135 13.2435C8.75397 13.1966 8.67286 13.1735 8.59086 13.1778C6.89061 13.2798 5.50124 13.0792 4.51274 12.5864C2.90399 11.7836 1.95936 10.7598 1.75574 9.60556C2.46111 9.57744 3.08511 9.16456 3.39449 8.51431C3.54497 8.19687 3.60718 7.84475 3.57458 7.49496C3.54199 7.14517 3.41578 6.81061 3.20924 6.52644C4.20749 5.98794 5.58036 6.12069 7.17261 6.91456C7.81086 7.23331 8.46224 7.76469 9.10986 8.49369C9.16633 8.55702 9.24302 8.59881 9.32685 8.61194C9.41069 8.62507 9.49648 8.60873 9.56961 8.56569C9.642 8.52342 9.69708 8.45688 9.72508 8.37787C9.75309 8.29886 9.75221 8.21249 9.72261 8.13406C9.36598 7.21681 9.18486 6.38019 9.18486 5.64894C9.18486 3.82306 9.66074 2.50906 10.5634 1.81194C10.8889 2.43219 11.5245 2.83494 12.2392 2.83494C12.9551 2.83494 13.59 2.43219 13.9144 1.81344C14.8177 2.50906 15.2929 3.82306 15.2929 5.64894C15.2929 6.38094 15.1121 7.21719 14.7551 8.13406C14.7251 8.21244 14.7238 8.29894 14.7516 8.37814C14.7795 8.45734 14.8345 8.52407 14.907 8.56644C14.9805 8.6091 15.0664 8.62522 15.1504 8.61211C15.2343 8.59901 15.3112 8.55747 15.3682 8.49444C16.0151 7.76544 16.6665 7.23331 17.3055 6.91456C18.8955 6.12069 20.2699 5.98794 21.2685 6.52644C21.0621 6.81081 20.9359 7.14548 20.9033 7.49536C20.8707 7.84525 20.9329 8.19745 21.0832 8.51506C21.3922 9.16456 22.0155 9.57744 22.7224 9.60556C22.5172 10.7598 21.5737 11.7836 19.9646 12.5864C18.975 13.0792 17.5856 13.2802 15.8872 13.1778C15.8052 13.1733 15.724 13.1963 15.6566 13.2433C15.5892 13.2902 15.5394 13.3584 15.5152 13.4369C15.4929 13.5156 15.4986 13.5996 15.5313 13.6745C15.564 13.7495 15.6217 13.8108 15.6945 13.8479C17.1465 14.5983 18.1901 15.4346 18.7954 16.3334C19.8105 17.8406 20.1476 19.2059 19.7816 20.3133ZM21.0836 15.9026C20.9333 16.216 20.8712 16.5645 20.9038 16.9106C20.9365 17.2566 21.0627 17.5873 21.2689 17.8672C21.0165 17.9981 20.7448 18.0879 20.4641 18.1331C20.2815 17.4843 19.95 16.7546 19.4006 15.9404C18.9112 15.2152 18.1811 14.5334 17.2211 13.9057C18.4447 13.8577 19.4767 13.6282 20.2939 13.2206C20.6236 13.0567 20.9431 12.873 21.2505 12.6704C22.0781 13.3068 22.5814 14.0343 22.7227 14.8244C22.377 14.837 22.0414 14.9442 21.7524 15.1343C21.4634 15.3244 21.2321 15.5901 21.0836 15.9026Z" fill="#154428"/>
<path d="M21.8509 12.2302C23.1259 11.1794 23.4645 10.0638 23.4892 9.22456C23.4905 9.17005 23.4792 9.11597 23.4562 9.06653C23.4332 9.0171 23.399 8.97365 23.3565 8.93956C23.3134 8.90491 23.263 8.88044 23.2091 8.86797C23.1552 8.8555 23.0992 8.85536 23.0452 8.86756C22.521 8.98306 21.9784 8.70969 21.7425 8.21469C21.4991 7.70094 21.6285 7.08931 22.0571 6.72669C22.0975 6.69245 22.1296 6.64963 22.1513 6.60136C22.173 6.55309 22.1836 6.50058 22.1824 6.44769C22.1811 6.39474 22.1679 6.34276 22.1437 6.29566C22.1195 6.24857 22.0849 6.20759 22.0425 6.17581C21.6281 5.86119 21.1519 5.65719 20.628 5.55969C20.7131 4.70694 20.5234 4.03569 20.268 3.54219C20.2421 3.49287 20.2051 3.45024 20.16 3.41764C20.1148 3.38504 20.0627 3.36336 20.0077 3.35431C19.9526 3.34451 19.896 3.34735 19.8422 3.36262C19.7883 3.37788 19.7386 3.40517 19.6969 3.44244C19.3039 3.79756 18.6937 3.84031 18.2591 3.53581C17.805 3.21706 17.628 2.62644 17.8271 2.09769C17.8459 2.04831 17.853 1.99524 17.8478 1.94265C17.8426 1.89006 17.8253 1.83941 17.7971 1.79469C17.7684 1.74913 17.73 1.71054 17.6845 1.68174C17.639 1.65293 17.5877 1.63464 17.5342 1.62819C17.3991 1.61143 17.2631 1.60291 17.127 1.60269C16.6024 1.60269 15.9337 1.73581 15.2002 2.18806C14.8132 1.57269 14.3422 1.19169 13.908 0.958436C13.8591 0.932325 13.8049 0.917652 13.7495 0.915521C13.6941 0.91339 13.639 0.923857 13.5882 0.946133C13.5374 0.968409 13.4924 1.00191 13.4565 1.04412C13.4205 1.08633 13.3946 1.13615 13.3807 1.18981C13.2491 1.73919 12.7807 2.12319 12.2392 2.12319C11.6974 2.12319 11.2286 1.73956 11.0985 1.18944C11.0857 1.13555 11.0605 1.08543 11.0248 1.04309C10.9891 1.00075 10.9439 0.967387 10.893 0.945686C10.8418 0.923072 10.7862 0.912432 10.7303 0.914577C10.6744 0.916721 10.6198 0.931594 10.5705 0.958061C10.1362 1.19056 9.66486 1.57194 9.27786 2.18769C8.54436 1.73656 7.87686 1.60306 7.35224 1.60306C7.21634 1.60328 7.08059 1.61179 6.94574 1.62856C6.8922 1.63504 6.84077 1.65334 6.79518 1.68213C6.74958 1.71093 6.71096 1.7495 6.68211 1.79506C6.65401 1.83979 6.63661 1.89041 6.63128 1.94296C6.62594 1.99552 6.63282 2.0486 6.65136 2.09806C6.85086 2.62606 6.67349 3.21781 6.21974 3.53619C5.78511 3.84181 5.17499 3.79719 4.78199 3.44281C4.74022 3.40555 4.69054 3.37826 4.63668 3.36299C4.58283 3.34773 4.52622 3.34489 4.47111 3.35469C4.41604 3.36354 4.3638 3.38514 4.31855 3.41776C4.2733 3.45038 4.2363 3.49311 4.21049 3.54256C3.95474 4.03569 3.76499 4.70694 3.85049 5.55931C3.32586 5.65756 2.85036 5.86156 2.43636 6.17619C2.39405 6.20808 2.35945 6.24906 2.33511 6.29612C2.31077 6.34318 2.29731 6.3951 2.29574 6.44806C2.29454 6.50092 2.30513 6.55338 2.32673 6.60164C2.34833 6.64989 2.3804 6.69274 2.42061 6.72706C2.6299 6.90543 2.7743 7.14804 2.83127 7.41707C2.88825 7.68609 2.85462 7.96641 2.73561 8.21431C2.50049 8.71081 1.95299 8.98306 1.43324 8.86756C1.37927 8.8555 1.32329 8.85571 1.26942 8.86817C1.21555 8.88063 1.16517 8.90503 1.12199 8.93956C1.07941 8.97373 1.04529 9.01725 1.02227 9.06674C0.999246 9.11623 0.987942 9.17037 0.989235 9.22494C1.01399 10.0638 1.35261 11.1791 2.62761 12.2298C1.35261 13.2689 1.01436 14.3707 0.989235 15.2009C0.988094 15.2548 0.999491 15.3083 1.02253 15.357C1.04557 15.4058 1.07961 15.4485 1.12199 15.4818C1.20824 15.5512 1.32336 15.5774 1.43324 15.5531C1.95786 15.4383 2.50011 15.7091 2.73599 16.1988C2.85455 16.4439 2.88802 16.7215 2.83111 16.9877C2.77419 17.254 2.63014 17.4936 2.42174 17.6688C2.38127 17.7023 2.34895 17.7445 2.32722 17.7923C2.3055 17.84 2.29494 17.8922 2.29635 17.9446C2.29776 17.9971 2.3111 18.0486 2.33536 18.0951C2.35962 18.1417 2.39416 18.1821 2.43636 18.2133C2.85524 18.5272 3.33899 18.7248 3.86999 18.8189C3.74324 19.7583 3.94049 20.4907 4.21124 21.0202C4.23686 21.07 4.27371 21.1132 4.31888 21.1463C4.36404 21.1794 4.41628 21.2016 4.47149 21.2111C4.52671 21.2208 4.58342 21.2178 4.63729 21.2022C4.69117 21.1867 4.74079 21.1591 4.78236 21.1214C5.17499 20.7622 5.78511 20.7191 6.21974 21.0273C6.67349 21.3491 6.85086 21.9472 6.65174 22.4823C6.63295 22.5324 6.62593 22.586 6.63119 22.6392C6.63646 22.6924 6.65388 22.7437 6.68211 22.7891C6.73986 22.8817 6.83586 22.9436 6.94499 22.9571C7.08006 22.9742 7.21608 22.9827 7.35224 22.9826C7.90461 22.9826 8.61449 22.8367 9.39299 22.3203C9.75673 22.8311 10.1786 23.1607 10.5712 23.3696C10.6205 23.3956 10.675 23.4103 10.7307 23.4124C10.7864 23.4146 10.8419 23.4042 10.893 23.3819C10.9435 23.3603 10.9884 23.3273 11.024 23.2855C11.0597 23.2437 11.0852 23.1941 11.0985 23.1408C11.2294 22.5978 11.6974 22.2187 12.2392 22.2187C12.7807 22.2187 13.2499 22.5986 13.38 23.1416C13.3932 23.195 13.4186 23.2445 13.4543 23.2864C13.4899 23.3283 13.5349 23.3612 13.5855 23.3827C13.6367 23.4049 13.6923 23.4154 13.7481 23.4132C13.804 23.4111 13.8586 23.3964 13.908 23.3703C14.3006 23.1614 14.7225 22.8318 15.0859 22.3211C15.8647 22.8367 16.5746 22.9826 17.1262 22.9826C17.2616 22.9826 17.3996 22.9743 17.5327 22.9571C17.5864 22.9505 17.638 22.932 17.6836 22.903C17.7292 22.8739 17.7678 22.835 17.7964 22.7891C17.8244 22.7436 17.8418 22.6924 17.8471 22.6392C17.8525 22.5861 17.8456 22.5324 17.8271 22.4823C17.6276 21.9479 17.805 21.3494 18.2584 21.0273C18.693 20.7183 19.3031 20.7629 19.6961 21.1214C19.7377 21.1591 19.7873 21.1867 19.8412 21.2023C19.895 21.2178 19.9518 21.2208 20.007 21.2111C20.0623 21.2018 20.1146 21.1797 20.1598 21.1466C20.205 21.1134 20.2418 21.0701 20.2672 21.0202C20.5387 20.4907 20.7356 19.7583 20.6085 18.8193C21.1402 18.7248 21.6236 18.5272 22.0414 18.2133C22.0834 18.1821 22.1179 18.1417 22.1421 18.0952C22.1664 18.0487 22.1797 17.9973 22.1813 17.9449C22.1828 17.8925 22.1724 17.8404 22.1509 17.7926C22.1294 17.7448 22.0973 17.7025 22.0571 17.6688C21.8483 17.494 21.7038 17.2545 21.6467 16.9882C21.5895 16.722 21.623 16.4443 21.7417 16.1992C21.9772 15.7091 22.5247 15.4387 23.0445 15.5531C23.0984 15.5649 23.1543 15.5647 23.2081 15.5523C23.2619 15.54 23.3123 15.5159 23.3557 15.4818C23.3982 15.4485 23.4322 15.4058 23.4553 15.357C23.4783 15.3083 23.4897 15.2548 23.4885 15.2009C23.4641 14.3707 23.1259 13.2686 21.8509 12.2302ZM17.0351 2.30844C16.9928 2.65221 17.0446 3.00102 17.1849 3.31768C17.3253 3.63435 17.5489 3.90699 17.832 4.10656C18.1139 4.30427 18.4444 4.42127 18.7879 4.44492C19.1314 4.46858 19.4749 4.39801 19.7812 4.24081C19.9106 4.62744 19.9436 5.04819 19.8971 5.49331C19.0192 5.49331 18.0337 5.75206 16.9781 6.27969C16.6031 6.46569 16.2289 6.71281 15.8569 7.01919C15.9641 6.53656 16.0181 6.07869 16.0181 5.64894C16.0181 4.44181 15.8231 3.52569 15.5284 2.82556C16.0226 2.50606 16.5285 2.32719 17.0351 2.30844ZM4.69686 4.24119C5.30361 4.55169 6.07724 4.50706 6.64649 4.10619C6.92957 3.90674 7.15325 3.63425 7.29371 3.31774C7.43417 3.00122 7.48615 2.65253 7.44411 2.30881C7.95074 2.32756 8.45511 2.50644 8.94974 2.82481C8.65461 3.52494 8.45924 4.44144 8.45924 5.64894C8.45924 6.07869 8.51398 6.53656 8.62123 7.01919C8.24886 6.71319 7.87424 6.46569 7.49998 6.27969C6.44511 5.75244 5.45961 5.49331 4.58174 5.49331C4.53486 5.04856 4.56786 4.62781 4.69686 4.24119ZM4.01436 18.1331C3.73367 18.0878 3.462 17.9981 3.20961 17.8672C3.41593 17.5873 3.54217 17.2566 3.5748 16.9104C3.60744 16.5642 3.54523 16.2157 3.39486 15.9022C3.24661 15.5897 3.01537 15.324 2.72637 15.134C2.43738 14.944 2.10175 14.837 1.75611 14.8248C1.89786 14.0347 2.40111 13.3079 3.22911 12.6708C3.51299 12.8583 3.82836 13.0428 4.18499 13.2209C5.00136 13.6286 6.03411 13.8581 7.25774 13.9061C6.29886 14.5338 5.56686 15.2156 5.07824 15.9408C4.52849 16.7546 4.19736 17.4843 4.01436 18.1331ZM13.9151 22.5262C13.7541 22.2214 13.513 21.9664 13.2178 21.7885C12.9226 21.6105 12.5845 21.5165 12.2398 21.5164C11.8952 21.5163 11.557 21.6102 11.2617 21.788C10.9665 21.9658 10.7253 22.2208 10.5641 22.5254C10.3306 22.3442 10.1278 22.1264 9.96373 21.8804C10.401 21.4976 10.8514 20.9913 11.3017 20.3234C11.6966 19.7373 12.0101 19.0113 12.2392 18.1499C12.468 19.0106 12.7807 19.7373 13.1756 20.3242C13.6267 20.9928 14.0771 21.4991 14.5144 21.8819C14.3502 22.1273 14.1479 22.3448 13.9151 22.5262ZM19.7816 20.3133C19.1749 19.9998 18.4012 20.0448 17.8324 20.4502C17.5483 20.6539 17.3244 20.9303 17.184 21.2503C17.0436 21.5704 16.9919 21.9224 17.0344 22.2693C15.9086 22.2273 14.7862 21.4211 13.7805 19.9312C13.1689 19.0229 12.7717 17.7104 12.6 16.0304C12.5901 15.9419 12.5478 15.8601 12.4812 15.801C12.4145 15.7418 12.3283 15.7095 12.2392 15.7102C12.1502 15.7094 12.064 15.7417 11.9974 15.8008C11.9308 15.8599 11.8884 15.9416 11.8785 16.0301C11.7064 17.7108 11.3089 19.0237 10.6972 19.9308C9.69223 21.4218 8.56911 22.2277 7.44336 22.2697C7.48608 21.9229 7.43463 21.5709 7.29442 21.2508C7.1542 20.9307 6.93039 20.6543 6.64649 20.4506C6.36581 20.2504 6.03525 20.1316 5.69134 20.1075C5.34742 20.0833 5.00352 20.1547 4.69761 20.3137C4.33086 19.2063 4.66799 17.8406 5.68386 16.3334C6.28799 15.4349 7.33199 14.5991 8.78286 13.8479C8.85593 13.811 8.91385 13.7498 8.9467 13.6748C8.97954 13.5998 8.98526 13.5157 8.96286 13.4369C8.93853 13.3585 8.88873 13.2904 8.82135 13.2435C8.75397 13.1966 8.67286 13.1735 8.59086 13.1778C6.89061 13.2798 5.50124 13.0792 4.51274 12.5864C2.90399 11.7836 1.95936 10.7598 1.75574 9.60556C2.46111 9.57744 3.08511 9.16456 3.39449 8.51431C3.54497 8.19687 3.60718 7.84475 3.57458 7.49496C3.54199 7.14517 3.41578 6.81061 3.20924 6.52644C4.20749 5.98794 5.58036 6.12069 7.17261 6.91456C7.81086 7.23331 8.46224 7.76469 9.10986 8.49369C9.16633 8.55702 9.24302 8.59881 9.32685 8.61194C9.41069 8.62507 9.49648 8.60873 9.56961 8.56569C9.642 8.52342 9.69708 8.45688 9.72508 8.37787C9.75309 8.29886 9.75221 8.21249 9.72261 8.13406C9.36598 7.21681 9.18486 6.38019 9.18486 5.64894C9.18486 3.82306 9.66074 2.50906 10.5634 1.81194C10.8889 2.43219 11.5245 2.83494 12.2392 2.83494C12.9551 2.83494 13.59 2.43219 13.9144 1.81344C14.8177 2.50906 15.2929 3.82306 15.2929 5.64894C15.2929 6.38094 15.1121 7.21719 14.7551 8.13406C14.7251 8.21244 14.7238 8.29894 14.7516 8.37814C14.7795 8.45734 14.8345 8.52407 14.907 8.56644C14.9805 8.6091 15.0664 8.62522 15.1504 8.61211C15.2343 8.59901 15.3112 8.55747 15.3682 8.49444C16.0151 7.76544 16.6665 7.23331 17.3055 6.91456C18.8955 6.12069 20.2699 5.98794 21.2685 6.52644C21.0621 6.81081 20.9359 7.14548 20.9033 7.49536C20.8707 7.84525 20.9329 8.19745 21.0832 8.51506C21.3922 9.16456 22.0155 9.57744 22.7224 9.60556C22.5172 10.7598 21.5737 11.7836 19.9646 12.5864C18.975 13.0792 17.5856 13.2802 15.8872 13.1778C15.8052 13.1733 15.724 13.1963 15.6566 13.2433C15.5892 13.2902 15.5394 13.3584 15.5152 13.4369C15.4929 13.5156 15.4986 13.5996 15.5313 13.6745C15.564 13.7495 15.6217 13.8108 15.6945 13.8479C17.1465 14.5983 18.1901 15.4346 18.7954 16.3334C19.8105 17.8406 20.1476 19.2059 19.7816 20.3133ZM21.0836 15.9026C20.9333 16.216 20.8712 16.5645 20.9038 16.9106C20.9365 17.2566 21.0627 17.5873 21.2689 17.8672C21.0165 17.9981 20.7448 18.0879 20.4641 18.1331C20.2815 17.4843 19.95 16.7546 19.4006 15.9404C18.9112 15.2152 18.1811 14.5334 17.2211 13.9057C18.4447 13.8577 19.4767 13.6282 20.2939 13.2206C20.6236 13.0567 20.9431 12.873 21.2505 12.6704C22.0781 13.3068 22.5814 14.0343 22.7227 14.8244C22.377 14.837 22.0414 14.9442 21.7524 15.1343C21.4634 15.3244 21.2321 15.5901 21.0836 15.9026Z" stroke="#154428" stroke-width="0.8" mask="url(#path-1-outside-1_2747_776)"/>
</g>
<defs>
<clipPath id="clip0_2747_776">
<rect width="24" height="24" fill="white" transform="translate(0.239258 0.163818)"/>
</clipPath>
</defs>
</svg>
