<svg width="37" height="37" viewBox="0 0 37 37" fill="none" xmlns="http://www.w3.org/2000/svg">
<g clip-path="url(#clip0_2747_674)">
<path d="M31.2881 25.5031C30.149 25.5031 29.0943 25.8547 28.2154 26.4594L26.1412 24.3852C27.442 22.775 28.2295 20.7289 28.2295 18.5C28.2295 16.2711 27.442 14.225 26.1412 12.6148L28.2154 10.5406C29.0873 11.1453 30.149 11.4969 31.2881 11.4969C34.2834 11.4969 36.7162 9.06406 36.7162 6.06875C36.7162 3.07344 34.2834 0.640625 31.2881 0.640625C28.2927 0.640625 25.8599 3.07344 25.8599 6.06875C25.8599 7.20781 26.2115 8.2625 26.8162 9.14141L24.742 11.2156C23.1318 9.91484 21.0857 9.12734 18.8568 9.12734C16.6279 9.12734 14.5818 9.91484 12.9717 11.2156L8.8865 7.13047C9.28728 6.48359 9.51931 5.72422 9.51931 4.90859C9.51931 2.55313 7.60681 0.640625 5.25837 0.640625C2.90994 0.640625 0.997437 2.55312 0.997437 4.90156C0.997437 7.25 2.90994 9.1625 5.25837 9.1625C6.074 9.1625 6.83337 8.93047 7.48025 8.52969L11.5654 12.6148C10.2646 14.225 9.47712 16.2711 9.47712 18.5C9.47712 20.7781 10.2998 22.8734 11.6568 24.4977L9.54041 26.5297C8.87947 26.1008 8.09197 25.8477 7.24119 25.8477C4.89275 25.8477 2.98025 27.7602 2.98025 30.1086C2.98025 32.457 4.89275 34.3695 7.24119 34.3695C9.58962 34.3695 11.5021 32.457 11.5021 30.1086C11.5021 29.3211 11.2842 28.5898 10.9115 27.957L13.0842 25.8758C14.6802 27.1273 16.6771 27.8797 18.8568 27.8797C21.0857 27.8797 23.1318 27.0922 24.742 25.7914L26.8162 27.8656C26.2115 28.7375 25.8599 29.7992 25.8599 30.9383C25.8599 33.9336 28.2927 36.3664 31.2881 36.3664C34.2834 36.3664 36.7162 33.9336 36.7162 30.9383C36.7162 27.9359 34.2834 25.5031 31.2881 25.5031ZM31.2881 2.62344C33.1865 2.62344 34.7334 4.17031 34.7334 6.06875C34.7334 7.96719 33.1865 9.51406 31.2881 9.51406C29.3896 9.51406 27.8427 7.96719 27.8427 6.06875C27.8427 4.17031 29.3896 2.62344 31.2881 2.62344ZM2.98025 4.90156C2.98025 3.64297 3.99978 2.62344 5.25837 2.62344C6.51697 2.62344 7.5365 3.65 7.5365 4.90156C7.5365 6.15312 6.51697 7.17969 5.25837 7.17969C3.99978 7.17969 2.98025 6.16016 2.98025 4.90156ZM7.24119 32.3938C5.98259 32.3938 4.96306 31.3742 4.96306 30.1156C4.96306 28.857 5.98259 27.8375 7.24119 27.8375C8.49978 27.8375 9.51931 28.857 9.51931 30.1156C9.51931 31.3742 8.49978 32.3938 7.24119 32.3938ZM11.4599 18.5C11.4599 14.4219 14.7787 11.1031 18.8568 11.1031C22.9349 11.1031 26.2537 14.4219 26.2537 18.5C26.2537 22.5781 22.9349 25.8969 18.8568 25.8969C14.7787 25.8969 11.4599 22.5781 11.4599 18.5ZM31.2881 34.3766C29.3896 34.3766 27.8427 32.8297 27.8427 30.9312C27.8427 29.0328 29.3896 27.4859 31.2881 27.4859C33.1865 27.4859 34.7334 29.0328 34.7334 30.9312C34.7334 32.8297 33.1865 34.3766 31.2881 34.3766Z" fill="#008A35"/>
</g>
<defs>
<clipPath id="clip0_2747_674">
<rect width="36" height="36" fill="white" transform="translate(0.856812 0.5)"/>
</clipPath>
</defs>
</svg>
