<svg width="99" height="91" viewBox="0 0 99 91" fill="none" xmlns="http://www.w3.org/2000/svg">
<path d="M70.5756 21.7421C70.5756 33.1001 61.1116 42.3293 49.4101 42.3293C37.7086 42.3293 28.2447 33.1001 28.2447 21.7421C28.2447 10.3841 37.7086 1.15491 49.4101 1.15491C61.1116 1.15491 70.5756 10.3841 70.5756 21.7421Z" fill="#121D12" stroke="#37DD7A" stroke-width="0.946538"/>
<g filter="url(#filter0_ii_2747_2381)">
<path d="M68.5278 21.8002C68.5278 32.1449 59.868 40.531 49.1855 40.531C38.503 40.531 29.8432 32.1449 29.8432 21.8002C29.8432 11.4554 38.503 3.06934 49.1855 3.06934C59.868 3.06934 68.5278 11.4554 68.5278 21.8002Z" fill="url(#paint0_radial_2747_2381)"/>
</g>
<path d="M68.2912 21.8002C68.2912 32.0071 59.7445 40.2944 49.1855 40.2944C38.6265 40.2944 30.0798 32.0071 30.0798 21.8002C30.0798 11.5932 38.6265 3.30597 49.1855 3.30597C59.7445 3.30597 68.2912 11.5932 68.2912 21.8002Z" stroke="#37DD7A" stroke-width="0.473269"/>
<path d="M49.2944 13.4841L44.9266 16.5809L49.3157 6.59667L49.2944 13.4841Z" fill="#37DD7A" stroke="white" stroke-width="0.0920797"/>
<path d="M49.3865 13.4841L49.4078 6.59205L53.7685 16.5817L49.3865 13.4841Z" fill="#37DD7A" stroke="white" stroke-width="0.0920797"/>
<path d="M44.8756 16.7298L49.2937 13.5959V26.6924L44.8756 16.7298Z" fill="#37DD7A" stroke="white" stroke-width="0.0920797"/>
<path d="M53.8198 16.7315L49.3858 26.694V13.5958L53.8198 16.7315Z" fill="#37DD7A" stroke="white" stroke-width="0.0920797"/>
<path d="M58.9949 20.5287L54.8978 19.2112L63.4677 16.9602L58.9949 20.5287Z" fill="#37DD7A" stroke="white" stroke-width="0.0920797"/>
<path d="M59.0557 20.5954L63.5256 17.0319L59.3301 25.0273L59.0557 20.5954Z" fill="#37DD7A" stroke="white" stroke-width="0.0920797"/>
<path d="M50.5148 27.2236L54.7559 19.2626L58.9113 20.5942L50.5148 27.2236Z" fill="#37DD7A" stroke="white" stroke-width="0.0920797"/>
<path d="M59.2483 25.1557L50.5577 27.3038L58.9678 20.6648L59.2483 25.1557Z" fill="#37DD7A" stroke="white" stroke-width="0.0920797"/>
<path d="M39.7725 20.5298L35.3528 17.0359L43.9927 19.3021L39.7725 20.5298Z" fill="#37DD7A" stroke="white" stroke-width="0.0920797"/>
<path d="M39.7141 20.601L39.3329 24.9833L35.2915 17.1069L39.7141 20.601Z" fill="#37DD7A" stroke="white" stroke-width="0.0920797"/>
<path d="M39.3906 25.0805L39.7769 20.6497L48.0595 27.3302L39.3906 25.0805Z" fill="#37DD7A" stroke="white" stroke-width="0.0920797"/>
<path d="M44.1354 19.3555L39.8618 20.599L48.1179 27.2581L44.1354 19.3555Z" fill="#37DD7A" stroke="white" stroke-width="0.0920797"/>
<path d="M39.6038 30.4592L35.3758 31.4172L40.8737 27.2591L39.6038 30.4592Z" fill="#37DD7A" stroke="white" stroke-width="0.0920797"/>
<path d="M39.6242 30.5374L35.3933 31.5058L42.1776 32.8522L39.6242 30.5374Z" fill="#37DD7A" stroke="white" stroke-width="0.0920797"/>
<path d="M39.7153 30.4265L41.0063 27.1624L47.9333 28.6241L39.7153 30.4265Z" fill="#37DD7A" stroke="white" stroke-width="0.0920797"/>
<path d="M39.7378 30.5155L42.3361 32.8694L47.9524 28.7134L39.7378 30.5155Z" fill="#37DD7A" stroke="white" stroke-width="0.0920797"/>
<path d="M50.821 28.6397L57.6868 27.2285L59.0064 30.4269L50.821 28.6397Z" fill="#37DD7A" stroke="white" stroke-width="0.0920797"/>
<path d="M50.8032 28.7303L56.4665 32.8566L58.9873 30.5162L50.8032 28.7303Z" fill="#37DD7A" stroke="white" stroke-width="0.0920797"/>
<path d="M59.1166 30.4505L57.8216 27.3134L63.3282 31.4759L59.1166 30.4505Z" fill="#37DD7A" stroke="white" stroke-width="0.0920797"/>
<path d="M59.0952 30.5404L56.6178 32.8409L63.3169 31.5669L59.0952 30.5404Z" fill="#37DD7A" stroke="white" stroke-width="0.0920797"/>
<path d="M49.3416 28.6555L49.3417 28.6559L48.1111 29.9528L49.3416 28.6555Z" fill="#37DD7A"/>
<path d="M49.3416 28.6543L50.599 29.9522L49.3417 28.6559L49.3416 28.6543Z" fill="#37DD7A"/>
<path d="M49.3416 28.6555L49.3372 37.1071L48.1112 29.9526L49.3416 28.6555Z" fill="#37DD7A"/>
<path d="M49.3416 28.6555L50.5991 29.9526L49.3372 37.1073L49.3416 28.6555Z" fill="#37DD7A"/>
<path d="M10.8912 69.8316C9.50706 69.8316 8.22298 69.6149 7.03896 69.1813C5.87162 68.731 4.85437 68.0973 3.9872 67.2802C3.13671 66.463 2.46965 65.5041 1.98604 64.4035C1.50243 63.2862 1.26062 62.0605 1.26062 60.7264C1.26062 59.3923 1.50243 58.1749 1.98604 57.0743C2.46965 55.957 3.13671 54.9897 3.9872 54.1726C4.85437 53.3555 5.87162 52.7301 7.03896 52.2965C8.22298 51.8462 9.50706 51.6211 10.8912 51.6211C12.5088 51.6211 13.9513 51.9046 15.2187 52.4716C16.5028 53.0386 17.5701 53.8557 18.4205 54.923L15.2687 57.7747C14.7017 57.1076 14.0764 56.599 13.3926 56.2488C12.7256 55.8986 11.9751 55.7235 11.1413 55.7235C10.4243 55.7235 9.76554 55.8402 9.16519 56.0737C8.56484 56.3072 8.04788 56.649 7.61429 57.0993C7.19739 57.5329 6.86386 58.0582 6.61372 58.6752C6.38025 59.2922 6.26351 59.9759 6.26351 60.7264C6.26351 61.4768 6.38025 62.1605 6.61372 62.7776C6.86386 63.3946 7.19739 63.9282 7.61429 64.3785C8.04788 64.8121 8.56484 65.1456 9.16519 65.3791C9.76554 65.6125 10.4243 65.7293 11.1413 65.7293C11.9751 65.7293 12.7256 65.5542 13.3926 65.204C14.0764 64.8538 14.7017 64.3451 15.2687 63.6781L18.4205 66.5297C17.5701 67.5803 16.5028 68.3975 15.2187 68.9812C13.9513 69.5482 12.5088 69.8316 10.8912 69.8316ZM18.2345 69.4814L25.964 51.9713H30.8418L38.5963 69.4814H33.4433L27.3898 54.3977H29.3409L23.2874 69.4814H18.2345ZM22.4619 66.0795L23.7377 62.4274H32.2926L33.5684 66.0795H22.4619ZM40.0004 69.4814V51.9713H44.0778L53.7333 63.6281H51.8072V51.9713H56.66V69.4814H52.5827L42.9271 57.8247H44.8532V69.4814H40.0004ZM60.1537 69.4814V51.9713H64.231L73.8866 63.6281H71.9605V51.9713H76.8133V69.4814H72.7359L63.0803 57.8247H65.0065V69.4814H60.1537ZM78.2057 69.4814L85.9352 51.9713H90.813L98.5675 69.4814H93.4145L87.361 54.3977H89.3121L83.2586 69.4814H78.2057ZM82.4331 66.0795L83.7089 62.4274H92.2638L93.5396 66.0795H82.4331Z" fill="white"/>
<path d="M7.70519 88.5862C6.78604 88.5862 5.93669 88.4349 5.15716 88.1324C4.37762 87.8183 3.7028 87.382 3.13269 86.8235C2.56258 86.265 2.11464 85.6076 1.78886 84.8514C1.47472 84.0951 1.31765 83.269 1.31765 82.3731C1.31765 81.4773 1.47472 80.6512 1.78886 79.8949C2.11464 79.1386 2.56258 78.4813 3.13269 77.9228C3.71443 77.3643 4.39507 76.9338 5.17461 76.6313C5.95414 76.3172 6.80349 76.1601 7.72264 76.1601C8.6069 76.1601 9.43879 76.3114 10.2183 76.6139C10.9979 76.9048 11.6552 77.3469 12.1904 77.9403L11.3702 78.7605C10.8699 78.2486 10.3172 77.8821 9.71221 77.661C9.10719 77.4283 8.45564 77.312 7.75755 77.312C7.02455 77.312 6.34391 77.44 5.71563 77.6959C5.08735 77.9403 4.54051 78.2951 4.07511 78.7605C3.60972 79.2143 3.24322 79.7495 2.97562 80.3661C2.71965 80.9711 2.59167 81.6401 2.59167 82.3731C2.59167 83.1061 2.71965 83.781 2.97562 84.3976C3.24322 85.0026 3.60972 85.5378 4.07511 86.0032C4.54051 86.457 5.08735 86.8118 5.71563 87.0678C6.34391 87.3121 7.02455 87.4343 7.75755 87.4343C8.45564 87.4343 9.10719 87.318 9.71221 87.0853C10.3172 86.8526 10.8699 86.4802 11.3702 85.9683L12.1904 86.7886C11.6552 87.382 10.9979 87.8299 10.2183 88.1324C9.43879 88.4349 8.60108 88.5862 7.70519 88.5862ZM21.4245 88.5862C20.5053 88.5862 19.6502 88.4349 18.859 88.1324C18.0794 87.8183 17.3988 87.382 16.8171 86.8235C16.247 86.2534 15.799 85.596 15.4732 84.8514C15.1591 84.0951 15.002 83.269 15.002 82.3731C15.002 81.4773 15.1591 80.657 15.4732 79.9124C15.799 79.1561 16.247 78.4987 16.8171 77.9403C17.3988 77.3701 18.0794 76.9338 18.859 76.6313C19.6385 76.3172 20.4937 76.1601 21.4245 76.1601C22.3436 76.1601 23.193 76.3172 23.9725 76.6313C24.752 76.9338 25.4269 77.3643 25.997 77.9228C26.5787 78.4813 27.0267 79.1386 27.3408 79.8949C27.6666 80.6512 27.8295 81.4773 27.8295 82.3731C27.8295 83.269 27.6666 84.0951 27.3408 84.8514C27.0267 85.6076 26.5787 86.265 25.997 86.8235C25.4269 87.382 24.752 87.8183 23.9725 88.1324C23.193 88.4349 22.3436 88.5862 21.4245 88.5862ZM21.4245 87.4343C22.1575 87.4343 22.8323 87.3121 23.4489 87.0678C24.0772 86.8118 24.6182 86.457 25.072 86.0032C25.5374 85.5378 25.8981 85.0026 26.154 84.3976C26.41 83.781 26.538 83.1061 26.538 82.3731C26.538 81.6401 26.41 80.9711 26.154 80.3661C25.8981 79.7495 25.5374 79.2143 25.072 78.7605C24.6182 78.2951 24.0772 77.9403 23.4489 77.6959C22.8323 77.44 22.1575 77.312 21.4245 77.312C20.6915 77.312 20.0108 77.44 19.3826 77.6959C18.7543 77.9403 18.2074 78.2951 17.742 78.7605C17.2883 79.2143 16.9276 79.7495 16.66 80.3661C16.404 80.9711 16.276 81.6401 16.276 82.3731C16.276 83.0945 16.404 83.7635 16.66 84.3802C16.9276 84.9968 17.2883 85.5378 17.742 86.0032C18.2074 86.457 18.7543 86.8118 19.3826 87.0678C20.0108 87.3121 20.6915 87.4343 21.4245 87.4343ZM32.1204 88.4814V76.2648H33.185L41.6145 86.8758H41.056V76.2648H42.33V88.4814H41.2654L32.8534 77.8704H33.4119V88.4814H32.1204ZM47.7136 88.4814V76.2648H48.7782L57.2077 86.8758H56.6492V76.2648H57.9232V88.4814H56.8586L48.4466 77.8704H49.0051V88.4814H47.7136ZM64.4587 81.7274H70.9161V82.8269H64.4587V81.7274ZM64.5983 87.3645H71.9458V88.4814H63.3069V76.2648H71.684V77.3818H64.5983V87.3645ZM81.6491 88.5862C80.7299 88.5862 79.8806 88.4349 79.1011 88.1324C78.3215 87.8183 77.6467 87.382 77.0766 86.8235C76.5065 86.265 76.0585 85.6076 75.7328 84.8514C75.4186 84.0951 75.2616 83.269 75.2616 82.3731C75.2616 81.4773 75.4186 80.6512 75.7328 79.8949C76.0585 79.1386 76.5065 78.4813 77.0766 77.9228C77.6583 77.3643 78.339 76.9338 79.1185 76.6313C79.8981 76.3172 80.7474 76.1601 81.6666 76.1601C82.5508 76.1601 83.3827 76.3114 84.1622 76.6139C84.9418 76.9048 85.5991 77.3469 86.1343 77.9403L85.3141 78.7605C84.8138 78.2486 84.2611 77.8821 83.6561 77.661C83.0511 77.4283 82.3996 77.312 81.7015 77.312C80.9685 77.312 80.2878 77.44 79.6595 77.6959C79.0313 77.9403 78.4844 78.2951 78.019 78.7605C77.5536 79.2143 77.1871 79.7495 76.9195 80.3661C76.6636 80.9711 76.5356 81.6401 76.5356 82.3731C76.5356 83.1061 76.6636 83.781 76.9195 84.3976C77.1871 85.0026 77.5536 85.5378 78.019 86.0032C78.4844 86.457 79.0313 86.8118 79.6595 87.0678C80.2878 87.3121 80.9685 87.4343 81.7015 87.4343C82.3996 87.4343 83.0511 87.318 83.6561 87.0853C84.2611 86.8526 84.8138 86.4802 85.3141 85.9683L86.1343 86.7886C85.5991 87.382 84.9418 87.8299 84.1622 88.1324C83.3827 88.4349 82.545 88.5862 81.6491 88.5862ZM92.5038 88.4814V77.3818H88.2105V76.2648H98.0885V77.3818H93.7952V88.4814H92.5038Z" fill="white"/>
<defs>
<filter id="filter0_ii_2747_2381" x="29.8432" y="2.33163" width="38.6846" height="38.6356" filterUnits="userSpaceOnUse" color-interpolation-filters="sRGB">
<feFlood flood-opacity="0" result="BackgroundImageFix"/>
<feBlend mode="normal" in="SourceGraphic" in2="BackgroundImageFix" result="shape"/>
<feColorMatrix in="SourceAlpha" type="matrix" values="0 0 0 0 0 0 0 0 0 0 0 0 0 0 0 0 0 0 127 0" result="hardAlpha"/>
<feOffset dy="-0.737704"/>
<feGaussianBlur stdDeviation="0.516392"/>
<feComposite in2="hardAlpha" operator="arithmetic" k2="-1" k3="1"/>
<feColorMatrix type="matrix" values="0 0 0 0 0 0 0 0 0 0 0 0 0 0 0 0 0 0 0.25 0"/>
<feBlend mode="normal" in2="shape" result="effect1_innerShadow_2747_2381"/>
<feColorMatrix in="SourceAlpha" type="matrix" values="0 0 0 0 0 0 0 0 0 0 0 0 0 0 0 0 0 0 127 0" result="hardAlpha"/>
<feOffset dy="0.799179"/>
<feGaussianBlur stdDeviation="0.218237"/>
<feComposite in2="hardAlpha" operator="arithmetic" k2="-1" k3="1"/>
<feColorMatrix type="matrix" values="0 0 0 0 0 0 0 0 0 0 0 0 0 0 0 0 0 0 0.25 0"/>
<feBlend mode="normal" in2="effect1_innerShadow_2747_2381" result="effect2_innerShadow_2747_2381"/>
</filter>
<radialGradient id="paint0_radial_2747_2381" cx="0" cy="0" r="1" gradientUnits="userSpaceOnUse" gradientTransform="translate(49.1855 21.8002) rotate(90) scale(18.7308 19.3423)">
<stop stop-color="#0C120C"/>
<stop offset="1" stop-color="#153A15"/>
</radialGradient>
</defs>
</svg>
