<svg width="25" height="24" viewBox="0 0 25 24" fill="none" xmlns="http://www.w3.org/2000/svg">
<path d="M22.6603 14.2008V11.982L21.032 11.758C20.2877 11.6881 19.5407 11.6507 18.7932 11.646C20.0446 9.29514 20.53 7.23264 20.5335 7.20832L20.8045 6.02814L19.7901 5.36727L19.7294 5.32993L18.8679 4.76285L17.9587 5.25177C17.7415 5.36727 16.3955 6.10629 15.0442 7.2804C14.7898 5.00079 14.2036 3.09114 13.9622 2.47716L13.5314 1.37427H11.0009L10.5571 2.43982C10.505 2.55793 9.46115 5.07895 9.20236 8.07761C7.7712 6.91045 5.34657 5.57048 5.34657 5.57048L3.5142 6.99903L3.69049 7.89785C3.8772 8.77929 4.81683 10.9269 4.81683 10.9269C3.84333 10.9269 1.81818 11.2699 1.81818 11.2699V13.5626C1.81818 13.5626 3.44647 14.9433 5.32226 15.9377C5.2441 16.0115 5.19026 16.0662 5.16594 16.0897L4.35223 16.7887L4.59278 17.7214L4.8507 18.7114L5.85199 19.0041C5.99789 19.0414 6.9271 19.2281 7.94489 19.2281C8.62846 19.2332 9.30924 19.1405 9.96657 18.9528C10.0308 18.9355 10.0951 18.919 10.1594 18.899C10.3426 19.9472 10.5675 20.7817 10.6075 20.9372L10.96 22.2164H16.5813C15.4585 21.0596 14.6882 19.2481 14.6882 19.2481C14.6786 19.2377 14.6708 19.2247 14.6621 19.2108C15.3499 19.5026 16.2557 19.6111 17.0972 19.6311L18.2808 19.5573L18.7559 18.78L19.2205 17.9828C19.2205 17.9828 18.8236 17.0432 18.372 16.6368C19.7094 16.1444 21.3134 15.4149 21.9951 14.7671L22.6603 14.2008ZM17.0155 15.2551C16.5101 15.401 15.0442 15.6016 14.5015 15.6693C14.5015 15.6693 16.5987 16.8799 16.9417 17.7857C16.9417 17.7961 16.9478 17.8065 16.9478 17.817C16.927 17.817 16.907 17.8031 16.887 17.8065C15.2587 17.9316 12.6969 16.5004 12.406 16.2495C12.4668 17.1787 12.7994 19.3497 13.5827 20.4526L13.5592 20.4795H12.2826C12.2826 20.4795 11.3335 17.9351 11.3977 16.1643C10.954 16.5447 10.4381 17.0328 9.48112 17.2872C8.98081 17.4267 8.46341 17.4954 7.94402 17.4913C7.19804 17.4913 6.45554 17.3654 6.28273 17.3211L6.27578 17.2872C6.27578 17.2872 7.51068 16.1478 9.10162 15.7675C9.29094 15.7067 9.4846 15.6424 9.67478 15.6424C9.03649 15.5165 8.40254 15.3906 7.69999 15.137C5.61057 14.3667 3.81989 12.9998 3.64968 12.8296L3.6462 12.7923C3.6462 12.7923 4.31141 12.7584 4.81683 12.7584C5.63749 12.7584 6.98094 12.8539 8.39907 13.3628C8.78291 13.4913 9.16589 13.6173 9.4846 13.8066C8.95486 13.342 6.32354 11.144 5.54283 7.83619C5.54283 7.83619 9.36302 9.80403 11.3534 12.9521C11.0625 11.5782 10.8854 10.0819 10.8854 9.36635C10.8854 6.14711 12.1576 3.11111 12.1576 3.11111H12.3478C12.6465 3.87445 13.4298 6.58132 13.4298 9.36635C13.4298 10.3095 13.165 12.4979 13.1146 12.9217C13.2535 12.583 13.7859 11.5374 14.5084 10.438C15.8962 8.32511 18.7793 6.78193 18.7793 6.78193L18.8401 6.82187C18.742 7.25608 18.0672 9.69201 16.5509 12.0324C16.174 12.616 14.9965 13.7258 14.8957 13.8066C15.0755 13.7632 15.6895 13.5217 17.5071 13.4167C18.603 13.3554 19.702 13.3757 20.7949 13.4775L20.7975 13.5087C20.2652 14.0141 18.5422 14.8174 17.0155 15.2551Z" fill="#154428"/>
</svg>
