<svg width="27" height="23" viewBox="0 0 27 23" fill="none" xmlns="http://www.w3.org/2000/svg">
<path d="M10.7207 15.7643L14.2763 16.7938C14.2763 16.7938 23.1652 15.2495 24.3504 15.2495C25.5356 15.2495 25.5356 16.279 24.3504 17.3086C23.1652 18.3381 19.017 21.4267 15.4615 21.4267C11.9059 21.4267 9.53555 19.8824 7.16518 19.8824H1.23926" stroke="#154428" stroke-width="1.64726" stroke-linecap="round" stroke-linejoin="round"/>
<path d="M1.23926 13.7052C2.42444 12.6757 4.79481 11.1313 7.16518 11.1313C9.53555 11.1313 15.1652 13.1904 16.0541 14.22C16.943 15.2495 14.2763 16.7938 14.2763 16.7938" stroke="#154428" stroke-width="1.64726" stroke-linecap="round" stroke-linejoin="round"/>
<path d="M19.017 11.6462C19.9989 11.6462 20.7948 10.9548 20.7948 10.1019C20.7948 9.24903 19.9989 8.55762 19.017 8.55762C18.0352 8.55762 17.2393 9.24903 17.2393 10.1019C17.2393 10.9548 18.0352 11.6462 19.017 11.6462Z" stroke="#154428" stroke-width="1.64726"/>
<path d="M11.906 8.04295C12.8878 8.04295 13.6837 7.35155 13.6837 6.49865C13.6837 5.64575 12.8878 4.95435 11.906 4.95435C10.9241 4.95435 10.1282 5.64575 10.1282 6.49865C10.1282 7.35155 10.9241 8.04295 11.906 8.04295Z" stroke="#154428" stroke-width="1.64726"/>
<path d="M19.017 3.92479C19.9989 3.92479 20.7948 3.23338 20.7948 2.38049C20.7948 1.52759 19.9989 0.836182 19.017 0.836182C18.0352 0.836182 17.2393 1.52759 17.2393 2.38049C17.2393 3.23338 18.0352 3.92479 19.017 3.92479Z" stroke="#154428" stroke-width="1.64726"/>
</svg>
