<svg width="49" height="50" viewBox="0 0 49 50" fill="none" xmlns="http://www.w3.org/2000/svg">
<path d="M24.6729 2.42896C21.3632 2.42901 18.2152 3.14154 15.3829 4.427C14.9952 4.60303 14.8315 5.06596 15.0226 5.44648L16.3629 8.13156C16.5429 8.49219 16.9756 8.64612 17.3429 8.48018C19.5817 7.4806 22.0596 6.93042 24.6729 6.93042C34.6229 6.93042 42.6715 14.979 42.6715 24.929C42.6715 28.672 41.5194 32.1309 39.566 35.0115L37.2017 32.6457C37.0402 32.4839 36.8137 32.4045 36.5865 32.4303C36.2075 32.4743 35.9219 32.7959 35.9229 33.1774V41.4274C35.9214 41.8416 36.2558 42.1787 36.67 42.1803H44.9185C45.5924 42.186 45.9306 41.3684 45.4503 40.8957L42.7916 38.237C45.5345 34.5081 47.1729 29.9094 47.1729 24.9289C47.1729 12.5114 37.0904 2.42893 24.6729 2.42896ZM4.42001 7.67749C3.75305 7.67774 3.41815 8.48321 3.88828 8.95632L6.54843 11.6165C3.80506 15.3458 2.17294 19.9476 2.17294 24.929C2.17294 37.3466 12.2554 47.429 24.6729 47.429C27.9827 47.429 31.1307 46.7106 33.963 45.4251C34.3501 45.2485 34.513 44.7857 34.3219 44.4055L32.9771 41.7206C32.7974 41.3632 32.3687 41.2098 32.003 41.3719C29.7642 42.3715 27.2863 42.9276 24.6729 42.9276C14.7229 42.9276 6.67441 34.879 6.67441 24.929C6.67441 21.1873 7.81972 17.7242 9.77109 14.8435L12.1441 17.2107C12.6172 17.6809 13.4227 17.3459 13.4229 16.6789V8.43044C13.4244 8.01395 13.0865 7.6759 12.67 7.67749H4.42001Z" fill="#12DC60"/>
<path d="M33.8054 25.5534C33.8054 30.7887 29.4432 35.0428 24.0496 35.0428C18.6559 35.0428 14.2937 30.7887 14.2937 25.5534C14.2937 20.3182 18.6559 16.0641 24.0496 16.0641C29.4432 16.0641 33.8054 20.3182 33.8054 25.5534Z" fill="#121D12" stroke="#12DC60" stroke-width="0.436292"/>
<g filter="url(#filter0_ii_2747_1250)">
<path d="M32.8616 25.5801C32.8616 30.3483 28.8699 34.2138 23.946 34.2138C19.0221 34.2138 15.0305 30.3483 15.0305 25.5801C15.0305 20.8118 19.0221 16.9464 23.946 16.9464C28.8699 16.9464 32.8616 20.8118 32.8616 25.5801Z" fill="url(#paint0_radial_2747_1250)"/>
</g>
<path d="M32.7525 25.5801C32.7525 30.2848 28.813 34.1047 23.946 34.1047C19.079 34.1047 15.1396 30.2848 15.1396 25.5801C15.1396 20.8754 19.079 17.0555 23.946 17.0555C28.813 17.0555 32.7525 20.8754 32.7525 25.5801Z" stroke="#12DC60" stroke-width="0.218146"/>
<path d="M23.9964 21.7481L21.9832 23.1755L24.0062 18.5734L23.9964 21.7481Z" fill="#12DC60" stroke="black" stroke-width="0.0424427"/>
<path d="M24.0389 21.7482L24.0487 18.5714L26.0587 23.176L24.0389 21.7482Z" fill="#12DC60" stroke="black" stroke-width="0.0424427"/>
<path d="M21.9596 23.244L23.9961 21.7995V27.8361L21.9596 23.244Z" fill="#12DC60" stroke="black" stroke-width="0.0424427"/>
<path d="M26.0823 23.2448L24.0385 27.8368V21.7994L26.0823 23.2448Z" fill="#12DC60" stroke="black" stroke-width="0.0424427"/>
<path d="M28.4677 24.9953L26.5792 24.388L30.5293 23.3505L28.4677 24.9953Z" fill="#12DC60" stroke="black" stroke-width="0.0424427"/>
<path d="M28.4957 25.0258L30.556 23.3832L28.6222 27.0686L28.4957 25.0258Z" fill="#12DC60" stroke="black" stroke-width="0.0424427"/>
<path d="M24.5589 28.0806L26.5138 24.4111L28.4292 25.0249L24.5589 28.0806Z" fill="#12DC60" stroke="black" stroke-width="0.0424427"/>
<path d="M28.5844 27.1279L24.5786 28.118L28.4552 25.0579L28.5844 27.1279Z" fill="#12DC60" stroke="black" stroke-width="0.0424427"/>
<path d="M19.6074 24.9954L17.5702 23.385L21.5527 24.4296L19.6074 24.9954Z" fill="#12DC60" stroke="black" stroke-width="0.0424427"/>
<path d="M19.5805 25.0284L19.4047 27.0484L17.5419 23.4179L19.5805 25.0284Z" fill="#12DC60" stroke="black" stroke-width="0.0424427"/>
<path d="M19.4314 27.0927L19.6094 25.0503L23.4272 28.1296L19.4314 27.0927Z" fill="#12DC60" stroke="black" stroke-width="0.0424427"/>
<path d="M21.6183 24.4545L19.6485 25.0276L23.454 28.0971L21.6183 24.4545Z" fill="#12DC60" stroke="black" stroke-width="0.0424427"/>
<path d="M19.5296 29.5721L17.5807 30.0136L20.1149 28.097L19.5296 29.5721Z" fill="#12DC60" stroke="black" stroke-width="0.0424427"/>
<path d="M19.5389 29.6084L17.5888 30.0548L20.7159 30.6754L19.5389 29.6084Z" fill="#12DC60" stroke="black" stroke-width="0.0424427"/>
<path d="M19.5809 29.5573L20.176 28.0528L23.3689 28.7265L19.5809 29.5573Z" fill="#12DC60" stroke="black" stroke-width="0.0424427"/>
<path d="M19.5913 29.5984L20.7889 30.6834L23.3776 28.7678L19.5913 29.5984Z" fill="#12DC60" stroke="black" stroke-width="0.0424427"/>
<path d="M24.7001 28.7335L27.8647 28.083L28.473 29.5573L24.7001 28.7335Z" fill="#12DC60" stroke="black" stroke-width="0.0424427"/>
<path d="M24.6919 28.7757L27.3023 30.6776L28.4642 29.5988L24.6919 28.7757Z" fill="#12DC60" stroke="black" stroke-width="0.0424427"/>
<path d="M28.5238 29.5682L27.9269 28.1222L30.4651 30.0409L28.5238 29.5682Z" fill="#12DC60" stroke="black" stroke-width="0.0424427"/>
<path d="M28.5139 29.61L27.372 30.6703L30.4599 30.0831L28.5139 29.61Z" fill="#12DC60" stroke="black" stroke-width="0.0424427"/>
<path d="M24.018 28.7404L24.0181 28.7406L23.4508 29.3384L24.018 28.7404Z" fill="#12DC60"/>
<path d="M24.018 28.7399L24.5976 29.3381L24.0181 28.7406L24.018 28.7399Z" fill="#12DC60"/>
<path d="M24.018 28.7404L24.016 32.636L23.4509 29.3383L24.018 28.7404Z" fill="#12DC60"/>
<path d="M24.018 28.7404L24.5976 29.3383L24.016 32.6361L24.018 28.7404Z" fill="#12DC60"/>
<defs>
<filter id="filter0_ii_2747_1250" x="15.0305" y="16.6064" width="17.8311" height="17.8086" filterUnits="userSpaceOnUse" color-interpolation-filters="sRGB">
<feFlood flood-opacity="0" result="BackgroundImageFix"/>
<feBlend mode="normal" in="SourceGraphic" in2="BackgroundImageFix" result="shape"/>
<feColorMatrix in="SourceAlpha" type="matrix" values="0 0 0 0 0 0 0 0 0 0 0 0 0 0 0 0 0 0 127 0" result="hardAlpha"/>
<feOffset dy="-0.340033"/>
<feGaussianBlur stdDeviation="0.238023"/>
<feComposite in2="hardAlpha" operator="arithmetic" k2="-1" k3="1"/>
<feColorMatrix type="matrix" values="0 0 0 0 0 0 0 0 0 0 0 0 0 0 0 0 0 0 0.25 0"/>
<feBlend mode="normal" in2="shape" result="effect1_innerShadow_2747_1250"/>
<feColorMatrix in="SourceAlpha" type="matrix" values="0 0 0 0 0 0 0 0 0 0 0 0 0 0 0 0 0 0 127 0" result="hardAlpha"/>
<feOffset dy="0.368369"/>
<feGaussianBlur stdDeviation="0.100593"/>
<feComposite in2="hardAlpha" operator="arithmetic" k2="-1" k3="1"/>
<feColorMatrix type="matrix" values="0 0 0 0 0 0 0 0 0 0 0 0 0 0 0 0 0 0 0.25 0"/>
<feBlend mode="normal" in2="effect1_innerShadow_2747_1250" result="effect2_innerShadow_2747_1250"/>
</filter>
<radialGradient id="paint0_radial_2747_1250" cx="0" cy="0" r="1" gradientUnits="userSpaceOnUse" gradientTransform="translate(23.946 25.5801) rotate(90) scale(8.63368 8.91554)">
<stop stop-color="#0C120C"/>
<stop offset="1" stop-color="#153A15"/>
</radialGradient>
</defs>
</svg>
