<svg width="37" height="37" viewBox="0 0 37 37" fill="none" xmlns="http://www.w3.org/2000/svg">
<g clip-path="url(#clip0_2747_715)">
<path d="M2.86078 31.5078H8.48578C8.87412 31.5078 9.18891 31.193 9.18891 30.8047V23.7734C9.18891 23.3852 8.87412 23.0703 8.48578 23.0703H2.86078C2.47245 23.0703 2.15766 23.3852 2.15766 23.7734V30.8047C2.15766 31.193 2.47245 31.5078 2.86078 31.5078ZM3.56391 24.4766H7.78266V30.1016H3.56391V24.4766Z" fill="#008A35"/>
<path d="M11.6498 16.0391C11.2615 16.0391 10.9467 16.3539 10.9467 16.7422V30.8047C10.9467 31.193 11.2615 31.5078 11.6498 31.5078H17.2748C17.6631 31.5078 17.9779 31.193 17.9779 30.8047V16.7422C17.9779 16.3539 17.6631 16.0391 17.2748 16.0391H11.6498ZM16.5717 30.1016H12.3529V17.4453H16.5717V30.1016Z" fill="#008A35"/>
<path d="M20.4388 19.5547C20.0505 19.5547 19.7357 19.8695 19.7357 20.2578V30.8047C19.7357 31.193 20.0505 31.5078 20.4388 31.5078H26.0638C26.4522 31.5078 26.767 31.193 26.767 30.8047V20.2578C26.767 19.8695 26.4522 19.5547 26.0638 19.5547H20.4388ZM25.3607 30.1016H21.142V20.9609H25.3607V30.1016Z" fill="#008A35"/>
<path d="M28.5247 13.5781V30.8046C28.5247 31.1929 28.8395 31.5077 29.2279 31.5077H34.8528C35.2412 31.5077 35.556 31.1929 35.556 30.8046V13.5781C35.556 13.1899 35.2412 12.875 34.8528 12.875H29.2279C28.8395 12.875 28.5247 13.1899 28.5247 13.5781ZM29.931 14.2812H34.1497V30.1015H29.931V14.2812Z" fill="#008A35"/>
<path d="M5.67328 17.4453C7.03023 17.4453 8.1342 16.3413 8.1342 14.9843C8.1342 14.6577 8.07022 14.3456 7.95406 14.0601L13.0606 9.97493C13.4585 10.2517 13.9418 10.4141 14.4622 10.4141C15.2422 10.4141 15.9386 10.0493 16.3898 9.48148L20.8004 11.2458C20.7938 11.3192 20.7903 11.3935 20.7903 11.4687C20.7903 12.8257 21.8943 13.9297 23.2513 13.9297C24.6082 13.9297 25.7122 12.8257 25.7122 11.4687C25.7122 11.1636 25.6564 10.8714 25.5544 10.6016L30.5889 6.7753C30.9961 7.07364 31.498 7.24998 32.0403 7.24998C33.3972 7.24998 34.5012 6.14601 34.5012 4.78905C34.5012 3.4321 33.3972 2.32812 32.0403 2.32812C30.6833 2.32812 29.5794 3.4321 29.5794 4.78905C29.5794 5.09414 29.6352 5.3865 29.7371 5.65635L24.7026 9.4826C24.2955 9.18427 23.7935 9.00793 23.2512 9.00793C22.4712 9.00793 21.7748 9.37271 21.3237 9.94055L16.9131 8.17627C16.9197 8.1028 16.9232 8.02841 16.9232 7.95324C16.9232 6.59629 15.8192 5.49232 14.4622 5.49232C13.1053 5.49232 12.0013 6.59629 12.0013 7.95324C12.0013 8.27991 12.0653 8.59196 12.1814 8.87743L7.07495 12.9626C6.67691 12.6858 6.19373 12.5234 5.67328 12.5234C4.31632 12.5234 3.21235 13.6274 3.21235 14.9843C3.21235 16.3413 4.31632 17.4453 5.67328 17.4453ZM32.0404 3.73437C32.6219 3.73437 33.095 4.2075 33.095 4.78905C33.095 5.37061 32.6219 5.84374 32.0404 5.84374C31.4588 5.84374 30.9857 5.37061 30.9857 4.78905C30.9857 4.2075 31.4588 3.73437 32.0404 3.73437ZM23.2513 10.4141C23.8329 10.4141 24.306 10.8872 24.306 11.4687C24.306 12.0503 23.8329 12.5235 23.2513 12.5235C22.6698 12.5235 22.1966 12.0503 22.1966 11.4687C22.1966 10.8872 22.6698 10.4141 23.2513 10.4141ZM14.4623 6.89849C15.0439 6.89849 15.517 7.37162 15.517 7.95317C15.517 8.53473 15.0439 9.00786 14.4623 9.00786C13.8808 9.00786 13.4076 8.53473 13.4076 7.95317C13.4076 7.37162 13.8808 6.89849 14.4623 6.89849ZM5.67328 13.9296C6.25483 13.9296 6.72796 14.4028 6.72796 14.9843C6.72796 15.5659 6.25483 16.039 5.67328 16.039C5.09172 16.039 4.61859 15.5659 4.61859 14.9843C4.61859 14.4028 5.09172 13.9296 5.67328 13.9296Z" fill="#008A35"/>
<path d="M36.1537 33.2654H1.55993C1.1716 33.2654 0.856812 33.5802 0.856812 33.9685C0.856812 34.3568 1.1716 34.6716 1.55993 34.6716H36.1537C36.542 34.6716 36.8568 34.3568 36.8568 33.9685C36.8568 33.5802 36.542 33.2654 36.1537 33.2654Z" fill="#008A35"/>
</g>
<defs>
<clipPath id="clip0_2747_715">
<rect width="36" height="36" fill="white" transform="translate(0.856812 0.5)"/>
</clipPath>
</defs>
</svg>
