<svg width="32" height="33" viewBox="0 0 32 33" fill="none" xmlns="http://www.w3.org/2000/svg">
<path d="M16 3.68945C8.81855 3.68945 3 9.508 3 16.6895C3 23.8709 8.81855 29.6895 16 29.6895C23.1815 29.6895 29 23.8709 29 16.6895C29 9.508 23.1815 3.68945 16 3.68945ZM22.3847 12.5955L20.2512 22.6495C20.094 23.3624 19.6694 23.5354 19.077 23.1999L15.827 20.8044L14.2597 22.314C14.0867 22.487 13.9399 22.6338 13.6044 22.6338L13.8351 19.3261L19.8581 13.885C20.1202 13.6544 19.8004 13.5233 19.4544 13.754L12.0109 18.4403L8.80282 17.439C8.10565 17.2189 8.08992 16.7419 8.9496 16.4064L21.4831 11.5733C22.0649 11.3636 22.5734 11.7149 22.3847 12.5955Z" fill="white"/>
</svg>
