<svg width="1170" height="336" viewBox="0 0 1170 336" fill="none" xmlns="http://www.w3.org/2000/svg">
<path d="M202.908 79.5817C214.883 77.1215 227.396 75.8684 239.988 75.8684V108.384C227.396 108.384 214.883 109.637 202.908 112.097V79.5817Z" fill="#358686"/>
<path d="M165.828 7.42655C189.778 2.50618 214.805 0 239.988 0V75.8686C227.396 75.8686 214.883 77.1217 202.908 79.5819L165.828 7.42655Z" fill="#4CC0C0"/>
<path d="M142.911 107.143C157.805 94.1809 178.808 84.5331 202.908 79.582V112.097C178.808 117.048 157.805 126.696 142.911 139.658V107.143Z" fill="#B3903C"/>
<path d="M45.8337 62.5483C75.6229 36.6244 117.628 17.3286 165.828 7.42651L202.908 79.5819C178.808 84.5329 157.805 94.1808 142.911 107.143L45.8337 62.5483Z" fill="#FFCD56"/>
<path d="M119.994 151.737C119.994 135.715 128.016 120.105 142.911 107.143V139.658C128.016 152.62 119.994 168.231 119.994 184.252V151.737Z" fill="#B36F2D"/>
<path d="M0 151.737C0 119.693 16.0444 88.4721 45.8336 62.5481L142.911 107.143C128.016 120.105 119.994 135.715 119.994 151.737H0Z" fill="#FF9E40"/>
<path d="M45.8336 273.441C16.0444 247.517 0 216.296 0 184.252V151.737C0 183.781 16.0444 215.002 45.8336 240.926V273.441Z" fill="#B3455C"/>
<path d="M45.8336 240.926C16.0444 215.002 0 183.781 0 151.737H119.994C119.994 167.759 128.016 183.37 142.911 196.332L45.8336 240.926Z" fill="#FF6384"/>
<path d="M479.976 184.252C479.976 249.989 413.029 308.249 314.148 328.563C215.268 348.877 106.945 326.623 45.8337 273.441V240.926C106.945 294.108 215.268 316.362 314.148 296.048C413.029 275.734 479.976 217.474 479.976 151.737V184.252Z" fill="#2771A5"/>
<path d="M239.988 75.8684C306.259 75.8684 359.982 109.836 359.982 151.737V184.252C359.982 142.351 306.259 108.384 239.988 108.384V75.8684Z" fill="#2771A5"/>
<path d="M239.988 0C353.3 0 451.173 50.1109 474.732 120.189C498.291 190.268 441.116 261.216 337.6 290.356C234.084 319.496 112.437 298.887 45.8337 240.926L142.911 196.332C176.213 225.312 237.036 235.617 288.794 221.047C340.552 206.477 369.139 171.002 357.36 135.963C345.58 100.924 296.644 75.8686 239.988 75.8686V0Z" fill="#37A2EB"/>
<rect x="756" y="33" width="414" height="23" rx="11.5" fill="#37A2EB"/>
<path d="M757.022 27V17.2H760.914C761.511 17.2 762.043 17.3213 762.51 17.564C762.986 17.7973 763.355 18.1333 763.616 18.572C763.887 19.0013 764.022 19.5193 764.022 20.126V20.308C764.022 20.9147 763.882 21.4373 763.602 21.876C763.331 22.3147 762.963 22.6507 762.496 22.884C762.029 23.1173 761.502 23.234 760.914 23.234H758.534V27H757.022ZM758.534 21.862H760.76C761.292 21.862 761.717 21.722 762.034 21.442C762.351 21.162 762.51 20.7793 762.51 20.294V20.154C762.51 19.6593 762.351 19.272 762.034 18.992C761.717 18.712 761.292 18.572 760.76 18.572H758.534V21.862ZM765.5 27V20.098H766.914V20.91H767.138C767.25 20.6207 767.427 20.4107 767.67 20.28C767.922 20.14 768.23 20.07 768.594 20.07H769.42V21.372H768.538C768.071 21.372 767.688 21.5027 767.39 21.764C767.091 22.016 766.942 22.408 766.942 22.94V27H765.5ZM773.832 27.196C773.132 27.196 772.52 27.0513 771.998 26.762C771.475 26.4633 771.064 26.048 770.766 25.516C770.476 24.9747 770.332 24.3493 770.332 23.64V23.472C770.332 22.7533 770.476 22.128 770.766 21.596C771.055 21.0547 771.456 20.6393 771.97 20.35C772.492 20.0513 773.094 19.902 773.776 19.902C774.438 19.902 775.017 20.0513 775.512 20.35C776.016 20.6393 776.408 21.0453 776.688 21.568C776.968 22.0907 777.108 22.702 777.108 23.402V23.948H771.802C771.82 24.5547 772.021 25.04 772.404 25.404C772.796 25.7587 773.281 25.936 773.86 25.936C774.401 25.936 774.807 25.8147 775.078 25.572C775.358 25.3293 775.572 25.0493 775.722 24.732L776.912 25.348C776.781 25.6093 776.59 25.8847 776.338 26.174C776.095 26.4633 775.773 26.706 775.372 26.902C774.97 27.098 774.457 27.196 773.832 27.196ZM771.816 22.842H775.638C775.6 22.3193 775.414 21.9133 775.078 21.624C774.742 21.3253 774.303 21.176 773.762 21.176C773.22 21.176 772.777 21.3253 772.432 21.624C772.096 21.9133 771.89 22.3193 771.816 22.842ZM778.815 24.074V22.758H782.959V24.074H778.815ZM787.878 27.196C787.001 27.196 786.273 27 785.694 26.608C785.116 26.216 784.761 25.6233 784.63 24.83L785.974 24.508C786.049 24.8907 786.175 25.194 786.352 25.418C786.53 25.642 786.749 25.8007 787.01 25.894C787.281 25.9873 787.57 26.034 787.878 26.034C788.336 26.034 788.686 25.9453 788.928 25.768C789.18 25.5907 789.306 25.362 789.306 25.082C789.306 24.802 789.19 24.5967 788.956 24.466C788.723 24.3353 788.378 24.228 787.92 24.144L787.444 24.06C786.978 23.976 786.553 23.8547 786.17 23.696C785.788 23.5373 785.484 23.318 785.26 23.038C785.036 22.758 784.924 22.3987 784.924 21.96C784.924 21.3067 785.167 20.8027 785.652 20.448C786.138 20.084 786.782 19.902 787.584 19.902C788.359 19.902 788.994 20.0793 789.488 20.434C789.992 20.7793 790.319 21.2507 790.468 21.848L789.124 22.226C789.04 21.806 788.863 21.512 788.592 21.344C788.322 21.1667 787.986 21.078 787.584 21.078C787.192 21.078 786.884 21.1527 786.66 21.302C786.436 21.442 786.324 21.6427 786.324 21.904C786.324 22.184 786.432 22.3893 786.646 22.52C786.87 22.6507 787.169 22.7487 787.542 22.814L788.032 22.898C788.527 22.982 788.98 23.0987 789.39 23.248C789.801 23.3973 790.123 23.612 790.356 23.892C790.599 24.172 790.72 24.5453 790.72 25.012C790.72 25.7027 790.464 26.2393 789.95 26.622C789.437 27.0047 788.746 27.196 787.878 27.196ZM794.493 27.196C793.998 27.196 793.555 27.112 793.163 26.944C792.78 26.776 792.472 26.5287 792.239 26.202C792.015 25.8753 791.903 25.4787 791.903 25.012C791.903 24.536 792.015 24.144 792.239 23.836C792.472 23.5187 792.785 23.2807 793.177 23.122C793.578 22.9633 794.031 22.884 794.535 22.884H796.635V22.436C796.635 22.0347 796.514 21.7127 796.271 21.47C796.028 21.2273 795.655 21.106 795.151 21.106C794.656 21.106 794.278 21.2227 794.017 21.456C793.756 21.6893 793.583 21.9927 793.499 22.366L792.155 21.932C792.267 21.5587 792.444 21.2227 792.687 20.924C792.939 20.616 793.27 20.3687 793.681 20.182C794.092 19.9953 794.586 19.902 795.165 19.902C796.061 19.902 796.766 20.1307 797.279 20.588C797.792 21.0453 798.049 21.694 798.049 22.534V25.376C798.049 25.656 798.18 25.796 798.441 25.796H799.029V27H797.951C797.624 27 797.358 26.916 797.153 26.748C796.948 26.58 796.845 26.3513 796.845 26.062V26.02H796.635C796.56 26.16 796.448 26.3233 796.299 26.51C796.15 26.6967 795.93 26.86 795.641 27C795.352 27.1307 794.969 27.196 794.493 27.196ZM794.703 26.006C795.282 26.006 795.748 25.8427 796.103 25.516C796.458 25.18 796.635 24.7227 796.635 24.144V24.004H794.619C794.236 24.004 793.928 24.088 793.695 24.256C793.462 24.4147 793.345 24.6527 793.345 24.97C793.345 25.2873 793.466 25.5393 793.709 25.726C793.952 25.9127 794.283 26.006 794.703 26.006ZM800.431 27V17.2H801.873V27H800.431ZM807.177 27.196C806.477 27.196 805.866 27.0513 805.343 26.762C804.821 26.4633 804.41 26.048 804.111 25.516C803.822 24.9747 803.677 24.3493 803.677 23.64V23.472C803.677 22.7533 803.822 22.128 804.111 21.596C804.401 21.0547 804.802 20.6393 805.315 20.35C805.838 20.0513 806.44 19.902 807.121 19.902C807.784 19.902 808.363 20.0513 808.857 20.35C809.361 20.6393 809.753 21.0453 810.033 21.568C810.313 22.0907 810.453 22.702 810.453 23.402V23.948H805.147C805.166 24.5547 805.367 25.04 805.749 25.404C806.141 25.7587 806.627 25.936 807.205 25.936C807.747 25.936 808.153 25.8147 808.423 25.572C808.703 25.3293 808.918 25.0493 809.067 24.732L810.257 25.348C810.127 25.6093 809.935 25.8847 809.683 26.174C809.441 26.4633 809.119 26.706 808.717 26.902C808.316 27.098 807.803 27.196 807.177 27.196ZM805.161 22.842H808.983C808.946 22.3193 808.759 21.9133 808.423 21.624C808.087 21.3253 807.649 21.176 807.107 21.176C806.566 21.176 806.123 21.3253 805.777 21.624C805.441 21.9133 805.236 22.3193 805.161 22.842ZM813.057 27.196C812.73 27.196 812.455 27.0887 812.231 26.874C812.016 26.6593 811.909 26.384 811.909 26.048C811.909 25.712 812.016 25.4413 812.231 25.236C812.455 25.0213 812.73 24.914 813.057 24.914C813.384 24.914 813.654 25.0213 813.869 25.236C814.093 25.4507 814.205 25.7213 814.205 26.048C814.205 26.384 814.093 26.6593 813.869 26.874C813.654 27.0887 813.384 27.196 813.057 27.196ZM813.057 22.198C812.73 22.198 812.455 22.0907 812.231 21.876C812.016 21.6613 811.909 21.386 811.909 21.05C811.909 20.714 812.016 20.4433 812.231 20.238C812.455 20.0233 812.73 19.916 813.057 19.916C813.384 19.916 813.654 20.0233 813.869 20.238C814.093 20.4527 814.205 20.7233 814.205 21.05C814.205 21.386 814.093 21.6613 813.869 21.876C813.654 22.0907 813.384 22.198 813.057 22.198ZM822.917 27.196C822.207 27.196 821.582 27.0607 821.041 26.79C820.499 26.51 820.079 26.1227 819.781 25.628C819.482 25.1333 819.333 24.5593 819.333 23.906V20.518C819.333 19.7527 819.482 19.1087 819.781 18.586C820.089 18.0633 820.518 17.6713 821.069 17.41C821.619 17.1393 822.259 17.004 822.987 17.004C823.705 17.004 824.326 17.13 824.849 17.382C825.371 17.6247 825.773 17.9747 826.053 18.432C826.333 18.88 826.472 19.4073 826.472 20.014H824.989C824.989 19.5287 824.825 19.1273 824.499 18.81C824.181 18.4833 823.677 18.32 822.987 18.32C822.287 18.32 821.745 18.5067 821.363 18.88C820.989 19.244 820.803 19.7527 820.803 20.406V21.582H821.027C821.185 21.358 821.442 21.1433 821.797 20.938C822.161 20.7327 822.674 20.63 823.337 20.63C823.915 20.63 824.447 20.756 824.933 21.008C825.418 21.26 825.805 21.6193 826.095 22.086C826.393 22.5527 826.543 23.1173 826.543 23.78V23.948C826.543 24.592 826.389 25.1613 826.081 25.656C825.773 26.1413 825.343 26.5193 824.793 26.79C824.251 27.0607 823.626 27.196 822.917 27.196ZM822.931 25.88C823.584 25.88 824.102 25.7027 824.485 25.348C824.877 24.9933 825.073 24.5173 825.073 23.92V23.808C825.073 23.4067 824.984 23.0613 824.807 22.772C824.629 22.4733 824.377 22.24 824.051 22.072C823.733 21.904 823.36 21.82 822.931 21.82C822.511 21.82 822.137 21.904 821.811 22.072C821.493 22.24 821.246 22.4733 821.069 22.772C820.891 23.0613 820.803 23.4067 820.803 23.808V23.92C820.803 24.5173 820.994 24.9933 821.377 25.348C821.769 25.7027 822.287 25.88 822.931 25.88ZM831.404 27.196C830.666 27.196 830.027 27.0607 829.486 26.79C828.944 26.5193 828.524 26.1367 828.226 25.642C827.936 25.1473 827.792 24.5733 827.792 23.92V23.766H829.29V23.906C829.29 24.5033 829.472 24.984 829.836 25.348C830.209 25.7027 830.727 25.88 831.39 25.88C832.071 25.88 832.598 25.6933 832.972 25.32C833.345 24.9467 833.532 24.4427 833.532 23.808V23.682C833.532 23.0753 833.345 22.59 832.972 22.226C832.608 21.862 832.141 21.68 831.572 21.68C831.254 21.68 830.988 21.7313 830.774 21.834C830.568 21.9273 830.4 22.044 830.27 22.184C830.148 22.324 830.046 22.4593 829.962 22.59H828.1V17.2H834.666V18.53H829.57V21.414H829.794C829.887 21.2553 830.018 21.106 830.186 20.966C830.363 20.8167 830.592 20.6953 830.872 20.602C831.152 20.5087 831.488 20.462 831.88 20.462C832.458 20.462 832.981 20.588 833.448 20.84C833.924 21.0827 834.302 21.4467 834.582 21.932C834.862 22.408 835.002 22.9867 835.002 23.668V23.822C835.002 24.5033 834.857 25.096 834.568 25.6C834.278 26.104 833.863 26.496 833.322 26.776C832.79 27.056 832.15 27.196 831.404 27.196ZM837.531 27.182L836.635 26.454L844.293 17.018L845.189 17.746L837.531 27.182ZM843.593 27.154C842.902 27.154 842.356 26.9627 841.955 26.58C841.553 26.188 841.353 25.6607 841.353 24.998V24.914C841.353 24.242 841.553 23.7147 841.955 23.332C842.356 22.94 842.902 22.744 843.593 22.744C844.274 22.744 844.82 22.94 845.231 23.332C845.641 23.7147 845.847 24.242 845.847 24.914V24.998C845.847 25.6607 845.641 26.188 845.231 26.58C844.829 26.9627 844.283 27.154 843.593 27.154ZM843.593 26.174C843.929 26.174 844.19 26.0713 844.377 25.866C844.573 25.6607 844.671 25.39 844.671 25.054V24.858C844.671 24.5127 844.573 24.2373 844.377 24.032C844.19 23.8267 843.929 23.724 843.593 23.724C843.266 23.724 843.005 23.8267 842.809 24.032C842.622 24.2373 842.529 24.5127 842.529 24.858V25.054C842.529 25.39 842.622 25.6607 842.809 25.866C843.005 26.0713 843.266 26.174 843.593 26.174ZM838.231 21.456C837.54 21.456 836.989 21.2647 836.579 20.882C836.177 20.49 835.977 19.9627 835.977 19.3V19.202C835.977 18.53 836.177 18.0027 836.579 17.62C836.989 17.2373 837.54 17.046 838.231 17.046C838.912 17.046 839.453 17.2373 839.855 17.62C840.265 18.0027 840.471 18.53 840.471 19.202V19.3C840.471 19.9627 840.27 20.49 839.869 20.882C839.467 21.2647 838.921 21.456 838.231 21.456ZM838.231 20.476C838.557 20.476 838.814 20.3733 839.001 20.168C839.197 19.9533 839.295 19.678 839.295 19.342V19.146C839.295 18.81 839.197 18.5393 839.001 18.334C838.814 18.1287 838.557 18.026 838.231 18.026C837.895 18.026 837.629 18.1287 837.433 18.334C837.246 18.5393 837.153 18.81 837.153 19.146V19.342C837.153 19.678 837.246 19.9533 837.433 20.168C837.629 20.3733 837.895 20.476 838.231 20.476Z" fill="white"/>
<rect x="756" y="84" width="65" height="23" rx="11.5" fill="#FF6384"/>
<path d="M757.022 78V68.2H761.138C761.745 68.2 762.277 68.3073 762.734 68.522C763.201 68.7273 763.56 69.026 763.812 69.418C764.073 69.81 764.204 70.2767 764.204 70.818V70.972C764.204 71.588 764.055 72.0827 763.756 72.456C763.467 72.82 763.112 73.0767 762.692 73.226V73.45C763.047 73.4687 763.331 73.59 763.546 73.814C763.761 74.0287 763.868 74.3413 763.868 74.752V78H762.342V74.962C762.342 74.71 762.277 74.5093 762.146 74.36C762.015 74.2107 761.805 74.136 761.516 74.136H758.534V78H757.022ZM758.534 72.764H760.97C761.511 72.764 761.931 72.6287 762.23 72.358C762.529 72.078 762.678 71.7 762.678 71.224V71.112C762.678 70.636 762.529 70.2627 762.23 69.992C761.941 69.712 761.521 69.572 760.97 69.572H758.534V72.764ZM769.074 78.196C768.374 78.196 767.762 78.0513 767.24 77.762C766.717 77.4633 766.306 77.048 766.008 76.516C765.718 75.9747 765.574 75.3493 765.574 74.64V74.472C765.574 73.7533 765.718 73.128 766.008 72.596C766.297 72.0547 766.698 71.6393 767.212 71.35C767.734 71.0513 768.336 70.902 769.018 70.902C769.68 70.902 770.259 71.0513 770.754 71.35C771.258 71.6393 771.65 72.0453 771.93 72.568C772.21 73.0907 772.35 73.702 772.35 74.402V74.948H767.044C767.062 75.5547 767.263 76.04 767.646 76.404C768.038 76.7587 768.523 76.936 769.102 76.936C769.643 76.936 770.049 76.8147 770.32 76.572C770.6 76.3293 770.814 76.0493 770.964 75.732L772.154 76.348C772.023 76.6093 771.832 76.8847 771.58 77.174C771.337 77.4633 771.015 77.706 770.614 77.902C770.212 78.098 769.699 78.196 769.074 78.196ZM767.058 73.842H770.88C770.842 73.3193 770.656 72.9133 770.32 72.624C769.984 72.3253 769.545 72.176 769.004 72.176C768.462 72.176 768.019 72.3253 767.674 72.624C767.338 72.9133 767.132 73.3193 767.058 73.842ZM776.913 78.196C776.036 78.196 775.308 78 774.729 77.608C774.151 77.216 773.796 76.6233 773.665 75.83L775.009 75.508C775.084 75.8907 775.21 76.194 775.387 76.418C775.565 76.642 775.784 76.8007 776.045 76.894C776.316 76.9873 776.605 77.034 776.913 77.034C777.371 77.034 777.721 76.9453 777.963 76.768C778.215 76.5907 778.341 76.362 778.341 76.082C778.341 75.802 778.225 75.5967 777.991 75.466C777.758 75.3353 777.413 75.228 776.955 75.144L776.479 75.06C776.013 74.976 775.588 74.8547 775.205 74.696C774.823 74.5373 774.519 74.318 774.295 74.038C774.071 73.758 773.959 73.3987 773.959 72.96C773.959 72.3067 774.202 71.8027 774.687 71.448C775.173 71.084 775.817 70.902 776.619 70.902C777.394 70.902 778.029 71.0793 778.523 71.434C779.027 71.7793 779.354 72.2507 779.503 72.848L778.159 73.226C778.075 72.806 777.898 72.512 777.627 72.344C777.357 72.1667 777.021 72.078 776.619 72.078C776.227 72.078 775.919 72.1527 775.695 72.302C775.471 72.442 775.359 72.6427 775.359 72.904C775.359 73.184 775.467 73.3893 775.681 73.52C775.905 73.6507 776.204 73.7487 776.577 73.814L777.067 73.898C777.562 73.982 778.015 74.0987 778.425 74.248C778.836 74.3973 779.158 74.612 779.391 74.892C779.634 75.172 779.755 75.5453 779.755 76.012C779.755 76.7027 779.499 77.2393 778.985 77.622C778.472 78.0047 777.781 78.196 776.913 78.196ZM784.605 78.196C783.905 78.196 783.294 78.0513 782.771 77.762C782.248 77.4633 781.838 77.048 781.539 76.516C781.25 75.9747 781.105 75.3493 781.105 74.64V74.472C781.105 73.7533 781.25 73.128 781.539 72.596C781.828 72.0547 782.23 71.6393 782.743 71.35C783.266 71.0513 783.868 70.902 784.549 70.902C785.212 70.902 785.79 71.0513 786.285 71.35C786.789 71.6393 787.181 72.0453 787.461 72.568C787.741 73.0907 787.881 73.702 787.881 74.402V74.948H782.575C782.594 75.5547 782.794 76.04 783.177 76.404C783.569 76.7587 784.054 76.936 784.633 76.936C785.174 76.936 785.58 76.8147 785.851 76.572C786.131 76.3293 786.346 76.0493 786.495 75.732L787.685 76.348C787.554 76.6093 787.363 76.8847 787.111 77.174C786.868 77.4633 786.546 77.706 786.145 77.902C785.744 78.098 785.23 78.196 784.605 78.196ZM782.589 73.842H786.411C786.374 73.3193 786.187 72.9133 785.851 72.624C785.515 72.3253 785.076 72.176 784.535 72.176C783.994 72.176 783.55 72.3253 783.205 72.624C782.869 72.9133 782.664 73.3193 782.589 73.842ZM789.617 78V71.098H791.031V71.91H791.255C791.367 71.6207 791.544 71.4107 791.787 71.28C792.039 71.14 792.347 71.07 792.711 71.07H793.537V72.372H792.655C792.188 72.372 791.805 72.5027 791.507 72.764C791.208 73.016 791.059 73.408 791.059 73.94V78H789.617ZM796.627 78L794.303 71.098H795.829L797.663 76.936H797.887L799.721 71.098H801.247L798.923 78H796.627ZM805.564 78.196C804.864 78.196 804.253 78.0513 803.73 77.762C803.207 77.4633 802.797 77.048 802.498 76.516C802.209 75.9747 802.064 75.3493 802.064 74.64V74.472C802.064 73.7533 802.209 73.128 802.498 72.596C802.787 72.0547 803.189 71.6393 803.702 71.35C804.225 71.0513 804.827 70.902 805.508 70.902C806.171 70.902 806.749 71.0513 807.244 71.35C807.748 71.6393 808.14 72.0453 808.42 72.568C808.7 73.0907 808.84 73.702 808.84 74.402V74.948H803.534C803.553 75.5547 803.753 76.04 804.136 76.404C804.528 76.7587 805.013 76.936 805.592 76.936C806.133 76.936 806.539 76.8147 806.81 76.572C807.09 76.3293 807.305 76.0493 807.454 75.732L808.644 76.348C808.513 76.6093 808.322 76.8847 808.07 77.174C807.827 77.4633 807.505 77.706 807.104 77.902C806.703 78.098 806.189 78.196 805.564 78.196ZM803.548 73.842H807.37C807.333 73.3193 807.146 72.9133 806.81 72.624C806.474 72.3253 806.035 72.176 805.494 72.176C804.953 72.176 804.509 72.3253 804.164 72.624C803.828 72.9133 803.623 73.3193 803.548 73.842ZM811.444 78.196C811.117 78.196 810.842 78.0887 810.618 77.874C810.403 77.6593 810.296 77.384 810.296 77.048C810.296 76.712 810.403 76.4413 810.618 76.236C810.842 76.0213 811.117 75.914 811.444 75.914C811.77 75.914 812.041 76.0213 812.256 76.236C812.48 76.4507 812.592 76.7213 812.592 77.048C812.592 77.384 812.48 77.6593 812.256 77.874C812.041 78.0887 811.77 78.196 811.444 78.196ZM811.444 73.198C811.117 73.198 810.842 73.0907 810.618 72.876C810.403 72.6613 810.296 72.386 810.296 72.05C810.296 71.714 810.403 71.4433 810.618 71.238C810.842 71.0233 811.117 70.916 811.444 70.916C811.77 70.916 812.041 71.0233 812.256 71.238C812.48 71.4527 812.592 71.7233 812.592 72.05C812.592 72.386 812.48 72.6613 812.256 72.876C812.041 73.0907 811.77 73.198 811.444 73.198ZM820.547 78V69.236H820.323L818.713 72.54H817.159L819.329 68.2H822.017V78H820.547ZM827.541 78.196C826.403 78.196 825.493 77.874 824.811 77.23C824.139 76.5767 823.803 75.5967 823.803 74.29V71.91C823.803 70.6313 824.139 69.6607 824.811 68.998C825.493 68.3353 826.403 68.004 827.541 68.004C828.689 68.004 829.599 68.3353 830.271 68.998C830.953 69.6607 831.293 70.6313 831.293 71.91V74.29C831.293 75.5967 830.953 76.5767 830.271 77.23C829.599 77.874 828.689 78.196 827.541 78.196ZM827.541 76.88C828.316 76.88 828.89 76.6607 829.263 76.222C829.637 75.774 829.823 75.1487 829.823 74.346V71.826C829.823 71.0233 829.623 70.4073 829.221 69.978C828.82 69.5393 828.26 69.32 827.541 69.32C826.813 69.32 826.253 69.544 825.861 69.992C825.469 70.4307 825.273 71.042 825.273 71.826V74.346C825.273 75.1673 825.46 75.7973 825.833 76.236C826.216 76.6653 826.785 76.88 827.541 76.88ZM834.031 78.182L833.135 77.454L840.793 68.018L841.689 68.746L834.031 78.182ZM840.093 78.154C839.402 78.154 838.856 77.9627 838.455 77.58C838.053 77.188 837.853 76.6607 837.853 75.998V75.914C837.853 75.242 838.053 74.7147 838.455 74.332C838.856 73.94 839.402 73.744 840.093 73.744C840.774 73.744 841.32 73.94 841.731 74.332C842.141 74.7147 842.347 75.242 842.347 75.914V75.998C842.347 76.6607 842.141 77.188 841.731 77.58C841.329 77.9627 840.783 78.154 840.093 78.154ZM840.093 77.174C840.429 77.174 840.69 77.0713 840.877 76.866C841.073 76.6607 841.171 76.39 841.171 76.054V75.858C841.171 75.5127 841.073 75.2373 840.877 75.032C840.69 74.8267 840.429 74.724 840.093 74.724C839.766 74.724 839.505 74.8267 839.309 75.032C839.122 75.2373 839.029 75.5127 839.029 75.858V76.054C839.029 76.39 839.122 76.6607 839.309 76.866C839.505 77.0713 839.766 77.174 840.093 77.174ZM834.731 72.456C834.04 72.456 833.489 72.2647 833.079 71.882C832.677 71.49 832.477 70.9627 832.477 70.3V70.202C832.477 69.53 832.677 69.0027 833.079 68.62C833.489 68.2373 834.04 68.046 834.731 68.046C835.412 68.046 835.953 68.2373 836.355 68.62C836.765 69.0027 836.971 69.53 836.971 70.202V70.3C836.971 70.9627 836.77 71.49 836.369 71.882C835.967 72.2647 835.421 72.456 834.731 72.456ZM834.731 71.476C835.057 71.476 835.314 71.3733 835.501 71.168C835.697 70.9533 835.795 70.678 835.795 70.342V70.146C835.795 69.81 835.697 69.5393 835.501 69.334C835.314 69.1287 835.057 69.026 834.731 69.026C834.395 69.026 834.129 69.1287 833.933 69.334C833.746 69.5393 833.653 69.81 833.653 70.146V70.342C833.653 70.678 833.746 70.9533 833.933 71.168C834.129 71.3733 834.395 71.476 834.731 71.476Z" fill="white"/>
<rect x="756" y="135" width="65" height="23" rx="11.5" fill="#FF9E40"/>
<path d="M757.022 129V119.2H760.914C761.511 119.2 762.043 119.321 762.51 119.564C762.986 119.797 763.355 120.133 763.616 120.572C763.887 121.001 764.022 121.519 764.022 122.126V122.308C764.022 122.915 763.882 123.437 763.602 123.876C763.331 124.315 762.963 124.651 762.496 124.884C762.029 125.117 761.502 125.234 760.914 125.234H758.534V129H757.022ZM758.534 123.862H760.76C761.292 123.862 761.717 123.722 762.034 123.442C762.351 123.162 762.51 122.779 762.51 122.294V122.154C762.51 121.659 762.351 121.272 762.034 120.992C761.717 120.712 761.292 120.572 760.76 120.572H758.534V123.862ZM767.491 129.196C766.996 129.196 766.553 129.112 766.161 128.944C765.778 128.776 765.47 128.529 765.237 128.202C765.013 127.875 764.901 127.479 764.901 127.012C764.901 126.536 765.013 126.144 765.237 125.836C765.47 125.519 765.783 125.281 766.175 125.122C766.576 124.963 767.029 124.884 767.533 124.884H769.633V124.436C769.633 124.035 769.512 123.713 769.269 123.47C769.026 123.227 768.653 123.106 768.149 123.106C767.654 123.106 767.276 123.223 767.015 123.456C766.754 123.689 766.581 123.993 766.497 124.366L765.153 123.932C765.265 123.559 765.442 123.223 765.685 122.924C765.937 122.616 766.268 122.369 766.679 122.182C767.09 121.995 767.584 121.902 768.163 121.902C769.059 121.902 769.764 122.131 770.277 122.588C770.79 123.045 771.047 123.694 771.047 124.534V127.376C771.047 127.656 771.178 127.796 771.439 127.796H772.027V129H770.949C770.622 129 770.356 128.916 770.151 128.748C769.946 128.58 769.843 128.351 769.843 128.062V128.02H769.633C769.558 128.16 769.446 128.323 769.297 128.51C769.148 128.697 768.928 128.86 768.639 129C768.35 129.131 767.967 129.196 767.491 129.196ZM767.701 128.006C768.28 128.006 768.746 127.843 769.101 127.516C769.456 127.18 769.633 126.723 769.633 126.144V126.004H767.617C767.234 126.004 766.926 126.088 766.693 126.256C766.46 126.415 766.343 126.653 766.343 126.97C766.343 127.287 766.464 127.539 766.707 127.726C766.95 127.913 767.281 128.006 767.701 128.006ZM773.429 129V122.098H774.843V122.91H775.067C775.179 122.621 775.357 122.411 775.599 122.28C775.851 122.14 776.159 122.07 776.523 122.07H777.349V123.372H776.467C776.001 123.372 775.618 123.503 775.319 123.764C775.021 124.016 774.871 124.408 774.871 124.94V129H773.429ZM781.433 129C781.013 129 780.677 128.874 780.425 128.622C780.183 128.37 780.061 128.034 780.061 127.614V123.316H778.157V122.098H780.061V119.816H781.503V122.098H783.561V123.316H781.503V127.362C781.503 127.642 781.634 127.782 781.895 127.782H783.337V129H781.433ZM785.255 129V122.098H786.669V123.134H786.893C787.024 122.854 787.257 122.593 787.593 122.35C787.929 122.107 788.429 121.986 789.091 121.986C789.614 121.986 790.076 122.103 790.477 122.336C790.888 122.569 791.21 122.901 791.443 123.33C791.677 123.75 791.793 124.259 791.793 124.856V129H790.351V124.968C790.351 124.371 790.202 123.932 789.903 123.652C789.605 123.363 789.194 123.218 788.671 123.218C788.074 123.218 787.593 123.414 787.229 123.806C786.875 124.198 786.697 124.767 786.697 125.514V129H785.255ZM797.033 129.196C796.333 129.196 795.721 129.051 795.199 128.762C794.676 128.463 794.265 128.048 793.967 127.516C793.677 126.975 793.533 126.349 793.533 125.64V125.472C793.533 124.753 793.677 124.128 793.967 123.596C794.256 123.055 794.657 122.639 795.171 122.35C795.693 122.051 796.295 121.902 796.977 121.902C797.639 121.902 798.218 122.051 798.713 122.35C799.217 122.639 799.609 123.045 799.889 123.568C800.169 124.091 800.309 124.702 800.309 125.402V125.948H795.003C795.021 126.555 795.222 127.04 795.605 127.404C795.997 127.759 796.482 127.936 797.061 127.936C797.602 127.936 798.008 127.815 798.279 127.572C798.559 127.329 798.773 127.049 798.923 126.732L800.113 127.348C799.982 127.609 799.791 127.885 799.539 128.174C799.296 128.463 798.974 128.706 798.573 128.902C798.171 129.098 797.658 129.196 797.033 129.196ZM795.017 124.842H798.839C798.801 124.319 798.615 123.913 798.279 123.624C797.943 123.325 797.504 123.176 796.963 123.176C796.421 123.176 795.978 123.325 795.633 123.624C795.297 123.913 795.091 124.319 795.017 124.842ZM802.044 129V122.098H803.458V122.91H803.682C803.794 122.621 803.972 122.411 804.214 122.28C804.466 122.14 804.774 122.07 805.138 122.07H805.964V123.372H805.082C804.616 123.372 804.233 123.503 803.934 123.764C803.636 124.016 803.486 124.408 803.486 124.94V129H802.044ZM808.327 129.196C808 129.196 807.725 129.089 807.501 128.874C807.286 128.659 807.179 128.384 807.179 128.048C807.179 127.712 807.286 127.441 807.501 127.236C807.725 127.021 808 126.914 808.327 126.914C808.653 126.914 808.924 127.021 809.139 127.236C809.363 127.451 809.475 127.721 809.475 128.048C809.475 128.384 809.363 128.659 809.139 128.874C808.924 129.089 808.653 129.196 808.327 129.196ZM808.327 124.198C808 124.198 807.725 124.091 807.501 123.876C807.286 123.661 807.179 123.386 807.179 123.05C807.179 122.714 807.286 122.443 807.501 122.238C807.725 122.023 808 121.916 808.327 121.916C808.653 121.916 808.924 122.023 809.139 122.238C809.363 122.453 809.475 122.723 809.475 123.05C809.475 123.386 809.363 123.661 809.139 123.876C808.924 124.091 808.653 124.198 808.327 124.198ZM817.43 129V120.236H817.206L815.596 123.54H814.042L816.212 119.2H818.9V129H817.43ZM824.424 129.196C823.285 129.196 822.375 128.874 821.694 128.23C821.022 127.577 820.686 126.597 820.686 125.29V122.91C820.686 121.631 821.022 120.661 821.694 119.998C822.375 119.335 823.285 119.004 824.424 119.004C825.572 119.004 826.482 119.335 827.154 119.998C827.835 120.661 828.176 121.631 828.176 122.91V125.29C828.176 126.597 827.835 127.577 827.154 128.23C826.482 128.874 825.572 129.196 824.424 129.196ZM824.424 127.88C825.199 127.88 825.773 127.661 826.146 127.222C826.519 126.774 826.706 126.149 826.706 125.346V122.826C826.706 122.023 826.505 121.407 826.104 120.978C825.703 120.539 825.143 120.32 824.424 120.32C823.696 120.32 823.136 120.544 822.744 120.992C822.352 121.431 822.156 122.042 822.156 122.826V125.346C822.156 126.167 822.343 126.797 822.716 127.236C823.099 127.665 823.668 127.88 824.424 127.88ZM830.913 129.182L830.017 128.454L837.675 119.018L838.571 119.746L830.913 129.182ZM836.975 129.154C836.285 129.154 835.739 128.963 835.337 128.58C834.936 128.188 834.735 127.661 834.735 126.998V126.914C834.735 126.242 834.936 125.715 835.337 125.332C835.739 124.94 836.285 124.744 836.975 124.744C837.657 124.744 838.203 124.94 838.613 125.332C839.024 125.715 839.229 126.242 839.229 126.914V126.998C839.229 127.661 839.024 128.188 838.613 128.58C838.212 128.963 837.666 129.154 836.975 129.154ZM836.975 128.174C837.311 128.174 837.573 128.071 837.759 127.866C837.955 127.661 838.053 127.39 838.053 127.054V126.858C838.053 126.513 837.955 126.237 837.759 126.032C837.573 125.827 837.311 125.724 836.975 125.724C836.649 125.724 836.387 125.827 836.191 126.032C836.005 126.237 835.911 126.513 835.911 126.858V127.054C835.911 127.39 836.005 127.661 836.191 127.866C836.387 128.071 836.649 128.174 836.975 128.174ZM831.613 123.456C830.923 123.456 830.372 123.265 829.961 122.882C829.56 122.49 829.359 121.963 829.359 121.3V121.202C829.359 120.53 829.56 120.003 829.961 119.62C830.372 119.237 830.923 119.046 831.613 119.046C832.295 119.046 832.836 119.237 833.237 119.62C833.648 120.003 833.853 120.53 833.853 121.202V121.3C833.853 121.963 833.653 122.49 833.251 122.882C832.85 123.265 832.304 123.456 831.613 123.456ZM831.613 122.476C831.94 122.476 832.197 122.373 832.383 122.168C832.579 121.953 832.677 121.678 832.677 121.342V121.146C832.677 120.81 832.579 120.539 832.383 120.334C832.197 120.129 831.94 120.026 831.613 120.026C831.277 120.026 831.011 120.129 830.815 120.334C830.629 120.539 830.535 120.81 830.535 121.146V121.342C830.535 121.678 830.629 121.953 830.815 122.168C831.011 122.373 831.277 122.476 831.613 122.476Z" fill="white"/>
<rect x="756" y="186" width="65" height="23" rx="11.5" fill="#FFCD56"/>
<path d="M759.36 180V171.572H756.35V170.2H763.882V171.572H760.872V180H759.36ZM767.105 180.196C766.405 180.196 765.794 180.051 765.271 179.762C764.748 179.463 764.338 179.048 764.039 178.516C763.75 177.975 763.605 177.349 763.605 176.64V176.472C763.605 175.753 763.75 175.128 764.039 174.596C764.328 174.055 764.73 173.639 765.243 173.35C765.766 173.051 766.368 172.902 767.049 172.902C767.712 172.902 768.29 173.051 768.785 173.35C769.289 173.639 769.681 174.045 769.961 174.568C770.241 175.091 770.381 175.702 770.381 176.402V176.948H765.075C765.094 177.555 765.294 178.04 765.677 178.404C766.069 178.759 766.554 178.936 767.133 178.936C767.674 178.936 768.08 178.815 768.351 178.572C768.631 178.329 768.846 178.049 768.995 177.732L770.185 178.348C770.054 178.609 769.863 178.885 769.611 179.174C769.368 179.463 769.046 179.706 768.645 179.902C768.244 180.098 767.73 180.196 767.105 180.196ZM765.089 175.842H768.911C768.874 175.319 768.687 174.913 768.351 174.624C768.015 174.325 767.576 174.176 767.035 174.176C766.494 174.176 766.05 174.325 765.705 174.624C765.369 174.913 765.164 175.319 765.089 175.842ZM774.259 180.196C773.764 180.196 773.321 180.112 772.929 179.944C772.546 179.776 772.238 179.529 772.005 179.202C771.781 178.875 771.669 178.479 771.669 178.012C771.669 177.536 771.781 177.144 772.005 176.836C772.238 176.519 772.551 176.281 772.943 176.122C773.344 175.963 773.797 175.884 774.301 175.884H776.401V175.436C776.401 175.035 776.279 174.713 776.037 174.47C775.794 174.227 775.421 174.106 774.917 174.106C774.422 174.106 774.044 174.223 773.783 174.456C773.521 174.689 773.349 174.993 773.265 175.366L771.921 174.932C772.033 174.559 772.21 174.223 772.453 173.924C772.705 173.616 773.036 173.369 773.447 173.182C773.857 172.995 774.352 172.902 774.931 172.902C775.827 172.902 776.531 173.131 777.045 173.588C777.558 174.045 777.815 174.694 777.815 175.534V178.376C777.815 178.656 777.945 178.796 778.207 178.796H778.795V180H777.717C777.39 180 777.124 179.916 776.919 179.748C776.713 179.58 776.611 179.351 776.611 179.062V179.02H776.401C776.326 179.16 776.214 179.323 776.065 179.51C775.915 179.697 775.696 179.86 775.407 180C775.117 180.131 774.735 180.196 774.259 180.196ZM774.469 179.006C775.047 179.006 775.514 178.843 775.869 178.516C776.223 178.18 776.401 177.723 776.401 177.144V177.004H774.385C774.002 177.004 773.694 177.088 773.461 177.256C773.227 177.415 773.111 177.653 773.111 177.97C773.111 178.287 773.232 178.539 773.475 178.726C773.717 178.913 774.049 179.006 774.469 179.006ZM780.197 180V173.098H781.611V173.91H781.835C781.965 173.667 782.175 173.453 782.465 173.266C782.754 173.079 783.146 172.986 783.641 172.986C784.154 172.986 784.565 173.093 784.873 173.308C785.19 173.513 785.428 173.779 785.587 174.106H785.811C785.969 173.789 786.198 173.523 786.497 173.308C786.805 173.093 787.239 172.986 787.799 172.986C788.247 172.986 788.643 173.079 788.989 173.266C789.334 173.443 789.609 173.714 789.815 174.078C790.02 174.433 790.123 174.876 790.123 175.408V180H788.681V175.52C788.681 175.1 788.564 174.778 788.331 174.554C788.107 174.321 787.785 174.204 787.365 174.204C786.917 174.204 786.557 174.349 786.287 174.638C786.016 174.927 785.881 175.343 785.881 175.884V180H784.439V175.52C784.439 175.1 784.322 174.778 784.089 174.554C783.865 174.321 783.543 174.204 783.123 174.204C782.675 174.204 782.315 174.349 782.045 174.638C781.774 174.927 781.639 175.343 781.639 175.884V180H780.197ZM793.069 180.196C792.742 180.196 792.467 180.089 792.243 179.874C792.028 179.659 791.921 179.384 791.921 179.048C791.921 178.712 792.028 178.441 792.243 178.236C792.467 178.021 792.742 177.914 793.069 177.914C793.395 177.914 793.666 178.021 793.881 178.236C794.105 178.451 794.217 178.721 794.217 179.048C794.217 179.384 794.105 179.659 793.881 179.874C793.666 180.089 793.395 180.196 793.069 180.196ZM793.069 175.198C792.742 175.198 792.467 175.091 792.243 174.876C792.028 174.661 791.921 174.386 791.921 174.05C791.921 173.714 792.028 173.443 792.243 173.238C792.467 173.023 792.742 172.916 793.069 172.916C793.395 172.916 793.666 173.023 793.881 173.238C794.105 173.453 794.217 173.723 794.217 174.05C794.217 174.386 794.105 174.661 793.881 174.876C793.666 175.091 793.395 175.198 793.069 175.198ZM802.172 180V171.236H801.948L800.338 174.54H798.784L800.954 170.2H803.642V180H802.172ZM809.166 180.196C808.028 180.196 807.118 179.874 806.436 179.23C805.764 178.577 805.428 177.597 805.428 176.29V173.91C805.428 172.631 805.764 171.661 806.436 170.998C807.118 170.335 808.028 170.004 809.166 170.004C810.314 170.004 811.224 170.335 811.896 170.998C812.578 171.661 812.918 172.631 812.918 173.91V176.29C812.918 177.597 812.578 178.577 811.896 179.23C811.224 179.874 810.314 180.196 809.166 180.196ZM809.166 178.88C809.941 178.88 810.515 178.661 810.888 178.222C811.262 177.774 811.448 177.149 811.448 176.346V173.826C811.448 173.023 811.248 172.407 810.846 171.978C810.445 171.539 809.885 171.32 809.166 171.32C808.438 171.32 807.878 171.544 807.486 171.992C807.094 172.431 806.898 173.042 806.898 173.826V176.346C806.898 177.167 807.085 177.797 807.458 178.236C807.841 178.665 808.41 178.88 809.166 178.88ZM815.656 180.182L814.76 179.454L822.418 170.018L823.314 170.746L815.656 180.182ZM821.718 180.154C821.027 180.154 820.481 179.963 820.08 179.58C819.678 179.188 819.478 178.661 819.478 177.998V177.914C819.478 177.242 819.678 176.715 820.08 176.332C820.481 175.94 821.027 175.744 821.718 175.744C822.399 175.744 822.945 175.94 823.356 176.332C823.766 176.715 823.972 177.242 823.972 177.914V177.998C823.972 178.661 823.766 179.188 823.356 179.58C822.954 179.963 822.408 180.154 821.718 180.154ZM821.718 179.174C822.054 179.174 822.315 179.071 822.502 178.866C822.698 178.661 822.796 178.39 822.796 178.054V177.858C822.796 177.513 822.698 177.237 822.502 177.032C822.315 176.827 822.054 176.724 821.718 176.724C821.391 176.724 821.13 176.827 820.934 177.032C820.747 177.237 820.654 177.513 820.654 177.858V178.054C820.654 178.39 820.747 178.661 820.934 178.866C821.13 179.071 821.391 179.174 821.718 179.174ZM816.356 174.456C815.665 174.456 815.114 174.265 814.704 173.882C814.302 173.49 814.102 172.963 814.102 172.3V172.202C814.102 171.53 814.302 171.003 814.704 170.62C815.114 170.237 815.665 170.046 816.356 170.046C817.037 170.046 817.578 170.237 817.98 170.62C818.39 171.003 818.596 171.53 818.596 172.202V172.3C818.596 172.963 818.395 173.49 817.994 173.882C817.592 174.265 817.046 174.456 816.356 174.456ZM816.356 173.476C816.682 173.476 816.939 173.373 817.126 173.168C817.322 172.953 817.42 172.678 817.42 172.342V172.146C817.42 171.81 817.322 171.539 817.126 171.334C816.939 171.129 816.682 171.026 816.356 171.026C816.02 171.026 815.754 171.129 815.558 171.334C815.371 171.539 815.278 171.81 815.278 172.146V172.342C815.278 172.678 815.371 172.953 815.558 173.168C815.754 173.373 816.02 173.476 816.356 173.476Z" fill="white"/>
<rect x="756" y="237" width="33" height="23" rx="11.5" fill="#4CC0C0"/>
<path d="M757.022 231V221.2H759.864L762.006 229.992H762.23L764.372 221.2H767.214V231H765.744V222.264H765.52L763.392 231H760.844L758.716 222.264H758.492V231H757.022ZM771.442 231.196C770.948 231.196 770.504 231.112 770.112 230.944C769.73 230.776 769.422 230.529 769.188 230.202C768.964 229.875 768.852 229.479 768.852 229.012C768.852 228.536 768.964 228.144 769.188 227.836C769.422 227.519 769.734 227.281 770.126 227.122C770.528 226.963 770.98 226.884 771.484 226.884H773.584V226.436C773.584 226.035 773.463 225.713 773.22 225.47C772.978 225.227 772.604 225.106 772.1 225.106C771.606 225.106 771.228 225.223 770.966 225.456C770.705 225.689 770.532 225.993 770.448 226.366L769.104 225.932C769.216 225.559 769.394 225.223 769.636 224.924C769.888 224.616 770.22 224.369 770.63 224.182C771.041 223.995 771.536 223.902 772.114 223.902C773.01 223.902 773.715 224.131 774.228 224.588C774.742 225.045 774.998 225.694 774.998 226.534V229.376C774.998 229.656 775.129 229.796 775.39 229.796H775.978V231H774.9C774.574 231 774.308 230.916 774.102 230.748C773.897 230.58 773.794 230.351 773.794 230.062V230.02H773.584C773.51 230.16 773.398 230.323 773.248 230.51C773.099 230.697 772.88 230.86 772.59 231C772.301 231.131 771.918 231.196 771.442 231.196ZM771.652 230.006C772.231 230.006 772.698 229.843 773.052 229.516C773.407 229.18 773.584 228.723 773.584 228.144V228.004H771.568C771.186 228.004 770.878 228.088 770.644 228.256C770.411 228.415 770.294 228.653 770.294 228.97C770.294 229.287 770.416 229.539 770.658 229.726C770.901 229.913 771.232 230.006 771.652 230.006ZM777.38 231V224.098H778.794V224.91H779.018C779.13 224.621 779.308 224.411 779.55 224.28C779.802 224.14 780.11 224.07 780.474 224.07H781.3V225.372H780.418C779.952 225.372 779.569 225.503 779.27 225.764C778.972 226.016 778.822 226.408 778.822 226.94V231H777.38ZM782.794 231V221.2H784.236V226.786H784.46L787.176 224.098H789.094L785.608 227.444L789.206 231H787.302L784.46 228.13H784.236V231H782.794ZM793.273 231.196C792.573 231.196 791.962 231.051 791.439 230.762C790.916 230.463 790.506 230.048 790.207 229.516C789.918 228.975 789.773 228.349 789.773 227.64V227.472C789.773 226.753 789.918 226.128 790.207 225.596C790.496 225.055 790.898 224.639 791.411 224.35C791.934 224.051 792.536 223.902 793.217 223.902C793.88 223.902 794.458 224.051 794.953 224.35C795.457 224.639 795.849 225.045 796.129 225.568C796.409 226.091 796.549 226.702 796.549 227.402V227.948H791.243C791.262 228.555 791.462 229.04 791.845 229.404C792.237 229.759 792.722 229.936 793.301 229.936C793.842 229.936 794.248 229.815 794.519 229.572C794.799 229.329 795.014 229.049 795.163 228.732L796.353 229.348C796.222 229.609 796.031 229.885 795.779 230.174C795.536 230.463 795.214 230.706 794.813 230.902C794.412 231.098 793.898 231.196 793.273 231.196ZM791.257 226.842H795.079C795.042 226.319 794.855 225.913 794.519 225.624C794.183 225.325 793.744 225.176 793.203 225.176C792.662 225.176 792.218 225.325 791.873 225.624C791.537 225.913 791.332 226.319 791.257 226.842ZM800.615 231C800.195 231 799.859 230.874 799.607 230.622C799.364 230.37 799.243 230.034 799.243 229.614V225.316H797.339V224.098H799.243V221.816H800.685V224.098H802.743V225.316H800.685V229.362C800.685 229.642 800.816 229.782 801.077 229.782H802.519V231H800.615ZM804.437 231V224.098H805.879V231H804.437ZM805.165 223.16C804.885 223.16 804.647 223.071 804.451 222.894C804.264 222.707 804.171 222.469 804.171 222.18C804.171 221.891 804.264 221.657 804.451 221.48C804.647 221.293 804.885 221.2 805.165 221.2C805.454 221.2 805.692 221.293 805.879 221.48C806.066 221.657 806.159 221.891 806.159 222.18C806.159 222.469 806.066 222.707 805.879 222.894C805.692 223.071 805.454 223.16 805.165 223.16ZM808.019 231V224.098H809.433V225.134H809.657C809.788 224.854 810.021 224.593 810.357 224.35C810.693 224.107 811.192 223.986 811.855 223.986C812.378 223.986 812.84 224.103 813.241 224.336C813.652 224.569 813.974 224.901 814.207 225.33C814.44 225.75 814.557 226.259 814.557 226.856V231H813.115V226.968C813.115 226.371 812.966 225.932 812.667 225.652C812.368 225.363 811.958 225.218 811.435 225.218C810.838 225.218 810.357 225.414 809.993 225.806C809.638 226.198 809.461 226.767 809.461 227.514V231H808.019ZM816.296 227.584V227.374C816.296 226.646 816.441 226.025 816.73 225.512C817.029 224.999 817.421 224.602 817.906 224.322C818.392 224.042 818.924 223.902 819.502 223.902C820.174 223.902 820.688 224.028 821.042 224.28C821.406 224.532 821.672 224.803 821.84 225.092H822.064V224.098H823.464V232.414C823.464 232.834 823.338 233.17 823.086 233.422C822.844 233.674 822.508 233.8 822.078 233.8H817.43V232.54H821.63C821.901 232.54 822.036 232.4 822.036 232.12V229.922H821.812C821.71 230.09 821.565 230.263 821.378 230.44C821.192 230.617 820.944 230.762 820.636 230.874C820.338 230.986 819.96 231.042 819.502 231.042C818.924 231.042 818.387 230.907 817.892 230.636C817.407 230.356 817.02 229.959 816.73 229.446C816.441 228.923 816.296 228.303 816.296 227.584ZM819.894 229.782C820.52 229.782 821.033 229.586 821.434 229.194C821.845 228.793 822.05 228.242 822.05 227.542V227.416C822.05 226.697 821.85 226.147 821.448 225.764C821.047 225.372 820.529 225.176 819.894 225.176C819.278 225.176 818.765 225.372 818.354 225.764C817.953 226.147 817.752 226.697 817.752 227.416V227.542C817.752 228.242 817.953 228.793 818.354 229.194C818.765 229.586 819.278 229.782 819.894 229.782ZM826.455 231.196C826.129 231.196 825.853 231.089 825.629 230.874C825.415 230.659 825.307 230.384 825.307 230.048C825.307 229.712 825.415 229.441 825.629 229.236C825.853 229.021 826.129 228.914 826.455 228.914C826.782 228.914 827.053 229.021 827.267 229.236C827.491 229.451 827.603 229.721 827.603 230.048C827.603 230.384 827.491 230.659 827.267 230.874C827.053 231.089 826.782 231.196 826.455 231.196ZM826.455 226.198C826.129 226.198 825.853 226.091 825.629 225.876C825.415 225.661 825.307 225.386 825.307 225.05C825.307 224.714 825.415 224.443 825.629 224.238C825.853 224.023 826.129 223.916 826.455 223.916C826.782 223.916 827.053 224.023 827.267 224.238C827.491 224.453 827.603 224.723 827.603 225.05C827.603 225.386 827.491 225.661 827.267 225.876C827.053 226.091 826.782 226.198 826.455 226.198ZM836.189 231.196C835.452 231.196 834.812 231.061 834.271 230.79C833.73 230.519 833.31 230.137 833.011 229.642C832.722 229.147 832.577 228.573 832.577 227.92V227.766H834.075V227.906C834.075 228.503 834.257 228.984 834.621 229.348C834.994 229.703 835.512 229.88 836.175 229.88C836.856 229.88 837.384 229.693 837.757 229.32C838.13 228.947 838.317 228.443 838.317 227.808V227.682C838.317 227.075 838.13 226.59 837.757 226.226C837.393 225.862 836.926 225.68 836.357 225.68C836.04 225.68 835.774 225.731 835.559 225.834C835.354 225.927 835.186 226.044 835.055 226.184C834.934 226.324 834.831 226.459 834.747 226.59H832.885V221.2H839.451V222.53H834.355V225.414H834.579C834.672 225.255 834.803 225.106 834.971 224.966C835.148 224.817 835.377 224.695 835.657 224.602C835.937 224.509 836.273 224.462 836.665 224.462C837.244 224.462 837.766 224.588 838.233 224.84C838.709 225.083 839.087 225.447 839.367 225.932C839.647 226.408 839.787 226.987 839.787 227.668V227.822C839.787 228.503 839.642 229.096 839.353 229.6C839.064 230.104 838.648 230.496 838.107 230.776C837.575 231.056 836.936 231.196 836.189 231.196ZM842.316 231.182L841.42 230.454L849.078 221.018L849.974 221.746L842.316 231.182ZM848.378 231.154C847.687 231.154 847.141 230.963 846.74 230.58C846.338 230.188 846.138 229.661 846.138 228.998V228.914C846.138 228.242 846.338 227.715 846.74 227.332C847.141 226.94 847.687 226.744 848.378 226.744C849.059 226.744 849.605 226.94 850.016 227.332C850.426 227.715 850.632 228.242 850.632 228.914V228.998C850.632 229.661 850.426 230.188 850.016 230.58C849.614 230.963 849.068 231.154 848.378 231.154ZM848.378 230.174C848.714 230.174 848.975 230.071 849.162 229.866C849.358 229.661 849.456 229.39 849.456 229.054V228.858C849.456 228.513 849.358 228.237 849.162 228.032C848.975 227.827 848.714 227.724 848.378 227.724C848.051 227.724 847.79 227.827 847.594 228.032C847.407 228.237 847.314 228.513 847.314 228.858V229.054C847.314 229.39 847.407 229.661 847.594 229.866C847.79 230.071 848.051 230.174 848.378 230.174ZM843.016 225.456C842.325 225.456 841.774 225.265 841.364 224.882C840.962 224.49 840.762 223.963 840.762 223.3V223.202C840.762 222.53 840.962 222.003 841.364 221.62C841.774 221.237 842.325 221.046 843.016 221.046C843.697 221.046 844.238 221.237 844.64 221.62C845.05 222.003 845.256 222.53 845.256 223.202V223.3C845.256 223.963 845.055 224.49 844.654 224.882C844.252 225.265 843.706 225.456 843.016 225.456ZM843.016 224.476C843.342 224.476 843.599 224.373 843.786 224.168C843.982 223.953 844.08 223.678 844.08 223.342V223.146C844.08 222.81 843.982 222.539 843.786 222.334C843.599 222.129 843.342 222.026 843.016 222.026C842.68 222.026 842.414 222.129 842.218 222.334C842.031 222.539 841.938 222.81 841.938 223.146V223.342C841.938 223.678 842.031 223.953 842.218 224.168C842.414 224.373 842.68 224.476 843.016 224.476Z" fill="white"/>
</svg>
