<svg width="33" height="33" viewBox="0 0 33 33" fill="none" xmlns="http://www.w3.org/2000/svg">
<path d="M7.21429 3.9751C5.16562 3.9751 3.5 5.64072 3.5 7.68938V26.2608C3.5 28.3095 5.16562 29.9751 7.21429 29.9751H25.7857C27.8344 29.9751 29.5 28.3095 29.5 26.2608V7.68938C29.5 5.64072 27.8344 3.9751 25.7857 3.9751H7.21429ZM24.4567 8.8501L18.4326 15.7331L25.5187 25.1001H19.9705L15.6295 19.4184L10.6558 25.1001H7.89911L14.3411 17.7354L7.54509 8.8501H13.2326L17.1616 14.0443L21.7 8.8501H24.4567ZM22.2629 23.4519L12.4027 10.4113H10.7603L20.7308 23.4519H22.2571H22.2629Z" fill="white"/>
</svg>
