<svg width="96" height="96" viewBox="0 0 96 96" fill="none" xmlns="http://www.w3.org/2000/svg">
<path d="M77.5524 18.2135H18.3184V72.0858H77.5524V18.2135Z" fill="white"/>
<path fill-rule="evenodd" clip-rule="evenodd" d="M95.9036 48C95.9036 74.4747 74.4421 95.9362 47.9674 95.9362C21.493 95.9362 0.03125 74.4747 0.03125 48C0.03125 21.5256 21.493 0.0638428 47.9674 0.0638428C74.4421 0.0638428 95.9036 21.5256 95.9036 48ZM34.3837 67.0762H25.0806C23.1258 67.0762 22.1601 67.0762 21.5714 66.6996C20.9354 66.2872 20.5468 65.6043 20.4997 64.8504C20.4644 64.156 20.9473 63.3078 21.9129 61.612L44.8833 21.1235C45.8607 19.4042 46.3553 18.5445 46.9794 18.2266C47.6506 17.8851 48.4514 17.8851 49.1227 18.2266C49.7468 18.5445 50.2414 19.4042 51.2188 21.1235L55.941 29.3668L55.9651 29.4088C57.0208 31.2533 57.5561 32.1887 57.7899 33.1704C58.0489 34.242 58.0489 35.3725 57.7899 36.4441C57.5543 37.4333 57.0244 38.3754 55.9528 40.2478L43.887 61.5767L43.8558 61.6314C42.7931 63.4911 42.2546 64.4336 41.5082 65.1447C40.6957 65.9221 39.7183 66.487 38.6466 66.8055C37.6692 67.0762 36.5741 67.0762 34.3837 67.0762ZM57.877 67.0762H71.2072C73.1738 67.0762 74.1632 67.0762 74.7523 66.6881C75.3881 66.2758 75.7883 65.5807 75.824 64.8275C75.8578 64.1553 75.3855 63.3402 74.46 61.743C74.4281 61.6886 74.3961 61.6333 74.3636 61.577L67.6864 50.1543L67.6104 50.0257C66.6721 48.439 66.1985 47.6377 65.5902 47.328C64.9193 46.9865 64.1298 46.9865 63.4588 47.328C62.8465 47.6459 62.3519 48.4821 61.3745 50.166L54.721 61.5888L54.6982 61.6281C53.7242 63.3094 53.2375 64.1496 53.2726 64.839C53.3197 65.5928 53.7083 66.2872 54.3441 66.6996C54.9212 67.0762 55.9104 67.0762 57.877 67.0762Z" fill="#E84142"/>
</svg>
