<svg width="96" height="96" viewBox="0 0 96 96" fill="none" xmlns="http://www.w3.org/2000/svg">
	<g clip-path="url(#clip0_482_194)">
		<path d="M96 48C96 57.4935 93.1849 66.7738 87.9106 74.6674C82.6363 82.5609 75.1397 88.7132 66.3688 92.3462C57.598 95.9792 47.9468 96.9298 38.6357 95.0777C29.3246 93.2256 20.7718 88.6541 14.0589 81.9411C7.34598 75.2282 2.77442 66.6754 0.922328 57.3643C-0.929763 48.0533 0.0207975 38.4021 3.6538 29.6312C7.28681 20.8603 13.4391 13.3638 21.3327 8.08946C29.2262 2.81515 38.5065 0 48 0C60.7304 0 72.9394 5.05713 81.9412 14.0589C90.9429 23.0606 96 35.2696 96 48Z" fill="#1F4CEB"/>
		<g clip-path="url(#clip1_482_194)">
			<path d="M48.1709 73.9636C62.6568 73.9636 74.3988 62.2425 74.3988 47.7818C74.3988 33.3211 62.6568 21.6 48.1709 21.6C34.4286 21.6 23.1557 32.1523 22.0352 45.5804H56.702V49.9832H22.0352C23.1557 63.4113 34.4286 73.9636 48.1709 73.9636Z" fill="#F7F7F7"/>
		</g>
	</g>
	<defs>
		<clipPath id="clip0_482_194">
			<rect width="96" height="96" fill="white"/>
		</clipPath>
		<clipPath id="clip1_482_194">
			<rect width="52.3636" height="52.3636" fill="white" transform="translate(22.0371 21.6)"/>
		</clipPath>
	</defs>
</svg>
