<svg width="96" height="96" viewBox="0 0 96 96" fill="none" xmlns="http://www.w3.org/2000/svg">
<g clip-path="url(#clip0_482_195)">
<path d="M96 48C96 57.4935 93.1849 66.7738 87.9106 74.6674C82.6363 82.5609 75.1397 88.7132 66.3688 92.3462C57.598 95.9792 47.9468 96.9298 38.6357 95.0777C29.3246 93.2256 20.7718 88.6541 14.0589 81.9411C7.34598 75.2282 2.77442 66.6754 0.922328 57.3643C-0.929763 48.0533 0.0207975 38.4021 3.6538 29.6312C7.28681 20.8603 13.4391 13.3638 21.3327 8.08946C29.2262 2.81515 38.5065 0 48 0C60.7304 0 72.9394 5.05713 81.9412 14.0589C90.9429 23.0606 96 35.2696 96 48Z" fill="white"/>
<g clip-path="url(#clip1_482_195)">
<path d="M61.6813 38.8045C60.7102 38.2496 59.4617 38.2496 58.3519 38.8045L50.5833 43.3824L45.3118 46.2956L37.6819 50.8735C36.7109 51.4284 35.4624 51.4284 34.3526 50.8735L28.3874 47.2667C27.4163 46.7118 26.7227 45.602 26.7227 44.3535V37.4173C26.7227 36.3075 27.2776 35.1977 28.3874 34.504L34.3526 31.0359C35.3236 30.481 36.5721 30.481 37.6819 31.0359L43.6471 34.6428C44.6182 35.1977 45.3118 36.3075 45.3118 37.556V42.1339L50.5833 39.082V34.3653C50.5833 33.2555 50.0284 32.1457 48.9186 31.4521L37.8207 24.932C36.8496 24.3771 35.6011 24.3771 34.4913 24.932L23.1159 31.5908C22.0061 32.1457 21.4512 33.2555 21.4512 34.3653V47.4054C21.4512 48.5152 22.0061 49.625 23.1159 50.3186L34.3526 56.8387C35.3236 57.3936 36.5721 57.3936 37.6819 56.8387L45.3118 52.3995L50.5833 49.3476L58.2132 44.9084C59.1843 44.3535 60.4328 44.3535 61.5426 44.9084L67.5077 48.3765C68.4788 48.9314 69.1724 50.0412 69.1724 51.2897V58.2259C69.1724 59.3357 68.6175 60.4455 67.5077 61.1392L61.6813 64.6073C60.7102 65.1622 59.4617 65.1622 58.3519 64.6073L52.3867 61.1392C51.4157 60.5843 50.7221 59.4745 50.7221 58.2259V53.7868L45.4505 56.8387V61.4166C45.4505 62.5264 46.0054 63.6362 47.1152 64.3298L58.3519 70.8499C59.323 71.4048 60.5715 71.4048 61.6813 70.8499L72.918 64.3298C73.8891 63.7749 74.5827 62.6651 74.5827 61.4166V48.2378C74.5827 47.128 74.0278 46.0182 72.918 45.3246L61.6813 38.8045Z" fill="#8247E5"/>
</g>
</g>
<defs>
<clipPath id="clip0_482_195">
<rect width="96" height="96" fill="white"/>
</clipPath>
<clipPath id="clip1_482_195">
<rect width="53.2702" height="46.4727" fill="white" transform="translate(21.4531 24.6545)"/>
</clipPath>
</defs>
</svg>
