<svg width="96" height="96" viewBox="0 0 96 96" fill="none" xmlns="http://www.w3.org/2000/svg">
<g clip-path="url(#clip0_8_3609)">
<path d="M66.7774 35.8082C66.4465 36.1442 66.0021 36.3362 65.5388 36.3362H21.6224C20.0719 36.3362 19.2872 34.4162 20.365 33.2738L27.5694 25.6994C27.9003 25.3538 28.3541 25.1522 28.8268 25.1522H72.9039C74.4639 25.1522 75.2486 27.0914 74.1425 28.2338L66.7774 35.8082ZM66.7774 69.6578C66.4465 69.9842 66.0021 70.1762 65.5388 70.1762H21.6224C20.0719 70.1762 19.2872 68.3042 20.365 67.1906L27.5694 59.7986C27.9003 59.4626 28.3541 59.2706 28.8268 59.2706H72.9039C74.4639 59.2706 75.2486 61.1618 74.1425 62.2754L66.7774 69.6578ZM65.5388 42.2114C66.0021 42.2114 66.4465 42.3938 66.7774 42.7298L74.1425 50.1218C75.2486 51.2258 74.4639 53.1266 72.9039 53.1266H28.8268C28.3541 53.1266 27.9003 52.9346 27.5694 52.5986L20.365 45.2066C19.2777 44.093 20.0624 42.221 21.6224 42.221L65.5388 42.2114Z" fill="#00FFAD"/>
<path d="M48 0C74.5056 0 96 21.4944 96 48C96 74.5056 74.5056 96 48 96C21.4944 96 0 74.5056 0 48C0 21.4944 21.4944 0 48 0Z" fill="black"/>
<path fill-rule="evenodd" clip-rule="evenodd" d="M23.1558 42.5106H65.8672C66.4026 42.5106 66.9103 42.7262 67.2796 43.1104L74.0366 50.0183C75.2828 51.293 74.3966 53.4675 72.6243 53.4675H29.9128C29.3774 53.4675 28.8697 53.2519 28.5005 52.8677L21.7435 45.9598C20.4881 44.6851 21.3835 42.5106 23.1558 42.5106ZM21.7435 33.3532L28.5005 26.4454C28.879 26.0611 29.3867 25.8455 29.9128 25.8455H72.615C74.3874 25.8455 75.2828 28.02 74.0274 29.2948L67.2796 36.2026C66.9011 36.5869 66.3934 36.8025 65.8672 36.8025H23.1558C21.3835 36.8025 20.4881 34.6279 21.7435 33.3532ZM74.0274 62.6249L67.2703 69.5327C66.8919 69.917 66.3842 70.1326 65.858 70.1326H23.1558C21.3835 70.1326 20.4881 67.9581 21.7435 66.6833L28.5005 59.7755C28.879 59.3912 29.3867 59.1756 29.9128 59.1756H72.615C74.3874 59.1756 75.2828 61.3502 74.0274 62.6249Z" fill="url(#paint0_linear_8_3609)"/>
</g>
<defs>
<linearGradient id="paint0_linear_8_3609" x1="24.2007" y1="72.0381" x2="72.2932" y2="24.6742" gradientUnits="userSpaceOnUse">
<stop stop-color="#CB4EE8"/>
<stop offset="1" stop-color="#10F4B1"/>
</linearGradient>
<clipPath id="clip0_8_3609">
<rect width="96" height="96" fill="white"/>
</clipPath>
</defs>
</svg>
